solid OpenSCAD_Model
  facet normal -1 0 0
    outer loop
      vertex -5 -5 0.1
      vertex -5 5 0.1
      vertex -5 -5 0
    endloop
  endfacet
  facet normal -1 0 0
    outer loop
      vertex -5 -5 0
      vertex -5 5 0.1
      vertex -5 5 0
    endloop
  endfacet
  facet normal 0 0 1
    outer loop
      vertex -5 -5 0.1
      vertex 5 -5 0.1
      vertex 5 5 0.1
    endloop
  endfacet
  facet normal 0 0 1
    outer loop
      vertex -5 5 0.1
      vertex -5 -5 0.1
      vertex 5 5 0.1
    endloop
  endfacet
  facet normal 0 -1 0
    outer loop
      vertex -5 -5 0
      vertex 5 -5 0
      vertex 5 -5 0.1
    endloop
  endfacet
  facet normal 0 -1 0
    outer loop
      vertex -5 -5 0.1
      vertex -5 -5 0
      vertex 5 -5 0.1
    endloop
  endfacet
  facet normal 0 0 -1
    outer loop
      vertex -5 5 0
      vertex 5 5 0
      vertex -5 -5 0
    endloop
  endfacet
  facet normal 0 0 -1
    outer loop
      vertex -5 -5 0
      vertex 5 5 0
      vertex 5 -5 0
    endloop
  endfacet
  facet normal 0 1 0
    outer loop
      vertex -5 5 0.1
      vertex 5 5 0.1
      vertex -5 5 0
    endloop
  endfacet
  facet normal 0 1 0
    outer loop
      vertex -5 5 0
      vertex 5 5 0.1
      vertex 5 5 0
    endloop
  endfacet
  facet normal 1 0 0
    outer loop
      vertex 5 -5 0
      vertex 5 5 0
      vertex 5 5 0.1
    endloop
  endfacet
  facet normal 1 0 0
    outer loop
      vertex 5 -5 0.1
      vertex 5 -5 0
      vertex 5 5 0.1
    endloop
  endfacet
endsolid OpenSCAD_Model
