solid OpenSCAD_Model
  facet normal -1 -0 -0
    outer loop
      vertex 0 0 0
      vertex 0 0 7
      vertex 0 80 0
    endloop
  endfacet
  facet normal -1 0 0
    outer loop
      vertex 0 80 0
      vertex 0 0 7
      vertex 0 80 7
    endloop
  endfacet
  facet normal 0 -1 0
    outer loop
      vertex 0 0 7
      vertex 0 0 0
      vertex 60 0 0
    endloop
  endfacet
  facet normal 0 -1 0
    outer loop
      vertex 60 0 7
      vertex 0 0 7
      vertex 60 0 0
    endloop
  endfacet
  facet normal -0 -0 -1
    outer loop
      vertex 0 0 0
      vertex 0 80 0
      vertex 60 0 0
    endloop
  endfacet
  facet normal 0 0 -1
    outer loop
      vertex 60 0 0
      vertex 0 80 0
      vertex 60 80 0
    endloop
  endfacet
  facet normal 0 1 0
    outer loop
      vertex 0 80 0
      vertex 0 80 7
      vertex 60 80 0
    endloop
  endfacet
  facet normal 0 1 0
    outer loop
      vertex 60 80 0
      vertex 0 80 7
      vertex 60 80 7
    endloop
  endfacet
  facet normal 0 -0 1
    outer loop
      vertex 20 20 7
      vertex 0 0 7
      vertex 60 0 7
    endloop
  endfacet
  facet normal 0 -0 1
    outer loop
      vertex 40 20 7
      vertex 20 20 7
      vertex 60 0 7
    endloop
  endfacet
  facet normal 0 -0 1
    outer loop
      vertex 0 80 7
      vertex 0 0 7
      vertex 20 20 7
    endloop
  endfacet
  facet normal 0 0 1
    outer loop
      vertex 60 80 7
      vertex 0 80 7
      vertex 20 60 7
    endloop
  endfacet
  facet normal 0 0 1
    outer loop
      vertex 60 80 7
      vertex 40 60 7
      vertex 60 0 7
    endloop
  endfacet
  facet normal 0 0 1
    outer loop
      vertex 60 80 7
      vertex 20 60 7
      vertex 40 60 7
    endloop
  endfacet
  facet normal 0 -0 1
    outer loop
      vertex 40 60 7
      vertex 40 20 7
      vertex 60 0 7
    endloop
  endfacet
  facet normal 0 0 1
    outer loop
      vertex 20 20 7
      vertex 20 60 7
      vertex 0 80 7
    endloop
  endfacet
  facet normal 1 0 -0
    outer loop
      vertex 60 0 7
      vertex 60 0 0
      vertex 60 80 0
    endloop
  endfacet
  facet normal 1 0 0
    outer loop
      vertex 60 80 7
      vertex 60 0 7
      vertex 60 80 0
    endloop
  endfacet
  facet normal 1 0 0
    outer loop
      vertex 20 60 2
      vertex 20 60 7
      vertex 20 20 7
    endloop
  endfacet
  facet normal 1 0 0
    outer loop
      vertex 20 20 2
      vertex 20 60 2
      vertex 20 20 7
    endloop
  endfacet
  facet normal 0 1 0
    outer loop
      vertex 40 20 7
      vertex 40 20 2
      vertex 20 20 7
    endloop
  endfacet
  facet normal 0 1 -0
    outer loop
      vertex 20 20 7
      vertex 40 20 2
      vertex 20 20 2
    endloop
  endfacet
  facet normal -1 0 0
    outer loop
      vertex 40 60 7
      vertex 40 60 2
      vertex 40 20 7
    endloop
  endfacet
  facet normal -1 0 0
    outer loop
      vertex 40 20 7
      vertex 40 60 2
      vertex 40 20 2
    endloop
  endfacet
  facet normal 0 -1 0
    outer loop
      vertex 40 60 2
      vertex 40 60 7
      vertex 20 60 7
    endloop
  endfacet
  facet normal -0 -1 -0
    outer loop
      vertex 20 60 2
      vertex 40 60 2
      vertex 20 60 7
    endloop
  endfacet
  facet normal 0 0 1
    outer loop
      vertex 40 20 2
      vertex 40 60 2
      vertex 20 60 2
    endloop
  endfacet
  facet normal 0 0 1
    outer loop
      vertex 20 20 2
      vertex 40 20 2
      vertex 20 60 2
    endloop
  endfacet
endsolid OpenSCAD_Model
