solid OpenSCAD_Model
  facet normal -1 -0 -0
    outer loop
      vertex -20 0 0
      vertex -20 0 2
      vertex -20 15 0
    endloop
  endfacet
  facet normal -1 0 0
    outer loop
      vertex -20 15 0
      vertex -20 0 2
      vertex -20 15 4
    endloop
  endfacet
  facet normal 0 -1 0
    outer loop
      vertex -20 0 2
      vertex -20 0 0
      vertex -5 0 0
    endloop
  endfacet
  facet normal 0 -1 0
    outer loop
      vertex -5 0 2
      vertex -20 0 2
      vertex -5 0 0
    endloop
  endfacet
  facet normal -0 -0 -1
    outer loop
      vertex -20 0 0
      vertex -20 15 0
      vertex -5 0 0
    endloop
  endfacet
  facet normal 0 0 -1
    outer loop
      vertex -5 0 0
      vertex -20 15 0
      vertex -5 15 0
    endloop
  endfacet
  facet normal 0 1 0
    outer loop
      vertex -20 15 0
      vertex -20 15 4
      vertex -5 15 0
    endloop
  endfacet
  facet normal 0 1 0
    outer loop
      vertex -5 15 0
      vertex -20 15 4
      vertex -5 15 4
    endloop
  endfacet
  facet normal 0 -0.132164 0.991228
    outer loop
      vertex -20 15 4
      vertex -20 0 2
      vertex -5 0 2
    endloop
  endfacet
  facet normal 0 -0.132164 0.991228
    outer loop
      vertex -5 15 4
      vertex -20 15 4
      vertex -5 0 2
    endloop
  endfacet
  facet normal 1 0 -0
    outer loop
      vertex -5 0 2
      vertex -5 0 0
      vertex -5 15 0
    endloop
  endfacet
  facet normal 1 0 0
    outer loop
      vertex -5 15 4
      vertex -5 0 2
      vertex -5 15 0
    endloop
  endfacet
  facet normal 0 -1 0
    outer loop
      vertex -20 18 4
      vertex -20 18 0
      vertex -5 18 0
    endloop
  endfacet
  facet normal 0 -1 0
    outer loop
      vertex -5 18 2
      vertex -20 18 4
      vertex -5 18 0
    endloop
  endfacet
  facet normal -0 0 -1
    outer loop
      vertex -20 18 0
      vertex -20 33 0
      vertex -5 18 0
    endloop
  endfacet
  facet normal 0 -0 -1
    outer loop
      vertex -5 18 0
      vertex -20 33 0
      vertex -5 33 0
    endloop
  endfacet
  facet normal -1 2.36848e-016 0
    outer loop
      vertex -20 18 0
      vertex -20 18 4
      vertex -20 33 0
    endloop
  endfacet
  facet normal -1 2.36848e-016 0
    outer loop
      vertex -20 33 0
      vertex -20 18 4
      vertex -20 33 4
    endloop
  endfacet
  facet normal 0.132164 -3.13027e-017 0.991228
    outer loop
      vertex -20 33 4
      vertex -20 18 4
      vertex -5 18 2
    endloop
  endfacet
  facet normal 0.132164 -2.3477e-017 0.991228
    outer loop
      vertex -5 33 2
      vertex -20 33 4
      vertex -5 18 2
    endloop
  endfacet
  facet normal 1 -1.77636e-016 0
    outer loop
      vertex -5 18 2
      vertex -5 18 0
      vertex -5 33 0
    endloop
  endfacet
  facet normal 1 -1.77636e-016 0
    outer loop
      vertex -5 33 2
      vertex -5 18 2
      vertex -5 33 0
    endloop
  endfacet
  facet normal 0 1 0
    outer loop
      vertex -20 33 0
      vertex -20 33 4
      vertex -5 33 0
    endloop
  endfacet
  facet normal 0 1 0
    outer loop
      vertex -5 33 0
      vertex -20 33 4
      vertex -5 33 2
    endloop
  endfacet
  facet normal -1 -0 -0
    outer loop
      vertex 0 0 0
      vertex 0 0 2
      vertex 0 15 0
    endloop
  endfacet
  facet normal -1 0 0
    outer loop
      vertex 0 15 0
      vertex 0 0 2
      vertex 0 15 6
    endloop
  endfacet
  facet normal 0 -1 0
    outer loop
      vertex 0 0 2
      vertex 0 0 0
      vertex 15 0 0
    endloop
  endfacet
  facet normal 0 -1 0
    outer loop
      vertex 15 0 2
      vertex 0 0 2
      vertex 15 0 0
    endloop
  endfacet
  facet normal -0 -0 -1
    outer loop
      vertex 0 0 0
      vertex 0 15 0
      vertex 15 0 0
    endloop
  endfacet
  facet normal 0 0 -1
    outer loop
      vertex 15 0 0
      vertex 0 15 0
      vertex 15 15 0
    endloop
  endfacet
  facet normal 0 1 0
    outer loop
      vertex 0 15 0
      vertex 0 15 6
      vertex 15 15 0
    endloop
  endfacet
  facet normal 0 1 0
    outer loop
      vertex 15 15 0
      vertex 0 15 6
      vertex 15 15 6
    endloop
  endfacet
  facet normal 0 -0.257663 0.966235
    outer loop
      vertex 0 15 6
      vertex 0 0 2
      vertex 15 0 2
    endloop
  endfacet
  facet normal 0 -0.257663 0.966235
    outer loop
      vertex 15 15 6
      vertex 0 15 6
      vertex 15 0 2
    endloop
  endfacet
  facet normal 1 0 -0
    outer loop
      vertex 15 0 2
      vertex 15 0 0
      vertex 15 15 0
    endloop
  endfacet
  facet normal 1 0 0
    outer loop
      vertex 15 15 6
      vertex 15 0 2
      vertex 15 15 0
    endloop
  endfacet
  facet normal 0 -1 0
    outer loop
      vertex 0 18 6
      vertex 0 18 0
      vertex 15 18 0
    endloop
  endfacet
  facet normal 0 -1 0
    outer loop
      vertex 15 18 2
      vertex 0 18 6
      vertex 15 18 0
    endloop
  endfacet
  facet normal -0 0 -1
    outer loop
      vertex 0 18 0
      vertex 2.65982e-015 33 0
      vertex 15 18 0
    endloop
  endfacet
  facet normal 0 -0 -1
    outer loop
      vertex 15 18 0
      vertex 2.65982e-015 33 0
      vertex 15 33 0
    endloop
  endfacet
  facet normal -1 1.77321e-016 0
    outer loop
      vertex 0 18 0
      vertex 0 18 6
      vertex 2.65982e-015 33 0
    endloop
  endfacet
  facet normal -1 1.77321e-016 0
    outer loop
      vertex 2.65982e-015 33 0
      vertex 0 18 6
      vertex 2.65982e-015 33 6
    endloop
  endfacet
  facet normal 0.257663 -4.56891e-017 0.966235
    outer loop
      vertex 2.65982e-015 33 6
      vertex 0 18 6
      vertex 15 18 2
    endloop
  endfacet
  facet normal 0.257663 -3.05134e-017 0.966235
    outer loop
      vertex 15 33 2
      vertex 2.65982e-015 33 6
      vertex 15 18 2
    endloop
  endfacet
  facet normal 1 -1.18424e-016 0
    outer loop
      vertex 15 18 2
      vertex 15 18 0
      vertex 15 33 0
    endloop
  endfacet
  facet normal 1 -1.18424e-016 0
    outer loop
      vertex 15 33 2
      vertex 15 18 2
      vertex 15 33 0
    endloop
  endfacet
  facet normal 0 1 0
    outer loop
      vertex 2.65982e-015 33 0
      vertex 2.65982e-015 33 6
      vertex 15 33 0
    endloop
  endfacet
  facet normal 0 1 0
    outer loop
      vertex 15 33 0
      vertex 2.65982e-015 33 6
      vertex 15 33 2
    endloop
  endfacet
endsolid OpenSCAD_Model
