solid OpenSCAD_Model
  facet normal 0 1 0
    outer loop
      vertex -18.279 5 8.10969
      vertex -18.2709 5 8.13473
      vertex -17.3974 5 8.8629
    endloop
  endfacet
  facet normal -0 1 0
    outer loop
      vertex -17.3974 5 8.8629
      vertex -18.2709 5 8.13473
      vertex -16.1803 5 11.7557
    endloop
  endfacet
  facet normal -5.95901e-016 1 2.50706e-016
    outer loop
      vertex -17.3974 5 8.8629
      vertex -16.1803 5 11.7557
      vertex -13.3826 5 14.8629
    endloop
  endfacet
  facet normal -3.01688e-016 1 5.3839e-017
    outer loop
      vertex -17.3974 5 8.8629
      vertex -13.3826 5 14.8629
      vertex -10 5 17.3205
    endloop
  endfacet
  facet normal 1.53151e-016 1 -3.43983e-016
    outer loop
      vertex -17.3974 5 8.8629
      vertex -10 5 17.3205
      vertex -6.18034 5 19.0211
    endloop
  endfacet
  facet normal 4.85693e-017 1 -2.285e-016
    outer loop
      vertex -17.3974 5 8.8629
      vertex -6.18034 5 19.0211
      vertex -5 5 19.272
    endloop
  endfacet
  facet normal 0 1 0
    outer loop
      vertex 17.3974 5 8.8629
      vertex 18.2709 5 8.13473
      vertex 18.279 5 8.10969
    endloop
  endfacet
  facet normal 3.53433e-033 1 -1.22006e-015
    outer loop
      vertex -5 5 19.272
      vertex -5 5 20
      vertex 5 5 20
    endloop
  endfacet
  facet normal 4.40275e-016 1 -1.22006e-015
    outer loop
      vertex -13 5 11.3205
      vertex 5 5 20
      vertex 5 5 19.272
    endloop
  endfacet
  facet normal 3.95074e-017 1 -2.41628e-016
    outer loop
      vertex -8.03444 5 13.0211
      vertex 6.18034 5 19.0211
      vertex -5 5 13.5173
    endloop
  endfacet
  facet normal 0 1 0
    outer loop
      vertex 5 5 13.5173
      vertex 13.3826 5 14.8629
      vertex 8.03444 5 13.0211
    endloop
  endfacet
  facet normal 5.10642e-017 1 -3.73167e-016
    outer loop
      vertex 8.03444 5 13.0211
      vertex 16.1803 5 11.7557
      vertex 13 5 11.3205
    endloop
  endfacet
  facet normal 0 1 0
    outer loop
      vertex 16.1803 5 11.7557
      vertex 18.2709 5 8.13473
      vertex 17.3974 5 8.8629
    endloop
  endfacet
  facet normal 0 1 -1.97121e-016
    outer loop
      vertex -5 5 13.5173
      vertex 5 5 -1.11022e-015
      vertex -5 5 -1.11022e-015
    endloop
  endfacet
  facet normal 0 1 -0
    outer loop
      vertex 16.1803 5 11.7557
      vertex 17.3974 5 8.8629
      vertex 13 5 11.3205
    endloop
  endfacet
  facet normal 7.5139e-017 1 -2.18191e-016
    outer loop
      vertex 13.3826 5 14.8629
      vertex 16.1803 5 11.7557
      vertex 8.03444 5 13.0211
    endloop
  endfacet
  facet normal 4.75154e-017 1 -2.96e-016
    outer loop
      vertex 10 5 17.3205
      vertex 13.3826 5 14.8629
      vertex 5 5 13.5173
    endloop
  endfacet
  facet normal 0 1 -2.33533e-016
    outer loop
      vertex -5 5 13.5173
      vertex 10 5 17.3205
      vertex 5 5 13.5173
    endloop
  endfacet
  facet normal -3.77271e-017 1 -8.47364e-017
    outer loop
      vertex 6.18034 5 19.0211
      vertex 10 5 17.3205
      vertex -5 5 13.5173
    endloop
  endfacet
  facet normal -4.55503e-016 1 8.07733e-016
    outer loop
      vertex -13 5 11.3205
      vertex 5 5 19.272
      vertex -8.03444 5 13.0211
    endloop
  endfacet
  facet normal -2.09266e-017 1 -9.84519e-017
    outer loop
      vertex 5 5 19.272
      vertex 6.18034 5 19.0211
      vertex -8.03444 5 13.0211
    endloop
  endfacet
  facet normal -7.82889e-017 1 -1.44632e-016
    outer loop
      vertex -5 5 19.272
      vertex 5 5 20
      vertex -13 5 11.3205
    endloop
  endfacet
  facet normal 0 1 -1.97121e-016
    outer loop
      vertex -5 5 13.5173
      vertex 5 5 13.5173
      vertex 5 5 -1.11022e-015
    endloop
  endfacet
  facet normal 2.85239e-016 1 -5.10377e-016
    outer loop
      vertex -17.3974 5 8.8629
      vertex -5 5 19.272
      vertex -13 5 11.3205
    endloop
  endfacet
  facet normal -0.951057 5.48924e-017 0.309017
    outer loop
      vertex -18.279 5 8.10969
      vertex -18.279 -5 8.10969
      vertex -18.2709 5 8.13473
    endloop
  endfacet
  facet normal -0.951057 5.48924e-017 0.309017
    outer loop
      vertex -18.2709 5 8.13473
      vertex -18.279 -5 8.10969
      vertex -18.2709 -5 8.13473
    endloop
  endfacet
  facet normal 0.649552 -1.35059e-016 -0.760317
    outer loop
      vertex -17.3974 -5 8.8629
      vertex -18.279 -5 8.10969
      vertex -17.3974 5 8.8629
    endloop
  endfacet
  facet normal 0.649552 -1.3717e-016 -0.760317
    outer loop
      vertex -17.3974 5 8.8629
      vertex -18.279 -5 8.10969
      vertex -18.279 5 8.10969
    endloop
  endfacet
  facet normal 0.487858 -1.55062e-016 -0.872923
    outer loop
      vertex -13 -5 11.3205
      vertex -17.3974 -5 8.8629
      vertex -13 5 11.3205
    endloop
  endfacet
  facet normal 0.487858 -1.4537e-016 -0.872923
    outer loop
      vertex -13 5 11.3205
      vertex -17.3974 -5 8.8629
      vertex -17.3974 5 8.8629
    endloop
  endfacet
  facet normal 0.324008 -1.68053e-016 -0.946054
    outer loop
      vertex -8.03444 -5 13.0211
      vertex -13 -5 11.3205
      vertex -8.03444 5 13.0211
    endloop
  endfacet
  facet normal 0.324008 -1.57558e-016 -0.946054
    outer loop
      vertex -8.03444 5 13.0211
      vertex -13 -5 11.3205
      vertex -13 5 11.3205
    endloop
  endfacet
  facet normal 0.161362 -1.75308e-016 -0.986895
    outer loop
      vertex -5 -5 13.5173
      vertex -8.03444 -5 13.0211
      vertex -5 5 13.5173
    endloop
  endfacet
  facet normal 0.161362 -1.78046e-016 -0.986895
    outer loop
      vertex -5 5 13.5173
      vertex -8.03444 -5 13.0211
      vertex -8.03444 5 13.0211
    endloop
  endfacet
  facet normal -1 0 -0
    outer loop
      vertex -5 5 -1.11022e-015
      vertex -5 -5 1.11022e-015
      vertex -5 5 13.5173
    endloop
  endfacet
  facet normal -1 0 0
    outer loop
      vertex -5 5 13.5173
      vertex -5 -5 1.11022e-015
      vertex -5 -5 13.5173
    endloop
  endfacet
  facet normal -0 -2.22045e-016 -1
    outer loop
      vertex -5 5 -1.11022e-015
      vertex 5 5 -1.11022e-015
      vertex -5 -5 1.11022e-015
    endloop
  endfacet
  facet normal -0 -2.22045e-016 -1
    outer loop
      vertex -5 -5 1.11022e-015
      vertex 5 5 -1.11022e-015
      vertex 5 -5 1.11022e-015
    endloop
  endfacet
  facet normal 1 0 0
    outer loop
      vertex 5 -5 1.11022e-015
      vertex 5 5 -1.11022e-015
      vertex 5 5 13.5173
    endloop
  endfacet
  facet normal 1 0 -0
    outer loop
      vertex 5 -5 13.5173
      vertex 5 -5 1.11022e-015
      vertex 5 5 13.5173
    endloop
  endfacet
  facet normal -0.161362 -1.75308e-016 -0.986895
    outer loop
      vertex 8.03444 -5 13.0211
      vertex 5 -5 13.5173
      vertex 8.03444 5 13.0211
    endloop
  endfacet
  facet normal -0.161362 -1.71198e-016 -0.986895
    outer loop
      vertex 8.03444 5 13.0211
      vertex 5 -5 13.5173
      vertex 5 5 13.5173
    endloop
  endfacet
  facet normal -0.324008 -1.68053e-016 -0.946054
    outer loop
      vertex 13 -5 11.3205
      vertex 8.03444 -5 13.0211
      vertex 13 5 11.3205
    endloop
  endfacet
  facet normal -0.324008 -1.83805e-016 -0.946054
    outer loop
      vertex 13 5 11.3205
      vertex 8.03444 -5 13.0211
      vertex 8.03444 5 13.0211
    endloop
  endfacet
  facet normal -0.487858 -1.55062e-016 -0.872923
    outer loop
      vertex 17.3974 -5 8.8629
      vertex 13 -5 11.3205
      vertex 17.3974 5 8.8629
    endloop
  endfacet
  facet normal -0.487858 -1.69596e-016 -0.872923
    outer loop
      vertex 17.3974 5 8.8629
      vertex 13 -5 11.3205
      vertex 13 5 11.3205
    endloop
  endfacet
  facet normal -0.649552 -1.35059e-016 -0.760317
    outer loop
      vertex 18.279 -5 8.10969
      vertex 17.3974 -5 8.8629
      vertex 18.279 5 8.10969
    endloop
  endfacet
  facet normal -0.649552 -1.3717e-016 -0.760317
    outer loop
      vertex 18.279 5 8.10969
      vertex 17.3974 -5 8.8629
      vertex 17.3974 5 8.8629
    endloop
  endfacet
  facet normal 0.951057 5.4812e-017 0.309017
    outer loop
      vertex 18.279 5 8.10969
      vertex 18.2709 5 8.13473
      vertex 18.2709 -5 8.13473
    endloop
  endfacet
  facet normal 0.951057 5.48924e-017 0.309017
    outer loop
      vertex 18.279 -5 8.10969
      vertex 18.279 5 8.10969
      vertex 18.2709 -5 8.13473
    endloop
  endfacet
  facet normal 0.866025 1.11032e-016 0.5
    outer loop
      vertex 18.2709 5 8.13473
      vertex 16.1803 5 11.7557
      vertex 16.1803 -5 11.7557
    endloop
  endfacet
  facet normal 0.866025 8.88178e-017 0.5
    outer loop
      vertex 18.2709 -5 8.13473
      vertex 18.2709 5 8.13473
      vertex 16.1803 -5 11.7557
    endloop
  endfacet
  facet normal 0.743145 1.11438e-016 0.669131
    outer loop
      vertex 16.1803 5 11.7557
      vertex 13.3826 5 14.8629
      vertex 13.3826 -5 14.8629
    endloop
  endfacet
  facet normal 0.743145 1.18862e-016 0.669131
    outer loop
      vertex 16.1803 -5 11.7557
      vertex 16.1803 5 11.7557
      vertex 13.3826 -5 14.8629
    endloop
  endfacet
  facet normal 0.587785 2.91916e-016 0.809017
    outer loop
      vertex 13.3826 5 14.8629
      vertex 10 5 17.3205
      vertex 10 -5 17.3205
    endloop
  endfacet
  facet normal 0.587785 1.4371e-016 0.809017
    outer loop
      vertex 13.3826 -5 14.8629
      vertex 13.3826 5 14.8629
      vertex 10 -5 17.3205
    endloop
  endfacet
  facet normal 0.406737 3.29629e-016 0.913545
    outer loop
      vertex 10 5 17.3205
      vertex 6.18034 5 19.0211
      vertex 6.18034 -5 19.0211
    endloop
  endfacet
  facet normal 0.406737 3.24557e-016 0.913545
    outer loop
      vertex 10 -5 17.3205
      vertex 10 5 17.3205
      vertex 6.18034 -5 19.0211
    endloop
  endfacet
  facet normal 0.207912 3.49545e-016 0.978148
    outer loop
      vertex 6.18034 5 19.0211
      vertex 5 5 19.272
      vertex 5 -5 19.272
    endloop
  endfacet
  facet normal 0.207912 3.47508e-016 0.978148
    outer loop
      vertex 6.18034 -5 19.0211
      vertex 6.18034 5 19.0211
      vertex 5 -5 19.272
    endloop
  endfacet
  facet normal 1 0 0
    outer loop
      vertex 5 -5 19.272
      vertex 5 5 19.272
      vertex 5 5 20
    endloop
  endfacet
  facet normal 1 0 -0
    outer loop
      vertex 5 -5 20
      vertex 5 -5 19.272
      vertex 5 5 20
    endloop
  endfacet
  facet normal -0 3.55271e-016 1
    outer loop
      vertex 5 5 20
      vertex -5 5 20
      vertex -5 -5 20
    endloop
  endfacet
  facet normal -0 3.55271e-016 1
    outer loop
      vertex 5 -5 20
      vertex 5 5 20
      vertex -5 -5 20
    endloop
  endfacet
  facet normal -1 0 -0
    outer loop
      vertex -5 5 19.272
      vertex -5 -5 19.272
      vertex -5 5 20
    endloop
  endfacet
  facet normal -1 0 0
    outer loop
      vertex -5 5 20
      vertex -5 -5 19.272
      vertex -5 -5 20
    endloop
  endfacet
  facet normal -0.207912 3.46149e-016 0.978148
    outer loop
      vertex -5 5 19.272
      vertex -6.18034 5 19.0211
      vertex -6.18034 -5 19.0211
    endloop
  endfacet
  facet normal -0.207912 3.47508e-016 0.978148
    outer loop
      vertex -5 -5 19.272
      vertex -5 5 19.272
      vertex -6.18034 -5 19.0211
    endloop
  endfacet
  facet normal -0.406737 3.29629e-016 0.913545
    outer loop
      vertex -6.18034 5 19.0211
      vertex -10 5 17.3205
      vertex -10 -5 17.3205
    endloop
  endfacet
  facet normal -0.406737 3.24557e-016 0.913545
    outer loop
      vertex -6.18034 -5 19.0211
      vertex -6.18034 5 19.0211
      vertex -10 -5 17.3205
    endloop
  endfacet
  facet normal -0.587785 1.57173e-016 0.809017
    outer loop
      vertex -10 5 17.3205
      vertex -13.3826 5 14.8629
      vertex -13.3826 -5 14.8629
    endloop
  endfacet
  facet normal -0.587785 2.87421e-016 0.809017
    outer loop
      vertex -10 -5 17.3205
      vertex -10 5 17.3205
      vertex -13.3826 -5 14.8629
    endloop
  endfacet
  facet normal -0.743145 1.18862e-016 0.669131
    outer loop
      vertex -16.1803 5 11.7557
      vertex -16.1803 -5 11.7557
      vertex -13.3826 5 14.8629
    endloop
  endfacet
  facet normal -0.743145 1.18862e-016 0.669131
    outer loop
      vertex -13.3826 5 14.8629
      vertex -16.1803 -5 11.7557
      vertex -13.3826 -5 14.8629
    endloop
  endfacet
  facet normal -0.866025 8.88178e-017 0.5
    outer loop
      vertex -18.2709 5 8.13473
      vertex -18.2709 -5 8.13473
      vertex -16.1803 5 11.7557
    endloop
  endfacet
  facet normal -0.866025 8.88178e-017 0.5
    outer loop
      vertex -16.1803 5 11.7557
      vertex -18.2709 -5 8.13473
      vertex -16.1803 -5 11.7557
    endloop
  endfacet
  facet normal -0 -1 0
    outer loop
      vertex -18.2709 -5 8.13473
      vertex -18.279 -5 8.10969
      vertex -17.3974 -5 8.8629
    endloop
  endfacet
  facet normal 6.79544e-016 -1 -1.4619e-015
    outer loop
      vertex -8.03444 -5 13.0211
      vertex 6.18034 -5 19.0211
      vertex -13 -5 11.3205
    endloop
  endfacet
  facet normal -1.0752e-016 -1 6.57591e-016
    outer loop
      vertex -5 -5 13.5173
      vertex 10 -5 17.3205
      vertex -8.03444 -5 13.0211
    endloop
  endfacet
  facet normal 0 -1 -0
    outer loop
      vertex 5 -5 13.5173
      vertex 13.3826 -5 14.8629
      vertex -5 -5 13.5173
    endloop
  endfacet
  facet normal 0 -1 2.62828e-016
    outer loop
      vertex -5 -5 1.11022e-015
      vertex 5 -5 1.11022e-015
      vertex -5 -5 13.5173
    endloop
  endfacet
  facet normal 0 -1 2.62828e-016
    outer loop
      vertex 5 -5 1.11022e-015
      vertex 5 -5 13.5173
      vertex -5 -5 13.5173
    endloop
  endfacet
  facet normal -2.1847e-015 -1 -1.33616e-014
    outer loop
      vertex 8.03444 -5 13.0211
      vertex 16.1803 -5 11.7557
      vertex 5 -5 13.5173
    endloop
  endfacet
  facet normal -5.10642e-017 -1 3.73167e-016
    outer loop
      vertex 13 -5 11.3205
      vertex 16.1803 -5 11.7557
      vertex 8.03444 -5 13.0211
    endloop
  endfacet
  facet normal 0 -1 0
    outer loop
      vertex 17.3974 -5 8.8629
      vertex 16.1803 -5 11.7557
      vertex 13 -5 11.3205
    endloop
  endfacet
  facet normal 9.86865e-017 -1 0
    outer loop
      vertex 5 -5 19.272
      vertex 5 -5 20
      vertex -13 -5 11.3205
    endloop
  endfacet
  facet normal 0 -1 0
    outer loop
      vertex 18.279 -5 8.10969
      vertex 18.2709 -5 8.13473
      vertex 17.3974 -5 8.8629
    endloop
  endfacet
  facet normal 0 -1 0
    outer loop
      vertex 18.2709 -5 8.13473
      vertex 16.1803 -5 11.7557
      vertex 17.3974 -5 8.8629
    endloop
  endfacet
  facet normal -4.00908e-017 -1 2.49748e-016
    outer loop
      vertex 16.1803 -5 11.7557
      vertex 13.3826 -5 14.8629
      vertex 5 -5 13.5173
    endloop
  endfacet
  facet normal -2.40332e-017 -1 3.2832e-016
    outer loop
      vertex 13.3826 -5 14.8629
      vertex 10 -5 17.3205
      vertex -5 -5 13.5173
    endloop
  endfacet
  facet normal 3.20746e-017 -1 7.20408e-017
    outer loop
      vertex 10 -5 17.3205
      vertex 6.18034 -5 19.0211
      vertex -8.03444 -5 13.0211
    endloop
  endfacet
  facet normal 3.20591e-017 -1 1.50826e-016
    outer loop
      vertex 6.18034 -5 19.0211
      vertex 5 -5 19.272
      vertex -13 -5 11.3205
    endloop
  endfacet
  facet normal -1.4371e-016 -1 3.22779e-016
    outer loop
      vertex -6.18034 -5 19.0211
      vertex -10 -5 17.3205
      vertex -18.2709 -5 8.13473
    endloop
  endfacet
  facet normal -1.75483e-017 -1 2.41054e-016
    outer loop
      vertex 5 -5 20
      vertex -5 -5 19.272
      vertex -13 -5 11.3205
    endloop
  endfacet
  facet normal 0 -1 0
    outer loop
      vertex 5 -5 20
      vertex -5 -5 20
      vertex -5 -5 19.272
    endloop
  endfacet
  facet normal 3.52995e-016 -1 -1.24457e-016
    outer loop
      vertex -10 -5 17.3205
      vertex -13.3826 -5 14.8629
      vertex -18.2709 -5 8.13473
    endloop
  endfacet
  facet normal 8.84824e-016 -1 -5.10853e-016
    outer loop
      vertex -13.3826 -5 14.8629
      vertex -16.1803 -5 11.7557
      vertex -18.2709 -5 8.13473
    endloop
  endfacet
  facet normal -2.85239e-016 -1 5.10377e-016
    outer loop
      vertex -5 -5 19.272
      vertex -17.3974 -5 8.8629
      vertex -13 -5 11.3205
    endloop
  endfacet
  facet normal -1.98442e-014 -1 2.38053e-014
    outer loop
      vertex -5 -5 19.272
      vertex -18.2709 -5 8.13473
      vertex -17.3974 -5 8.8629
    endloop
  endfacet
  facet normal -4.54011e-017 -1 2.13595e-016
    outer loop
      vertex -5 -5 19.272
      vertex -6.18034 -5 19.0211
      vertex -18.2709 -5 8.13473
    endloop
  endfacet
endsolid OpenSCAD_Model
