solid OpenSCAD_Model
  facet normal -0.707107 0 0.707107
    outer loop
      vertex 0 10 0
      vertex 0 0 0
      vertex 10 0 10
    endloop
  endfacet
  facet normal -0.707107 0 0.707107
    outer loop
      vertex 10 10 10
      vertex 0 10 0
      vertex 10 0 10
    endloop
  endfacet
  facet normal 0 -1 0
    outer loop
      vertex 10 0 10
      vertex 0 0 0
      vertex 7.07107 0 0
    endloop
  endfacet
  facet normal 0 -1 0
    outer loop
      vertex 25 0 15
      vertex 10 0 10
      vertex 17.0711 0 10
    endloop
  endfacet
  facet normal 0 -1 0
    outer loop
      vertex 17.0711 0 10
      vertex 10 0 10
      vertex 7.07107 0 0
    endloop
  endfacet
  facet normal -0 -1 -0
    outer loop
      vertex 0 0 10
      vertex 10 0 10
      vertex 0 0 15
    endloop
  endfacet
  facet normal 0 -1 0
    outer loop
      vertex 25 0 15
      vertex 17.0711 0 10
      vertex 25 0 10
    endloop
  endfacet
  facet normal 0 -1 0
    outer loop
      vertex 0 0 15
      vertex 10 0 10
      vertex 25 0 15
    endloop
  endfacet
  facet normal 0 0 -1
    outer loop
      vertex 7.07107 10 0
      vertex 7.07107 0 0
      vertex 0 10 0
    endloop
  endfacet
  facet normal 0 0 -1
    outer loop
      vertex 0 10 0
      vertex 7.07107 0 0
      vertex 0 0 0
    endloop
  endfacet
  facet normal 0 1 0
    outer loop
      vertex 0 10 0
      vertex 10 10 10
      vertex 7.07107 10 0
    endloop
  endfacet
  facet normal 0 1 -0
    outer loop
      vertex 0 10 15
      vertex 10 10 10
      vertex 0 10 10
    endloop
  endfacet
  facet normal 0 1 0
    outer loop
      vertex 25 10 15
      vertex 10 10 10
      vertex 0 10 15
    endloop
  endfacet
  facet normal -0 1 0
    outer loop
      vertex 17.0711 10 10
      vertex 10 10 10
      vertex 25 10 15
    endloop
  endfacet
  facet normal 0 1 0
    outer loop
      vertex 7.07107 10 0
      vertex 10 10 10
      vertex 17.0711 10 10
    endloop
  endfacet
  facet normal 0 1 0
    outer loop
      vertex 17.0711 10 10
      vertex 25 10 15
      vertex 25 10 10
    endloop
  endfacet
  facet normal -0 -0 -1
    outer loop
      vertex 0 0 10
      vertex 0 10 10
      vertex 10 0 10
    endloop
  endfacet
  facet normal 0 0 -1
    outer loop
      vertex 10 0 10
      vertex 0 10 10
      vertex 10 10 10
    endloop
  endfacet
  facet normal -1 -0 -0
    outer loop
      vertex 0 0 10
      vertex 0 0 15
      vertex 0 10 10
    endloop
  endfacet
  facet normal -1 0 0
    outer loop
      vertex 0 10 10
      vertex 0 0 15
      vertex 0 10 15
    endloop
  endfacet
  facet normal 0 -0 1
    outer loop
      vertex 0 10 15
      vertex 0 0 15
      vertex 25 0 15
    endloop
  endfacet
  facet normal 0 0 1
    outer loop
      vertex 25 10 15
      vertex 0 10 15
      vertex 25 0 15
    endloop
  endfacet
  facet normal 1 0 -0
    outer loop
      vertex 25 0 15
      vertex 25 0 10
      vertex 25 10 10
    endloop
  endfacet
  facet normal 1 0 0
    outer loop
      vertex 25 10 15
      vertex 25 0 15
      vertex 25 10 10
    endloop
  endfacet
  facet normal -0 -0 -1
    outer loop
      vertex 17.0711 0 10
      vertex 17.0711 10 10
      vertex 25 0 10
    endloop
  endfacet
  facet normal 0 0 -1
    outer loop
      vertex 25 0 10
      vertex 17.0711 10 10
      vertex 25 10 10
    endloop
  endfacet
  facet normal 0.707107 0 -0.707107
    outer loop
      vertex 7.07107 0 0
      vertex 7.07107 10 0
      vertex 17.0711 0 10
    endloop
  endfacet
  facet normal 0.707107 0 -0.707107
    outer loop
      vertex 17.0711 0 10
      vertex 7.07107 10 0
      vertex 17.0711 10 10
    endloop
  endfacet
endsolid OpenSCAD_Model
