solid OpenSCAD_Model
  facet normal -3.55271e-016 -1 0
    outer loop
      vertex 15 -25 10
      vertex 25 -25 10
      vertex 25 -25 12
    endloop
  endfacet
  facet normal -3.55271e-016 -1 0
    outer loop
      vertex 15 -25 12
      vertex 15 -25 10
      vertex 25 -25 12
    endloop
  endfacet
  facet normal 1 -1.47767e-016 0
    outer loop
      vertex 25 -25 12
      vertex 25 -25 10
      vertex 25 -0.957387 10
    endloop
  endfacet
  facet normal 1 -6.67692e-016 -6.25017e-015
    outer loop
      vertex 25 4.3635 10
      vertex 25 -25 12
      vertex 25 -0.957387 10
    endloop
  endfacet
  facet normal 1 -6.67692e-016 2.4302e-016
    outer loop
      vertex 25 -4.59709 0
      vertex 25 0.723799 0
      vertex 25 -0.957387 10
    endloop
  endfacet
  facet normal 1 -6.67692e-016 2.4302e-016
    outer loop
      vertex 25 0.723799 0
      vertex 25 4.3635 10
      vertex 25 -0.957387 10
    endloop
  endfacet
  facet normal 1 -1.72157e-016 1.02515e-015
    outer loop
      vertex 25 4.3635 10
      vertex 25 25 10
      vertex 25 -25 12
    endloop
  endfacet
  facet normal 1 -2.13163e-016 0
    outer loop
      vertex 25 25 10
      vertex 25 25 12
      vertex 25 -25 12
    endloop
  endfacet
  facet normal 0 0 -1
    outer loop
      vertex 15 -0.957387 10
      vertex 25 -0.957387 10
      vertex 15 -25 10
    endloop
  endfacet
  facet normal -0 0 -1
    outer loop
      vertex 15 -25 10
      vertex 25 -0.957387 10
      vertex 25 -25 10
    endloop
  endfacet
  facet normal -1 1.47767e-016 0
    outer loop
      vertex 15 -25 10
      vertex 15 -25 12
      vertex 15 -0.957387 10
    endloop
  endfacet
  facet normal -1 1.77636e-016 3.59056e-016
    outer loop
      vertex 15 -0.957387 10
      vertex 15 -25 12
      vertex 15 25 12
    endloop
  endfacet
  facet normal -1 1.72157e-016 0
    outer loop
      vertex 15 4.3635 10
      vertex 15 25 12
      vertex 15 25 10
    endloop
  endfacet
  facet normal -1 3.33846e-016 -1.66835e-015
    outer loop
      vertex 15 -0.957387 10
      vertex 15 25 12
      vertex 15 4.3635 10
    endloop
  endfacet
  facet normal -1 3.33846e-016 -1.2151e-016
    outer loop
      vertex 15 4.3635 10
      vertex 15 0.723799 0
      vertex 15 -0.957387 10
    endloop
  endfacet
  facet normal -1 3.33846e-016 -1.2151e-016
    outer loop
      vertex 15 -0.957387 10
      vertex 15 0.723799 0
      vertex 15 -4.59709 0
    endloop
  endfacet
  facet normal 0 0 1
    outer loop
      vertex 15 -25 12
      vertex 25 -25 12
      vertex 25 25 12
    endloop
  endfacet
  facet normal 0 -0 1
    outer loop
      vertex 15 25 12
      vertex 15 -25 12
      vertex 25 25 12
    endloop
  endfacet
  facet normal 3.55271e-016 1 0
    outer loop
      vertex 25 25 10
      vertex 15 25 10
      vertex 25 25 12
    endloop
  endfacet
  facet normal 3.55271e-016 1 0
    outer loop
      vertex 25 25 12
      vertex 15 25 10
      vertex 15 25 12
    endloop
  endfacet
  facet normal 0 0 -1
    outer loop
      vertex 15 25 10
      vertex 25 25 10
      vertex 15 4.3635 10
    endloop
  endfacet
  facet normal -0 0 -1
    outer loop
      vertex 15 4.3635 10
      vertex 25 25 10
      vertex 25 4.3635 10
    endloop
  endfacet
  facet normal 1.66923e-016 0.939693 -0.34202
    outer loop
      vertex 25 0.723799 0
      vertex 15 0.723799 0
      vertex 25 4.3635 10
    endloop
  endfacet
  facet normal 1.66923e-016 0.939693 -0.34202
    outer loop
      vertex 25 4.3635 10
      vertex 15 0.723799 0
      vertex 15 4.3635 10
    endloop
  endfacet
  facet normal 0 -0 -1
    outer loop
      vertex 25 -4.59709 0
      vertex 15 -4.59709 0
      vertex 25 0.723799 0
    endloop
  endfacet
  facet normal 0 0 -1
    outer loop
      vertex 25 0.723799 0
      vertex 15 -4.59709 0
      vertex 15 0.723799 0
    endloop
  endfacet
  facet normal -1.66923e-016 -0.939693 0.34202
    outer loop
      vertex 15 -4.59709 0
      vertex 25 -4.59709 0
      vertex 25 -0.957387 10
    endloop
  endfacet
  facet normal -1.66923e-016 -0.939693 0.34202
    outer loop
      vertex 15 -0.957387 10
      vertex 15 -4.59709 0
      vertex 25 -0.957387 10
    endloop
  endfacet
  facet normal -3.55271e-016 -1 1.97167e-031
    outer loop
      vertex -5 -25 10
      vertex 5 -25 10
      vertex 5 -25 12
    endloop
  endfacet
  facet normal -3.55271e-016 -1 0
    outer loop
      vertex -5 -25 12
      vertex -5 -25 10
      vertex 5 -25 12
    endloop
  endfacet
  facet normal 1 -1.44123e-016 0
    outer loop
      vertex 5 -25 12
      vertex 5 -25 10
      vertex 5 -0.349356 10
    endloop
  endfacet
  facet normal 1 -2.72154e-016 -1.57802e-015
    outer loop
      vertex 5 6.17768 10
      vertex 5 -25 12
      vertex 5 -0.349356 10
    endloop
  endfacet
  facet normal 1 -1.36077e-016 2.53642e-017
    outer loop
      vertex 5 -8.74035 0
      vertex 5 -2.21332 0
      vertex 5 -0.349356 10
    endloop
  endfacet
  facet normal 1 -2.72154e-016 5.07283e-017
    outer loop
      vertex 5 -2.21332 0
      vertex 5 6.17768 10
      vertex 5 -0.349356 10
    endloop
  endfacet
  facet normal 1 -1.41563e-016 4.57739e-016
    outer loop
      vertex 5 6.17768 10
      vertex 5 25 10
      vertex 5 -25 12
    endloop
  endfacet
  facet normal 1 -1.59872e-016 0
    outer loop
      vertex 5 25 10
      vertex 5 25 12
      vertex 5 -25 12
    endloop
  endfacet
  facet normal 0 0 -1
    outer loop
      vertex -5 -0.349356 10
      vertex 5 -0.349356 10
      vertex -5 -25 10
    endloop
  endfacet
  facet normal -0 0 -1
    outer loop
      vertex -5 -25 10
      vertex 5 -0.349356 10
      vertex 5 -25 10
    endloop
  endfacet
  facet normal -1 1.44123e-016 0
    outer loop
      vertex -5 -25 10
      vertex -5 -25 12
      vertex -5 -0.349356 10
    endloop
  endfacet
  facet normal -1 1.59872e-016 1.94118e-016
    outer loop
      vertex -5 -0.349356 10
      vertex -5 -25 12
      vertex -5 25 12
    endloop
  endfacet
  facet normal -1 1.41563e-016 0
    outer loop
      vertex -5 6.17768 10
      vertex -5 25 12
      vertex -5 25 10
    endloop
  endfacet
  facet normal -1 2.72154e-016 -1.22901e-015
    outer loop
      vertex -5 -0.349356 10
      vertex -5 25 12
      vertex -5 6.17768 10
    endloop
  endfacet
  facet normal -1 2.72154e-016 -5.07283e-017
    outer loop
      vertex -5 6.17768 10
      vertex -5 -2.21332 0
      vertex -5 -0.349356 10
    endloop
  endfacet
  facet normal -1 1.36077e-016 -2.53642e-017
    outer loop
      vertex -5 -0.349356 10
      vertex -5 -2.21332 0
      vertex -5 -8.74035 0
    endloop
  endfacet
  facet normal 0 0 1
    outer loop
      vertex -5 -25 12
      vertex 5 -25 12
      vertex 5 25 12
    endloop
  endfacet
  facet normal 0 -0 1
    outer loop
      vertex -5 25 12
      vertex -5 -25 12
      vertex 5 25 12
    endloop
  endfacet
  facet normal 3.55271e-016 1 0
    outer loop
      vertex 5 25 10
      vertex -5 25 10
      vertex 5 25 12
    endloop
  endfacet
  facet normal 3.55271e-016 1 1.97167e-031
    outer loop
      vertex 5 25 12
      vertex -5 25 10
      vertex -5 25 12
    endloop
  endfacet
  facet normal 0 0 -1
    outer loop
      vertex -5 25 10
      vertex 5 25 10
      vertex -5 6.17768 10
    endloop
  endfacet
  facet normal -0 0 -1
    outer loop
      vertex -5 6.17768 10
      vertex 5 25 10
      vertex 5 6.17768 10
    endloop
  endfacet
  facet normal 1.36077e-016 0.766044 -0.642788
    outer loop
      vertex 5 -2.21332 0
      vertex -5 -2.21332 0
      vertex 5 6.17768 10
    endloop
  endfacet
  facet normal 1.36077e-016 0.766044 -0.642788
    outer loop
      vertex 5 6.17768 10
      vertex -5 -2.21332 0
      vertex -5 6.17768 10
    endloop
  endfacet
  facet normal 0 -0 -1
    outer loop
      vertex 5 -8.74035 0
      vertex -5 -8.74035 0
      vertex 5 -2.21332 0
    endloop
  endfacet
  facet normal 0 0 -1
    outer loop
      vertex 5 -2.21332 0
      vertex -5 -8.74035 0
      vertex -5 -2.21332 0
    endloop
  endfacet
  facet normal -1.36077e-016 -0.766044 0.642788
    outer loop
      vertex -5 -8.74035 0
      vertex 5 -8.74035 0
      vertex 5 -0.349356 10
    endloop
  endfacet
  facet normal -1.36077e-016 -0.766044 0.642788
    outer loop
      vertex -5 -0.349356 10
      vertex -5 -8.74035 0
      vertex 5 -0.349356 10
    endloop
  endfacet
  facet normal -3.55271e-016 -1 0
    outer loop
      vertex -25 -25 10
      vertex -15 -25 10
      vertex -15 -25 12
    endloop
  endfacet
  facet normal -3.55271e-016 -1 0
    outer loop
      vertex -25 -25 12
      vertex -25 -25 10
      vertex -15 -25 12
    endloop
  endfacet
  facet normal 1 -1.77636e-016 0
    outer loop
      vertex -15 -25 12
      vertex -15 -25 10
      vertex -15 -5 10
    endloop
  endfacet
  facet normal 1 -1.77636e-016 -8.50418e-031
    outer loop
      vertex -15 5 10
      vertex -15 -25 12
      vertex -15 -5 10
    endloop
  endfacet
  facet normal 1 -1.77636e-016 -4.75973e-017
    outer loop
      vertex -15 -22.3205 0
      vertex -15 -12.3205 0
      vertex -15 -5 10
    endloop
  endfacet
  facet normal 1 -1.77636e-016 -4.75973e-017
    outer loop
      vertex -15 -12.3205 0
      vertex -15 5 10
      vertex -15 -5 10
    endloop
  endfacet
  facet normal 1 -1.77636e-016 -4.06793e-031
    outer loop
      vertex -15 5 10
      vertex -15 25 10
      vertex -15 -25 12
    endloop
  endfacet
  facet normal 1 -1.77636e-016 0
    outer loop
      vertex -15 25 10
      vertex -15 25 12
      vertex -15 -25 12
    endloop
  endfacet
  facet normal 0 0 -1
    outer loop
      vertex -25 -5 10
      vertex -15 -5 10
      vertex -25 -25 10
    endloop
  endfacet
  facet normal -0 0 -1
    outer loop
      vertex -25 -25 10
      vertex -15 -5 10
      vertex -15 -25 10
    endloop
  endfacet
  facet normal -1 1.77636e-016 0
    outer loop
      vertex -25 -25 10
      vertex -25 -25 12
      vertex -25 -5 10
    endloop
  endfacet
  facet normal -1 2.13163e-016 3.55271e-016
    outer loop
      vertex -25 -5 10
      vertex -25 -25 12
      vertex -25 25 12
    endloop
  endfacet
  facet normal -1 1.77636e-016 0
    outer loop
      vertex -25 5 10
      vertex -25 25 12
      vertex -25 25 10
    endloop
  endfacet
  facet normal -1 3.55271e-016 -1.77636e-015
    outer loop
      vertex -25 -5 10
      vertex -25 25 12
      vertex -25 5 10
    endloop
  endfacet
  facet normal -1 3.55271e-016 -2.60077e-016
    outer loop
      vertex -25 5 10
      vertex -25 -12.3205 0
      vertex -25 -5 10
    endloop
  endfacet
  facet normal -1 3.55271e-016 -2.60077e-016
    outer loop
      vertex -25 -5 10
      vertex -25 -12.3205 0
      vertex -25 -22.3205 0
    endloop
  endfacet
  facet normal 0 0 1
    outer loop
      vertex -25 -25 12
      vertex -15 -25 12
      vertex -15 25 12
    endloop
  endfacet
  facet normal 0 -0 1
    outer loop
      vertex -25 25 12
      vertex -25 -25 12
      vertex -15 25 12
    endloop
  endfacet
  facet normal 3.55271e-016 1 0
    outer loop
      vertex -15 25 10
      vertex -25 25 10
      vertex -15 25 12
    endloop
  endfacet
  facet normal 3.55271e-016 1 0
    outer loop
      vertex -15 25 12
      vertex -25 25 10
      vertex -25 25 12
    endloop
  endfacet
  facet normal 0 0 -1
    outer loop
      vertex -25 25 10
      vertex -15 25 10
      vertex -25 5 10
    endloop
  endfacet
  facet normal -0 0 -1
    outer loop
      vertex -25 5 10
      vertex -15 25 10
      vertex -15 5 10
    endloop
  endfacet
  facet normal 8.88178e-017 0.5 -0.866025
    outer loop
      vertex -15 -12.3205 0
      vertex -25 -12.3205 0
      vertex -15 5 10
    endloop
  endfacet
  facet normal 8.88178e-017 0.5 -0.866025
    outer loop
      vertex -15 5 10
      vertex -25 -12.3205 0
      vertex -25 5 10
    endloop
  endfacet
  facet normal 0 -0 -1
    outer loop
      vertex -15 -22.3205 0
      vertex -25 -22.3205 0
      vertex -15 -12.3205 0
    endloop
  endfacet
  facet normal 0 0 -1
    outer loop
      vertex -15 -12.3205 0
      vertex -25 -22.3205 0
      vertex -25 -12.3205 0
    endloop
  endfacet
  facet normal -1.77636e-016 -0.5 0.866025
    outer loop
      vertex -25 -22.3205 0
      vertex -15 -22.3205 0
      vertex -15 -5 10
    endloop
  endfacet
  facet normal -8.88178e-017 -0.5 0.866025
    outer loop
      vertex -25 -5 10
      vertex -25 -22.3205 0
      vertex -15 -5 10
    endloop
  endfacet
endsolid OpenSCAD_Model
