solid OpenSCAD_Model
  facet normal -1 0 0
    outer loop
      vertex 0 10 0
      vertex 0 10 20
      vertex 0 20 0
    endloop
  endfacet
  facet normal -1 0 0
    outer loop
      vertex 0 20 0
      vertex 0 10 20
      vertex 0 20 20
    endloop
  endfacet
  facet normal 0 -1 0
    outer loop
      vertex 0 10 20
      vertex 0 10 0
      vertex 10 10 0
    endloop
  endfacet
  facet normal 0 -1 0
    outer loop
      vertex 10 10 20
      vertex 0 10 20
      vertex 10 10 10
    endloop
  endfacet
  facet normal 0 -1 0
    outer loop
      vertex 10 10 10
      vertex 0 10 20
      vertex 10 10 0
    endloop
  endfacet
  facet normal 0 0 -1
    outer loop
      vertex 0 10 0
      vertex 0 20 0
      vertex 10 10 0
    endloop
  endfacet
  facet normal 0 0 -1
    outer loop
      vertex 10 10 0
      vertex 0 20 0
      vertex 10 20 0
    endloop
  endfacet
  facet normal 0 1 0
    outer loop
      vertex 0 20 0
      vertex 0 20 20
      vertex 10 20 0
    endloop
  endfacet
  facet normal 0 1 0
    outer loop
      vertex 10 20 10
      vertex 0 20 20
      vertex 10 20 20
    endloop
  endfacet
  facet normal 0 1 0
    outer loop
      vertex 10 20 0
      vertex 0 20 20
      vertex 10 20 10
    endloop
  endfacet
  facet normal 0 0 1
    outer loop
      vertex 0 20 20
      vertex 0 10 20
      vertex 10 10 20
    endloop
  endfacet
  facet normal 0 0 1
    outer loop
      vertex 20 10 20
      vertex 0 20 20
      vertex 10 10 20
    endloop
  endfacet
  facet normal 0 0 1
    outer loop
      vertex 10 1.11022e-15 20
      vertex 20 -1.11022e-15 20
      vertex 10 10 20
    endloop
  endfacet
  facet normal 0 0 1
    outer loop
      vertex 20 -1.11022e-15 20
      vertex 20 10 20
      vertex 10 10 20
    endloop
  endfacet
  facet normal 0 0 1
    outer loop
      vertex 20 10 20
      vertex 30 10 20
      vertex 0 20 20
    endloop
  endfacet
  facet normal 0 0 1
    outer loop
      vertex 30 10 20
      vertex 20 20 20
      vertex 10 20 20
    endloop
  endfacet
  facet normal 0 0 1
    outer loop
      vertex 30 10 20
      vertex 30 20 20
      vertex 20 20 20
    endloop
  endfacet
  facet normal 0 0 1
    outer loop
      vertex 30 10 20
      vertex 10 20 20
      vertex 0 20 20
    endloop
  endfacet
  facet normal 0 0 1
    outer loop
      vertex 20 20 20
      vertex 20 30 20
      vertex 10 20 20
    endloop
  endfacet
  facet normal 0 0 1
    outer loop
      vertex 10 30 20
      vertex 10 20 20
      vertex 20 30 20
    endloop
  endfacet
  facet normal -1 2.22045e-16 0
    outer loop
      vertex 10 1.11022e-15 10
      vertex 10 1.11022e-15 20
      vertex 10 10 10
    endloop
  endfacet
  facet normal -1 2.22045e-16 0
    outer loop
      vertex 10 10 10
      vertex 10 1.11022e-15 20
      vertex 10 10 20
    endloop
  endfacet
  facet normal 0 0 -1
    outer loop
      vertex 10 30 10
      vertex 20 30 10
      vertex 10 20 10
    endloop
  endfacet
  facet normal 0 0 -1
    outer loop
      vertex 10 20 10
      vertex 20 30 10
      vertex 10 10 10
    endloop
  endfacet
  facet normal 0 0 -1
    outer loop
      vertex 10 10 10
      vertex 20 30 10
      vertex 20 20 10
    endloop
  endfacet
  facet normal 0 0 -1
    outer loop
      vertex 10 10 10
      vertex 20 20 10
      vertex 20 10 10
    endloop
  endfacet
  facet normal 0 0 -1
    outer loop
      vertex 10 10 10
      vertex 20 10 10
      vertex 20 -1.11022e-15 10
    endloop
  endfacet
  facet normal 0 0 -1
    outer loop
      vertex 10 10 10
      vertex 20 -1.11022e-15 10
      vertex 10 1.11022e-15 10
    endloop
  endfacet
  facet normal 1 -2.22045e-16 0
    outer loop
      vertex 10 20 0
      vertex 10 20 10
      vertex 10 10 10
    endloop
  endfacet
  facet normal 1 -2.22045e-16 0
    outer loop
      vertex 10 10 0
      vertex 10 20 0
      vertex 10 10 10
    endloop
  endfacet
  facet normal -1 2.22045e-16 0
    outer loop
      vertex 10 20 10
      vertex 10 20 20
      vertex 10 30 10
    endloop
  endfacet
  facet normal -1 2.22045e-16 0
    outer loop
      vertex 10 30 10
      vertex 10 20 20
      vertex 10 30 20
    endloop
  endfacet
  facet normal 2.22045e-16 1 0
    outer loop
      vertex 10 30 10
      vertex 10 30 20
      vertex 20 30 10
    endloop
  endfacet
  facet normal 2.22045e-16 1 0
    outer loop
      vertex 20 30 10
      vertex 10 30 20
      vertex 20 30 20
    endloop
  endfacet
  facet normal 1 -2.22045e-16 0
    outer loop
      vertex 20 20 20
      vertex 20 20 10
      vertex 20 30 10
    endloop
  endfacet
  facet normal 1 -2.22045e-16 0
    outer loop
      vertex 20 30 20
      vertex 20 20 20
      vertex 20 30 10
    endloop
  endfacet
  facet normal 0 1 0
    outer loop
      vertex 20 20 0
      vertex 20 20 10
      vertex 30 20 0
    endloop
  endfacet
  facet normal 0 1 0
    outer loop
      vertex 30 20 0
      vertex 20 20 10
      vertex 20 20 20
    endloop
  endfacet
  facet normal 0 1 0
    outer loop
      vertex 30 20 0
      vertex 20 20 20
      vertex 30 20 20
    endloop
  endfacet
  facet normal 1 0 0
    outer loop
      vertex 30 10 20
      vertex 30 10 0
      vertex 30 20 0
    endloop
  endfacet
  facet normal 1 0 0
    outer loop
      vertex 30 20 20
      vertex 30 10 20
      vertex 30 20 0
    endloop
  endfacet
  facet normal 0 -1 0
    outer loop
      vertex 20 10 10
      vertex 20 10 0
      vertex 30 10 0
    endloop
  endfacet
  facet normal 0 -1 0
    outer loop
      vertex 20 10 20
      vertex 20 10 10
      vertex 30 10 20
    endloop
  endfacet
  facet normal 0 -1 0
    outer loop
      vertex 30 10 20
      vertex 20 10 10
      vertex 30 10 0
    endloop
  endfacet
  facet normal 1 -2.22045e-16 0
    outer loop
      vertex 20 -1.11022e-15 20
      vertex 20 -1.11022e-15 10
      vertex 20 10 10
    endloop
  endfacet
  facet normal 1 -2.22045e-16 0
    outer loop
      vertex 20 10 20
      vertex 20 -1.11022e-15 20
      vertex 20 10 10
    endloop
  endfacet
  facet normal -2.22045e-16 -1 0
    outer loop
      vertex 10 1.11022e-15 20
      vertex 10 1.11022e-15 10
      vertex 20 -1.11022e-15 10
    endloop
  endfacet
  facet normal -2.22045e-16 -1 0
    outer loop
      vertex 20 -1.11022e-15 20
      vertex 10 1.11022e-15 20
      vertex 20 -1.11022e-15 10
    endloop
  endfacet
  facet normal -1 2.22045e-16 0
    outer loop
      vertex 20 20 10
      vertex 20 20 0
      vertex 20 10 10
    endloop
  endfacet
  facet normal -1 2.22045e-16 0
    outer loop
      vertex 20 10 10
      vertex 20 20 0
      vertex 20 10 0
    endloop
  endfacet
  facet normal 0 0 -1
    outer loop
      vertex 20 10 0
      vertex 20 20 0
      vertex 30 10 0
    endloop
  endfacet
  facet normal 0 0 -1
    outer loop
      vertex 30 10 0
      vertex 20 20 0
      vertex 30 20 0
    endloop
  endfacet
endsolid OpenSCAD_Model
