solid OpenSCAD_Model
  facet normal -1 0 0
    outer loop
      vertex 0 0 0
      vertex 0 0 40
      vertex 0 40 0
    endloop
  endfacet
  facet normal -1 0 0
    outer loop
      vertex 0 40 0
      vertex 0 0 40
      vertex 0 40 40
    endloop
  endfacet
  facet normal 0 -1 0
    outer loop
      vertex 0 0 40
      vertex 0 0 0
      vertex 40 0 0
    endloop
  endfacet
  facet normal 0 -1 0
    outer loop
      vertex 40 0 40
      vertex 0 0 40
      vertex 40 0 0
    endloop
  endfacet
  facet normal 0 0 -1
    outer loop
      vertex 0 0 0
      vertex 0 40 0
      vertex 40 0 0
    endloop
  endfacet
  facet normal 0 0 -1
    outer loop
      vertex 40 0 0
      vertex 0 40 0
      vertex 40 40 0
    endloop
  endfacet
  facet normal 0 1 0
    outer loop
      vertex 0 40 0
      vertex 0 40 40
      vertex 40 40 0
    endloop
  endfacet
  facet normal 0 1 0
    outer loop
      vertex 40 40 0
      vertex 0 40 40
      vertex 40 40 40
    endloop
  endfacet
  facet normal 0 0 1
    outer loop
      vertex 4.41312 2 40
      vertex 0 0 40
      vertex 40 0 40
    endloop
  endfacet
  facet normal 0 0 1
    outer loop
      vertex 40 40 40
      vertex 0 40 40
      vertex 40 0 40
    endloop
  endfacet
  facet normal 0 0 1
    outer loop
      vertex 0 40 40
      vertex 0 0 40
      vertex 2 3.20937 40
    endloop
  endfacet
  facet normal 0 0 1
    outer loop
      vertex 0 40 40
      vertex 2 3.20937 40
      vertex 2 3.77812 40
    endloop
  endfacet
  facet normal 0 0 1
    outer loop
      vertex 5.8925 2.52375 40
      vertex 4.99875 3.77812 40
      vertex 4.99875 3.20937 40
    endloop
  endfacet
  facet normal 0 0 1
    outer loop
      vertex 0 40 40
      vertex 2 3.77812 40
      vertex 3.97875 7.05062 40
    endloop
  endfacet
  facet normal 0 0 1
    outer loop
      vertex 0 40 40
      vertex 3.97875 7.05062 40
      vertex 4.41312 7.05062 40
    endloop
  endfacet
  facet normal 0 0 1
    outer loop
      vertex 5.8925 2.52375 40
      vertex 4.99875 3.20937 40
      vertex 4.41312 3.20937 40
    endloop
  endfacet
  facet normal 0 0 1
    outer loop
      vertex 6.93687 2 40
      vertex 4.41312 2 40
      vertex 40 0 40
    endloop
  endfacet
  facet normal 0 0 1
    outer loop
      vertex 3.88125 2 40
      vertex 0 0 40
      vertex 4.41312 2 40
    endloop
  endfacet
  facet normal 0 0 1
    outer loop
      vertex 8.27 3.1425 40
      vertex 7.77312 2.29812 40
      vertex 40 0 40
    endloop
  endfacet
  facet normal 0 0 1
    outer loop
      vertex 2 3.20937 40
      vertex 0 0 40
      vertex 3.88125 2 40
    endloop
  endfacet
  facet normal 0 0 1
    outer loop
      vertex 6.93687 2 40
      vertex 5.8925 2.52375 40
      vertex 4.41312 2 40
    endloop
  endfacet
  facet normal 0 0 1
    outer loop
      vertex 8.43625 4.57687 40
      vertex 8.27 3.1425 40
      vertex 40 0 40
    endloop
  endfacet
  facet normal 0 0 1
    outer loop
      vertex 8.3325 5.77062 40
      vertex 8.43625 4.57687 40
      vertex 40 0 40
    endloop
  endfacet
  facet normal 0 0 1
    outer loop
      vertex 0 40 40
      vertex 4.41312 7.05062 40
      vertex 6.10437 6.86125 40
    endloop
  endfacet
  facet normal 0 0 1
    outer loop
      vertex 0 40 40
      vertex 6.93687 7.1575 40
      vertex 40 0 40
    endloop
  endfacet
  facet normal 0 0 1
    outer loop
      vertex 0 40 40
      vertex 6.10437 6.86125 40
      vertex 6.93687 7.1575 40
    endloop
  endfacet
  facet normal 0 0 1
    outer loop
      vertex 6.93687 7.1575 40
      vertex 7.58625 6.99375 40
      vertex 40 0 40
    endloop
  endfacet
  facet normal 0 0 1
    outer loop
      vertex 7.58625 6.99375 40
      vertex 8.0475 6.52187 40
      vertex 40 0 40
    endloop
  endfacet
  facet normal 0 0 1
    outer loop
      vertex 4.41312 3.20937 40
      vertex 4.41312 2 40
      vertex 5.8925 2.52375 40
    endloop
  endfacet
  facet normal 0 0 1
    outer loop
      vertex 5.60562 6.01875 40
      vertex 6.10437 6.86125 40
      vertex 4.41312 7.05062 40
    endloop
  endfacet
  facet normal 0 0 1
    outer loop
      vertex 7.77312 2.29812 40
      vertex 6.93687 2 40
      vertex 40 0 40
    endloop
  endfacet
  facet normal 0 0 1
    outer loop
      vertex 3.88125 2 40
      vertex 3.88125 3.20937 40
      vertex 2 3.20937 40
    endloop
  endfacet
  facet normal 0 0 1
    outer loop
      vertex 8.0475 6.52187 40
      vertex 8.3325 5.77062 40
      vertex 40 0 40
    endloop
  endfacet
  facet normal 0 0 1
    outer loop
      vertex 4.41312 7.05062 40
      vertex 5.4375 4.57687 40
      vertex 5.60562 6.01875 40
    endloop
  endfacet
  facet normal 0 0 1
    outer loop
      vertex 4.41312 7.05062 40
      vertex 4.99875 3.77812 40
      vertex 5.4375 4.57687 40
    endloop
  endfacet
  facet normal 0 0 1
    outer loop
      vertex 4.41312 7.05062 40
      vertex 4.41312 3.77812 40
      vertex 4.99875 3.77812 40
    endloop
  endfacet
  facet normal 0 0 1
    outer loop
      vertex 5.8925 2.52375 40
      vertex 5.4375 4.57687 40
      vertex 4.99875 3.77812 40
    endloop
  endfacet
  facet normal 1 0 0
    outer loop
      vertex 40 0 40
      vertex 40 0 0
      vertex 40 40 0
    endloop
  endfacet
  facet normal 1 0 0
    outer loop
      vertex 40 40 40
      vertex 40 0 40
      vertex 40 40 0
    endloop
  endfacet
  facet normal 0 1 0
    outer loop
      vertex 3.88125 3.20937 40
      vertex 3.88125 3.20937 39
      vertex 2 3.20937 40
    endloop
  endfacet
  facet normal 0 1 0
    outer loop
      vertex 2 3.20937 40
      vertex 3.88125 3.20937 39
      vertex 2 3.20937 39
    endloop
  endfacet
  facet normal 1 0 0
    outer loop
      vertex 2 3.77812 39
      vertex 2 3.77812 40
      vertex 2 3.20937 40
    endloop
  endfacet
  facet normal 1 0 0
    outer loop
      vertex 2 3.20937 39
      vertex 2 3.77812 39
      vertex 2 3.20937 40
    endloop
  endfacet
  facet normal 1 0 0
    outer loop
      vertex 3.88125 3.20937 39
      vertex 3.88125 3.20937 40
      vertex 3.88125 2 40
    endloop
  endfacet
  facet normal 1 0 0
    outer loop
      vertex 3.88125 2 39
      vertex 3.88125 3.20937 39
      vertex 3.88125 2 40
    endloop
  endfacet
  facet normal 0 1 0
    outer loop
      vertex 4.41312 2 40
      vertex 4.41312 2 39
      vertex 3.88125 2 40
    endloop
  endfacet
  facet normal 0 1 0
    outer loop
      vertex 3.88125 2 40
      vertex 4.41312 2 39
      vertex 3.88125 2 39
    endloop
  endfacet
  facet normal -1 0 0
    outer loop
      vertex 4.41312 3.20937 40
      vertex 4.41312 3.20937 39
      vertex 4.41312 2 40
    endloop
  endfacet
  facet normal -1 0 0
    outer loop
      vertex 4.41312 2 40
      vertex 4.41312 3.20937 39
      vertex 4.41312 2 39
    endloop
  endfacet
  facet normal 0 1 0
    outer loop
      vertex 4.99875 3.20937 40
      vertex 4.99875 3.20937 39
      vertex 4.41312 3.20937 40
    endloop
  endfacet
  facet normal 0 1 0
    outer loop
      vertex 4.41312 3.20937 40
      vertex 4.99875 3.20937 39
      vertex 4.41312 3.20937 39
    endloop
  endfacet
  facet normal -1 0 0
    outer loop
      vertex 4.99875 3.77812 40
      vertex 4.99875 3.77812 39
      vertex 4.99875 3.20937 40
    endloop
  endfacet
  facet normal -1 0 0
    outer loop
      vertex 4.99875 3.20937 40
      vertex 4.99875 3.77812 39
      vertex 4.99875 3.20937 39
    endloop
  endfacet
  facet normal 0 -1 0
    outer loop
      vertex 4.99875 3.77812 39
      vertex 4.99875 3.77812 40
      vertex 4.41312 3.77812 40
    endloop
  endfacet
  facet normal 0 -1 0
    outer loop
      vertex 4.41312 3.77812 39
      vertex 4.99875 3.77812 39
      vertex 4.41312 3.77812 40
    endloop
  endfacet
  facet normal -1 0 0
    outer loop
      vertex 4.41312 7.05062 40
      vertex 4.41312 7.05062 39
      vertex 4.41312 3.77812 40
    endloop
  endfacet
  facet normal -1 0 0
    outer loop
      vertex 4.41312 3.77812 40
      vertex 4.41312 7.05062 39
      vertex 4.41312 3.77812 39
    endloop
  endfacet
  facet normal 0 -1 0
    outer loop
      vertex 4.41312 7.05062 39
      vertex 4.41312 7.05062 40
      vertex 3.97875 7.05062 40
    endloop
  endfacet
  facet normal 0 -1 0
    outer loop
      vertex 3.97875 7.05062 39
      vertex 4.41312 7.05062 39
      vertex 3.97875 7.05062 40
    endloop
  endfacet
  facet normal 0.855729 -0.517425 0
    outer loop
      vertex 3.97875 7.05062 39
      vertex 3.97875 7.05062 40
      vertex 2 3.77812 40
    endloop
  endfacet
  facet normal 0.855729 -0.517425 0
    outer loop
      vertex 2 3.77812 39
      vertex 3.97875 7.05062 39
      vertex 2 3.77812 40
    endloop
  endfacet
  facet normal 0.976313 0.216364 0
    outer loop
      vertex 5.4375 4.57687 40
      vertex 5.8925 2.52375 40
      vertex 5.8925 2.52375 39
    endloop
  endfacet
  facet normal 0.976313 0.216364 0
    outer loop
      vertex 5.4375 4.57687 39
      vertex 5.4375 4.57687 40
      vertex 5.8925 2.52375 39
    endloop
  endfacet
  facet normal 0.993271 -0.115817 0
    outer loop
      vertex 5.60562 6.01875 39
      vertex 5.60562 6.01875 40
      vertex 5.4375 4.57687 40
    endloop
  endfacet
  facet normal 0.993271 -0.115817 0
    outer loop
      vertex 5.4375 4.57687 39
      vertex 5.60562 6.01875 39
      vertex 5.4375 4.57687 40
    endloop
  endfacet
  facet normal 0.448283 0.893892 0
    outer loop
      vertex 6.93687 2 40
      vertex 6.93687 2 39
      vertex 5.8925 2.52375 40
    endloop
  endfacet
  facet normal 0.448283 0.893892 0
    outer loop
      vertex 5.8925 2.52375 40
      vertex 6.93687 2 39
      vertex 5.8925 2.52375 39
    endloop
  endfacet
  facet normal -0.335801 0.941933 0
    outer loop
      vertex 7.77312 2.29812 40
      vertex 7.77312 2.29812 39
      vertex 6.93687 2 40
    endloop
  endfacet
  facet normal -0.335801 0.941933 0
    outer loop
      vertex 6.93687 2 40
      vertex 7.77312 2.29812 39
      vertex 6.93687 2 39
    endloop
  endfacet
  facet normal -0.861852 0.50716 0
    outer loop
      vertex 8.27 3.1425 40
      vertex 8.27 3.1425 39
      vertex 7.77312 2.29812 40
    endloop
  endfacet
  facet normal -0.861852 0.50716 0
    outer loop
      vertex 7.77312 2.29812 40
      vertex 8.27 3.1425 39
      vertex 7.77312 2.29812 39
    endloop
  endfacet
  facet normal -0.99335 0.115133 0
    outer loop
      vertex 8.43625 4.57687 40
      vertex 8.43625 4.57687 39
      vertex 8.27 3.1425 40
    endloop
  endfacet
  facet normal -0.99335 0.115133 0
    outer loop
      vertex 8.27 3.1425 40
      vertex 8.43625 4.57687 39
      vertex 8.27 3.1425 39
    endloop
  endfacet
  facet normal -0.996245 -0.0865846 0
    outer loop
      vertex 8.43625 4.57687 40
      vertex 8.3325 5.77062 40
      vertex 8.43625 4.57687 39
    endloop
  endfacet
  facet normal -0.996245 -0.0865846 0
    outer loop
      vertex 8.43625 4.57687 39
      vertex 8.3325 5.77062 40
      vertex 8.3325 5.77062 39
    endloop
  endfacet
  facet normal -0.93498 -0.354701 0
    outer loop
      vertex 8.3325 5.77062 40
      vertex 8.0475 6.52187 40
      vertex 8.3325 5.77062 39
    endloop
  endfacet
  facet normal -0.93498 -0.354701 0
    outer loop
      vertex 8.3325 5.77062 39
      vertex 8.0475 6.52187 40
      vertex 8.0475 6.52187 39
    endloop
  endfacet
  facet normal -0.715112 -0.69901 0
    outer loop
      vertex 8.0475 6.52187 40
      vertex 7.58625 6.99375 40
      vertex 8.0475 6.52187 39
    endloop
  endfacet
  facet normal -0.715112 -0.69901 0
    outer loop
      vertex 8.0475 6.52187 39
      vertex 7.58625 6.99375 40
      vertex 7.58625 6.99375 39
    endloop
  endfacet
  facet normal -0.244511 -0.969646 0
    outer loop
      vertex 7.58625 6.99375 39
      vertex 7.58625 6.99375 40
      vertex 6.93687 7.1575 40
    endloop
  endfacet
  facet normal -0.244511 -0.969646 0
    outer loop
      vertex 6.93687 7.1575 39
      vertex 7.58625 6.99375 39
      vertex 6.93687 7.1575 40
    endloop
  endfacet
  facet normal 0.335261 -0.942125 0
    outer loop
      vertex 6.93687 7.1575 39
      vertex 6.93687 7.1575 40
      vertex 6.10437 6.86125 40
    endloop
  endfacet
  facet normal 0.335261 -0.942125 0
    outer loop
      vertex 6.10437 6.86125 39
      vertex 6.93687 7.1575 39
      vertex 6.10437 6.86125 40
    endloop
  endfacet
  facet normal 0.86052 -0.509417 0
    outer loop
      vertex 6.10437 6.86125 39
      vertex 6.10437 6.86125 40
      vertex 5.60562 6.01875 40
    endloop
  endfacet
  facet normal 0.86052 -0.509417 0
    outer loop
      vertex 5.60562 6.01875 39
      vertex 6.10437 6.86125 39
      vertex 5.60562 6.01875 40
    endloop
  endfacet
  facet normal 0 0 1
    outer loop
      vertex 3.88125 3.20937 39
      vertex 3.88125 2 39
      vertex 4.41312 2 39
    endloop
  endfacet
  facet normal 0 0 1
    outer loop
      vertex 4.99875 3.77812 39
      vertex 3.88125 3.20937 39
      vertex 4.41312 3.20937 39
    endloop
  endfacet
  facet normal 0 0 1
    outer loop
      vertex 4.41312 3.20937 39
      vertex 3.88125 3.20937 39
      vertex 4.41312 2 39
    endloop
  endfacet
  facet normal 0 0 1
    outer loop
      vertex 4.99875 3.77812 39
      vertex 4.41312 3.20937 39
      vertex 4.99875 3.20937 39
    endloop
  endfacet
  facet normal 0 0 1
    outer loop
      vertex 4.41312 3.77812 39
      vertex 3.88125 3.20937 39
      vertex 4.99875 3.77812 39
    endloop
  endfacet
  facet normal 0 0 1
    outer loop
      vertex 4.41312 7.05062 39
      vertex 3.88125 3.20937 39
      vertex 4.41312 3.77812 39
    endloop
  endfacet
  facet normal 0 0 1
    outer loop
      vertex 3.97875 7.05062 39
      vertex 3.88125 3.20937 39
      vertex 4.41312 7.05062 39
    endloop
  endfacet
  facet normal 0 0 1
    outer loop
      vertex 3.88125 6.055 39
      vertex 3.88125 3.77812 39
      vertex 3.97875 7.05062 39
    endloop
  endfacet
  facet normal 0 0 1
    outer loop
      vertex 2 3.77812 39
      vertex 2.52375 3.77812 39
      vertex 3.97875 7.05062 39
    endloop
  endfacet
  facet normal 0 0 1
    outer loop
      vertex 2 3.77812 39
      vertex 3.88125 3.20937 39
      vertex 2.52375 3.77812 39
    endloop
  endfacet
  facet normal 0 0 1
    outer loop
      vertex 2.52375 3.77812 39
      vertex 3.88125 6.055 39
      vertex 3.97875 7.05062 39
    endloop
  endfacet
  facet normal 0 0 1
    outer loop
      vertex 3.88125 3.77812 39
      vertex 3.88125 3.20937 39
      vertex 3.97875 7.05062 39
    endloop
  endfacet
  facet normal 0 0 1
    outer loop
      vertex 2.52375 3.77812 39
      vertex 3.88125 3.20937 39
      vertex 3.88125 3.77812 39
    endloop
  endfacet
  facet normal 0 0 1
    outer loop
      vertex 2 3.20937 39
      vertex 3.88125 3.20937 39
      vertex 2 3.77812 39
    endloop
  endfacet
  facet normal 0 0 1
    outer loop
      vertex 5.8925 2.52375 39
      vertex 6.93687 2 39
      vertex 7.77312 2.29812 39
    endloop
  endfacet
  facet normal 0 0 1
    outer loop
      vertex 6.93687 2.51 39
      vertex 6.28312 2.92187 39
      vertex 5.8925 2.52375 39
    endloop
  endfacet
  facet normal 0 0 1
    outer loop
      vertex 6.93687 2.51 39
      vertex 5.8925 2.52375 39
      vertex 7.77312 2.29812 39
    endloop
  endfacet
  facet normal 0 0 1
    outer loop
      vertex 7.59125 6.23437 39
      vertex 7.85625 4.57687 39
      vertex 8.3325 5.77062 39
    endloop
  endfacet
  facet normal 0 0 1
    outer loop
      vertex 5.60562 6.01875 39
      vertex 5.8925 2.52375 39
      vertex 6.10437 6.86125 39
    endloop
  endfacet
  facet normal 0 0 1
    outer loop
      vertex 5.4375 4.57687 39
      vertex 5.8925 2.52375 39
      vertex 5.60562 6.01875 39
    endloop
  endfacet
  facet normal 0 0 1
    outer loop
      vertex 6.93062 6.64437 39
      vertex 7.59125 6.23437 39
      vertex 7.58625 6.99375 39
    endloop
  endfacet
  facet normal 0 0 1
    outer loop
      vertex 6.10437 6.86125 39
      vertex 5.8925 2.52375 39
      vertex 6.01812 4.57687 39
    endloop
  endfacet
  facet normal 0 0 1
    outer loop
      vertex 6.10437 6.86125 39
      vertex 6.30937 6.2825 39
      vertex 6.93687 7.1575 39
    endloop
  endfacet
  facet normal 0 0 1
    outer loop
      vertex 6.10437 6.86125 39
      vertex 6.01812 4.57687 39
      vertex 6.30937 6.2825 39
    endloop
  endfacet
  facet normal 0 0 1
    outer loop
      vertex 6.93687 7.1575 39
      vertex 6.93062 6.64437 39
      vertex 7.58625 6.99375 39
    endloop
  endfacet
  facet normal 0 0 1
    outer loop
      vertex 6.30937 6.2825 39
      vertex 6.93062 6.64437 39
      vertex 6.93687 7.1575 39
    endloop
  endfacet
  facet normal 0 0 1
    outer loop
      vertex 7.58625 6.99375 39
      vertex 7.59125 6.23437 39
      vertex 8.0475 6.52187 39
    endloop
  endfacet
  facet normal 0 0 1
    outer loop
      vertex 7.85625 4.57687 39
      vertex 7.59125 2.92375 39
      vertex 8.27 3.1425 39
    endloop
  endfacet
  facet normal 0 0 1
    outer loop
      vertex 8.3325 5.77062 39
      vertex 7.85625 4.57687 39
      vertex 8.43625 4.57687 39
    endloop
  endfacet
  facet normal 0 0 1
    outer loop
      vertex 8.27 3.1425 39
      vertex 7.59125 2.92375 39
      vertex 7.77312 2.29812 39
    endloop
  endfacet
  facet normal 0 0 1
    outer loop
      vertex 7.59125 2.92375 39
      vertex 6.93687 2.51 39
      vertex 7.77312 2.29812 39
    endloop
  endfacet
  facet normal 0 0 1
    outer loop
      vertex 7.59125 6.23437 39
      vertex 8.3325 5.77062 39
      vertex 8.0475 6.52187 39
    endloop
  endfacet
  facet normal 0 0 1
    outer loop
      vertex 7.85625 4.57687 39
      vertex 8.27 3.1425 39
      vertex 8.43625 4.57687 39
    endloop
  endfacet
  facet normal 0 0 1
    outer loop
      vertex 6.28312 2.92187 39
      vertex 6.01812 4.57687 39
      vertex 5.8925 2.52375 39
    endloop
  endfacet
  facet normal 0 -1 0
    outer loop
      vertex 3.88125 3.77812 39
      vertex 3.88125 3.77812 40
      vertex 2.52375 3.77812 40
    endloop
  endfacet
  facet normal 0 -1 0
    outer loop
      vertex 2.52375 3.77812 39
      vertex 3.88125 3.77812 39
      vertex 2.52375 3.77812 40
    endloop
  endfacet
  facet normal -0.858925 0.512101 0
    outer loop
      vertex 3.88125 6.055 40
      vertex 3.88125 6.055 39
      vertex 2.52375 3.77812 40
    endloop
  endfacet
  facet normal -0.858925 0.512101 0
    outer loop
      vertex 2.52375 3.77812 40
      vertex 3.88125 6.055 39
      vertex 2.52375 3.77812 39
    endloop
  endfacet
  facet normal 1 0 0
    outer loop
      vertex 3.88125 6.055 39
      vertex 3.88125 6.055 40
      vertex 3.88125 3.77812 40
    endloop
  endfacet
  facet normal 1 0 0
    outer loop
      vertex 3.88125 3.77812 39
      vertex 3.88125 6.055 39
      vertex 3.88125 3.77812 40
    endloop
  endfacet
  facet normal -0.987422 -0.158107 0
    outer loop
      vertex 6.28312 2.92187 40
      vertex 6.01812 4.57687 40
      vertex 6.28312 2.92187 39
    endloop
  endfacet
  facet normal -0.987422 -0.158107 0
    outer loop
      vertex 6.28312 2.92187 39
      vertex 6.01812 4.57687 40
      vertex 6.01812 4.57687 39
    endloop
  endfacet
  facet normal -0.985732 0.168322 0
    outer loop
      vertex 6.30937 6.2825 40
      vertex 6.30937 6.2825 39
      vertex 6.01812 4.57687 40
    endloop
  endfacet
  facet normal -0.985732 0.168322 0
    outer loop
      vertex 6.01812 4.57687 40
      vertex 6.30937 6.2825 39
      vertex 6.01812 4.57687 39
    endloop
  endfacet
  facet normal -0.533049 -0.846084 0
    outer loop
      vertex 6.93687 2.51 39
      vertex 6.93687 2.51 40
      vertex 6.28312 2.92187 40
    endloop
  endfacet
  facet normal -0.533049 -0.846084 0
    outer loop
      vertex 6.28312 2.92187 39
      vertex 6.93687 2.51 39
      vertex 6.28312 2.92187 40
    endloop
  endfacet
  facet normal 0.534418 -0.84522 0
    outer loop
      vertex 7.59125 2.92375 39
      vertex 7.59125 2.92375 40
      vertex 6.93687 2.51 40
    endloop
  endfacet
  facet normal 0.534418 -0.84522 0
    outer loop
      vertex 6.93687 2.51 39
      vertex 7.59125 2.92375 39
      vertex 6.93687 2.51 40
    endloop
  endfacet
  facet normal 0.987394 -0.158282 0
    outer loop
      vertex 7.85625 4.57687 39
      vertex 7.85625 4.57687 40
      vertex 7.59125 2.92375 40
    endloop
  endfacet
  facet normal 0.987394 -0.158282 0
    outer loop
      vertex 7.59125 2.92375 39
      vertex 7.85625 4.57687 39
      vertex 7.59125 2.92375 40
    endloop
  endfacet
  facet normal 0.987459 0.157874 0
    outer loop
      vertex 7.59125 6.23437 40
      vertex 7.85625 4.57687 40
      vertex 7.85625 4.57687 39
    endloop
  endfacet
  facet normal 0.987459 0.157874 0
    outer loop
      vertex 7.59125 6.23437 39
      vertex 7.59125 6.23437 40
      vertex 7.85625 4.57687 39
    endloop
  endfacet
  facet normal 0.527323 0.849665 0
    outer loop
      vertex 7.59125 6.23437 40
      vertex 7.59125 6.23437 39
      vertex 6.93062 6.64437 40
    endloop
  endfacet
  facet normal 0.527323 0.849665 0
    outer loop
      vertex 6.93062 6.64437 40
      vertex 7.59125 6.23437 39
      vertex 6.93062 6.64437 39
    endloop
  endfacet
  facet normal -0.50333 0.864094 0
    outer loop
      vertex 6.93062 6.64437 40
      vertex 6.93062 6.64437 39
      vertex 6.30937 6.2825 40
    endloop
  endfacet
  facet normal -0.50333 0.864094 0
    outer loop
      vertex 6.30937 6.2825 40
      vertex 6.93062 6.64437 39
      vertex 6.30937 6.2825 39
    endloop
  endfacet
  facet normal 0 0 1
    outer loop
      vertex 3.88125 6.055 40
      vertex 2.52375 3.77812 40
      vertex 3.88125 3.77812 40
    endloop
  endfacet
  facet normal 0 0 1
    outer loop
      vertex 6.30937 6.2825 40
      vertex 6.01812 4.57687 40
      vertex 6.28312 2.92187 40
    endloop
  endfacet
  facet normal 0 0 1
    outer loop
      vertex 7.59125 2.92375 40
      vertex 6.30937 6.2825 40
      vertex 6.93687 2.51 40
    endloop
  endfacet
  facet normal 0 0 1
    outer loop
      vertex 6.93687 2.51 40
      vertex 6.30937 6.2825 40
      vertex 6.28312 2.92187 40
    endloop
  endfacet
  facet normal 0 0 1
    outer loop
      vertex 7.85625 4.57687 40
      vertex 6.30937 6.2825 40
      vertex 7.59125 2.92375 40
    endloop
  endfacet
  facet normal 0 0 1
    outer loop
      vertex 7.59125 6.23437 40
      vertex 6.30937 6.2825 40
      vertex 7.85625 4.57687 40
    endloop
  endfacet
  facet normal 0 0 1
    outer loop
      vertex 6.93062 6.64437 40
      vertex 6.30937 6.2825 40
      vertex 7.59125 6.23437 40
    endloop
  endfacet
endsolid OpenSCAD_Model
