solid OpenSCAD_Model
  facet normal -1 0 0
    outer loop
      vertex -10 0 0
      vertex -10 0 2
      vertex -10 10 0
    endloop
  endfacet
  facet normal -1 0 0
    outer loop
      vertex -10 10 0
      vertex -10 0 2
      vertex -10 10 2
    endloop
  endfacet
  facet normal 0 -1 0
    outer loop
      vertex -10 0 2
      vertex -10 0 0
      vertex 2 0 0
    endloop
  endfacet
  facet normal 0 -1 0
    outer loop
      vertex 0 0 2
      vertex -10 0 2
      vertex 2 0 0
    endloop
  endfacet
  facet normal 0 -1 0
    outer loop
      vertex 44 0 10
      vertex 2 0 8
      vertex 42 0 8
    endloop
  endfacet
  facet normal 0 -1 0
    outer loop
      vertex 44 0 0
      vertex 42 0 8
      vertex 42 0 0
    endloop
  endfacet
  facet normal 0 -1 0
    outer loop
      vertex 44 0 10
      vertex 42 0 8
      vertex 44 0 0
    endloop
  endfacet
  facet normal 0 -1 0
    outer loop
      vertex 0 0 10
      vertex 2 0 8
      vertex 44 0 10
    endloop
  endfacet
  facet normal 0 -1 0
    outer loop
      vertex 2 0 8
      vertex 0 0 2
      vertex 2 0 0
    endloop
  endfacet
  facet normal 0 -1 0
    outer loop
      vertex 0 0 10
      vertex 0 0 2
      vertex 2 0 8
    endloop
  endfacet
  facet normal 0 0 -1
    outer loop
      vertex -10 0 0
      vertex -10 10 0
      vertex 2 0 0
    endloop
  endfacet
  facet normal 0 0 -1
    outer loop
      vertex 2 0 0
      vertex -10 10 0
      vertex 2 10 0
    endloop
  endfacet
  facet normal 0 1 0
    outer loop
      vertex -10 10 0
      vertex -10 10 2
      vertex 2 10 0
    endloop
  endfacet
  facet normal 0 1 0
    outer loop
      vertex 2 10 0
      vertex -10 10 2
      vertex 0 10 2
    endloop
  endfacet
  facet normal 0 1 0
    outer loop
      vertex 2 10 0
      vertex 0 10 2
      vertex 0 10 10
    endloop
  endfacet
  facet normal 0 1 0
    outer loop
      vertex 2 10 8
      vertex 0 10 10
      vertex 44 10 10
    endloop
  endfacet
  facet normal 0 1 0
    outer loop
      vertex 42 10 0
      vertex 44 10 10
      vertex 44 10 0
    endloop
  endfacet
  facet normal 0 1 0
    outer loop
      vertex 42 10 8
      vertex 44 10 10
      vertex 42 10 0
    endloop
  endfacet
  facet normal 0 1 0
    outer loop
      vertex 2 10 0
      vertex 0 10 10
      vertex 2 10 8
    endloop
  endfacet
  facet normal 0 1 0
    outer loop
      vertex 2 10 8
      vertex 44 10 10
      vertex 42 10 8
    endloop
  endfacet
  facet normal 0 0 1
    outer loop
      vertex -5.58688 2 2
      vertex -10 0 2
      vertex 0 0 2
    endloop
  endfacet
  facet normal 0 0 1
    outer loop
      vertex -3.89562 6.86125 2
      vertex -3.06312 7.1575 2
      vertex 0 10 2
    endloop
  endfacet
  facet normal 0 0 1
    outer loop
      vertex -10 10 2
      vertex -10 0 2
      vertex -8 3.20937 2
    endloop
  endfacet
  facet normal 0 0 1
    outer loop
      vertex -10 10 2
      vertex -8 3.20937 2
      vertex -8 3.77812 2
    endloop
  endfacet
  facet normal 0 0 1
    outer loop
      vertex -4.1075 2.52375 2
      vertex -4.5625 4.57687 2
      vertex -5.00125 3.77812 2
    endloop
  endfacet
  facet normal 0 0 1
    outer loop
      vertex 0 10 2
      vertex -10 10 2
      vertex -6.02125 7.05062 2
    endloop
  endfacet
  facet normal 0 0 1
    outer loop
      vertex 0 10 2
      vertex -6.02125 7.05062 2
      vertex -5.58688 7.05062 2
    endloop
  endfacet
  facet normal 0 0 1
    outer loop
      vertex -5.58688 3.20937 2
      vertex -5.58688 2 2
      vertex 0 0 2
    endloop
  endfacet
  facet normal 0 0 1
    outer loop
      vertex -5.58688 7.05062 2
      vertex -5.58688 3.77812 2
      vertex -5.00125 3.77812 2
    endloop
  endfacet
  facet normal 0 0 1
    outer loop
      vertex -1.56375 4.57687 2
      vertex -1.73 3.1425 2
      vertex 0 0 2
    endloop
  endfacet
  facet normal 0 0 1
    outer loop
      vertex -5.58688 7.05062 2
      vertex -5.00125 3.77812 2
      vertex -4.5625 4.57687 2
    endloop
  endfacet
  facet normal 0 0 1
    outer loop
      vertex -4.1075 2.52375 2
      vertex -5.58688 3.20937 2
      vertex 0 0 2
    endloop
  endfacet
  facet normal 0 0 1
    outer loop
      vertex -6.11875 2 2
      vertex -10 0 2
      vertex -5.58688 2 2
    endloop
  endfacet
  facet normal 0 0 1
    outer loop
      vertex -3.06312 2 2
      vertex -4.1075 2.52375 2
      vertex 0 0 2
    endloop
  endfacet
  facet normal 0 0 1
    outer loop
      vertex -8 3.20937 2
      vertex -10 0 2
      vertex -6.11875 2 2
    endloop
  endfacet
  facet normal 0 0 1
    outer loop
      vertex -2.22688 2.29812 2
      vertex -3.06312 2 2
      vertex 0 0 2
    endloop
  endfacet
  facet normal 0 0 1
    outer loop
      vertex -3.89562 6.86125 2
      vertex -5.58688 7.05062 2
      vertex -4.39437 6.01875 2
    endloop
  endfacet
  facet normal 0 0 1
    outer loop
      vertex -1.6675 5.77062 2
      vertex -1.56375 4.57687 2
      vertex 0 0 2
    endloop
  endfacet
  facet normal 0 0 1
    outer loop
      vertex 0 10 2
      vertex -5.58688 7.05062 2
      vertex -3.89562 6.86125 2
    endloop
  endfacet
  facet normal 0 0 1
    outer loop
      vertex -1.73 3.1425 2
      vertex -2.22688 2.29812 2
      vertex 0 0 2
    endloop
  endfacet
  facet normal 0 0 1
    outer loop
      vertex 0 10 2
      vertex -3.06312 7.1575 2
      vertex -2.41375 6.99375 2
    endloop
  endfacet
  facet normal 0 0 1
    outer loop
      vertex 0 10 2
      vertex -2.41375 6.99375 2
      vertex -1.9525 6.52187 2
    endloop
  endfacet
  facet normal 0 0 1
    outer loop
      vertex 0 10 2
      vertex -1.6675 5.77062 2
      vertex 0 0 2
    endloop
  endfacet
  facet normal 0 0 1
    outer loop
      vertex 0 10 2
      vertex -1.9525 6.52187 2
      vertex -1.6675 5.77062 2
    endloop
  endfacet
  facet normal 0 0 1
    outer loop
      vertex -4.1075 2.52375 2
      vertex -5.00125 3.77812 2
      vertex -5.00125 3.20937 2
    endloop
  endfacet
  facet normal 0 0 1
    outer loop
      vertex -4.5625 4.57687 2
      vertex -4.39437 6.01875 2
      vertex -5.58688 7.05062 2
    endloop
  endfacet
  facet normal 0 0 1
    outer loop
      vertex -5.00125 3.20937 2
      vertex -5.58688 3.20937 2
      vertex -4.1075 2.52375 2
    endloop
  endfacet
  facet normal 0 0 1
    outer loop
      vertex -6.11875 2 2
      vertex -6.11875 3.20937 2
      vertex -8 3.20937 2
    endloop
  endfacet
  facet normal 0 0 1
    outer loop
      vertex -8 3.77812 2
      vertex -6.02125 7.05062 2
      vertex -10 10 2
    endloop
  endfacet
  facet normal -1 0 0
    outer loop
      vertex 0 0 2
      vertex 0 0 10
      vertex 0 10 2
    endloop
  endfacet
  facet normal -1 0 0
    outer loop
      vertex 0 10 2
      vertex 0 0 10
      vertex 0 10 10
    endloop
  endfacet
  facet normal 0 0 1
    outer loop
      vertex 0 10 10
      vertex 0 0 10
      vertex 44 0 10
    endloop
  endfacet
  facet normal 0 0 1
    outer loop
      vertex 44 10 10
      vertex 0 10 10
      vertex 44 0 10
    endloop
  endfacet
  facet normal 1 0 0
    outer loop
      vertex 44 0 10
      vertex 44 0 0
      vertex 44 10 0
    endloop
  endfacet
  facet normal 1 0 0
    outer loop
      vertex 44 10 10
      vertex 44 0 10
      vertex 44 10 0
    endloop
  endfacet
  facet normal 0 0 -1
    outer loop
      vertex 42 0 0
      vertex 42 10 0
      vertex 44 0 0
    endloop
  endfacet
  facet normal 0 0 -1
    outer loop
      vertex 44 0 0
      vertex 42 10 0
      vertex 44 10 0
    endloop
  endfacet
  facet normal -1 0 0
    outer loop
      vertex 42 0 0
      vertex 42 0 8
      vertex 42 10 0
    endloop
  endfacet
  facet normal -1 0 0
    outer loop
      vertex 42 10 0
      vertex 42 0 8
      vertex 42 10 8
    endloop
  endfacet
  facet normal 0 0 -1
    outer loop
      vertex 2 0 8
      vertex 2 10 8
      vertex 42 0 8
    endloop
  endfacet
  facet normal 0 0 -1
    outer loop
      vertex 42 0 8
      vertex 2 10 8
      vertex 42 10 8
    endloop
  endfacet
  facet normal 1 0 0
    outer loop
      vertex 2 0 8
      vertex 2 0 0
      vertex 2 10 0
    endloop
  endfacet
  facet normal 1 0 0
    outer loop
      vertex 2 10 8
      vertex 2 0 8
      vertex 2 10 0
    endloop
  endfacet
  facet normal 0 -1 0
    outer loop
      vertex -8 3.20937 3
      vertex -8 3.20937 2
      vertex -6.11875 3.20937 2
    endloop
  endfacet
  facet normal 0 -1 0
    outer loop
      vertex -6.11875 3.20937 3
      vertex -8 3.20937 3
      vertex -6.11875 3.20937 2
    endloop
  endfacet
  facet normal -1 0 0
    outer loop
      vertex -8 3.20937 2
      vertex -8 3.20937 3
      vertex -8 3.77812 2
    endloop
  endfacet
  facet normal -1 0 0
    outer loop
      vertex -8 3.77812 2
      vertex -8 3.20937 3
      vertex -8 3.77812 3
    endloop
  endfacet
  facet normal -1 0 0
    outer loop
      vertex -6.11875 2 2
      vertex -6.11875 2 3
      vertex -6.11875 3.20937 2
    endloop
  endfacet
  facet normal -1 0 0
    outer loop
      vertex -6.11875 3.20937 2
      vertex -6.11875 2 3
      vertex -6.11875 3.20937 3
    endloop
  endfacet
  facet normal 0 -1 0
    outer loop
      vertex -6.11875 2 3
      vertex -6.11875 2 2
      vertex -5.58688 2 2
    endloop
  endfacet
  facet normal 0 -1 0
    outer loop
      vertex -5.58688 2 3
      vertex -6.11875 2 3
      vertex -5.58688 2 2
    endloop
  endfacet
  facet normal 1 0 0
    outer loop
      vertex -5.58688 2 3
      vertex -5.58688 2 2
      vertex -5.58688 3.20937 2
    endloop
  endfacet
  facet normal 1 0 0
    outer loop
      vertex -5.58688 3.20937 3
      vertex -5.58688 2 3
      vertex -5.58688 3.20937 2
    endloop
  endfacet
  facet normal 0 -1 0
    outer loop
      vertex -5.58688 3.20937 3
      vertex -5.58688 3.20937 2
      vertex -5.00125 3.20937 2
    endloop
  endfacet
  facet normal 0 -1 0
    outer loop
      vertex -5.00125 3.20937 3
      vertex -5.58688 3.20937 3
      vertex -5.00125 3.20937 2
    endloop
  endfacet
  facet normal 1 0 0
    outer loop
      vertex -5.00125 3.20937 3
      vertex -5.00125 3.20937 2
      vertex -5.00125 3.77812 2
    endloop
  endfacet
  facet normal 1 0 0
    outer loop
      vertex -5.00125 3.77812 3
      vertex -5.00125 3.20937 3
      vertex -5.00125 3.77812 2
    endloop
  endfacet
  facet normal 0 1 0
    outer loop
      vertex -5.58688 3.77812 2
      vertex -5.58688 3.77812 3
      vertex -5.00125 3.77812 2
    endloop
  endfacet
  facet normal 0 1 0
    outer loop
      vertex -5.00125 3.77812 2
      vertex -5.58688 3.77812 3
      vertex -5.00125 3.77812 3
    endloop
  endfacet
  facet normal 1 0 0
    outer loop
      vertex -5.58688 3.77812 3
      vertex -5.58688 3.77812 2
      vertex -5.58688 7.05062 2
    endloop
  endfacet
  facet normal 1 0 0
    outer loop
      vertex -5.58688 7.05062 3
      vertex -5.58688 3.77812 3
      vertex -5.58688 7.05062 2
    endloop
  endfacet
  facet normal 0 1 0
    outer loop
      vertex -6.02125 7.05062 2
      vertex -6.02125 7.05062 3
      vertex -5.58688 7.05062 2
    endloop
  endfacet
  facet normal 0 1 0
    outer loop
      vertex -5.58688 7.05062 2
      vertex -6.02125 7.05062 3
      vertex -5.58688 7.05062 3
    endloop
  endfacet
  facet normal -0.855729 0.517425 0
    outer loop
      vertex -8 3.77812 2
      vertex -8 3.77812 3
      vertex -6.02125 7.05062 2
    endloop
  endfacet
  facet normal -0.855729 0.517425 0
    outer loop
      vertex -6.02125 7.05062 2
      vertex -8 3.77812 3
      vertex -6.02125 7.05062 3
    endloop
  endfacet
  facet normal -0.976313 -0.216364 0
    outer loop
      vertex -4.5625 4.57687 2
      vertex -4.1075 2.52375 2
      vertex -4.5625 4.57687 3
    endloop
  endfacet
  facet normal -0.976313 -0.216364 0
    outer loop
      vertex -4.5625 4.57687 3
      vertex -4.1075 2.52375 2
      vertex -4.1075 2.52375 3
    endloop
  endfacet
  facet normal -0.993271 0.115817 0
    outer loop
      vertex -4.5625 4.57687 2
      vertex -4.5625 4.57687 3
      vertex -4.39437 6.01875 2
    endloop
  endfacet
  facet normal -0.993271 0.115817 0
    outer loop
      vertex -4.39437 6.01875 2
      vertex -4.5625 4.57687 3
      vertex -4.39437 6.01875 3
    endloop
  endfacet
  facet normal -0.448283 -0.893892 0
    outer loop
      vertex -4.1075 2.52375 3
      vertex -4.1075 2.52375 2
      vertex -3.06312 2 2
    endloop
  endfacet
  facet normal -0.448283 -0.893892 0
    outer loop
      vertex -3.06312 2 3
      vertex -4.1075 2.52375 3
      vertex -3.06312 2 2
    endloop
  endfacet
  facet normal 0.335801 -0.941933 0
    outer loop
      vertex -3.06312 2 3
      vertex -3.06312 2 2
      vertex -2.22688 2.29812 2
    endloop
  endfacet
  facet normal 0.335801 -0.941933 0
    outer loop
      vertex -2.22688 2.29812 3
      vertex -3.06312 2 3
      vertex -2.22688 2.29812 2
    endloop
  endfacet
  facet normal 0.861852 -0.50716 0
    outer loop
      vertex -2.22688 2.29812 3
      vertex -2.22688 2.29812 2
      vertex -1.73 3.1425 2
    endloop
  endfacet
  facet normal 0.861852 -0.50716 0
    outer loop
      vertex -1.73 3.1425 3
      vertex -2.22688 2.29812 3
      vertex -1.73 3.1425 2
    endloop
  endfacet
  facet normal 0.99335 -0.115133 0
    outer loop
      vertex -1.73 3.1425 3
      vertex -1.73 3.1425 2
      vertex -1.56375 4.57687 2
    endloop
  endfacet
  facet normal 0.99335 -0.115133 0
    outer loop
      vertex -1.56375 4.57687 3
      vertex -1.73 3.1425 3
      vertex -1.56375 4.57687 2
    endloop
  endfacet
  facet normal 0.996245 0.0865846 0
    outer loop
      vertex -1.56375 4.57687 2
      vertex -1.6675 5.77062 2
      vertex -1.6675 5.77062 3
    endloop
  endfacet
  facet normal 0.996245 0.0865846 0
    outer loop
      vertex -1.56375 4.57687 3
      vertex -1.56375 4.57687 2
      vertex -1.6675 5.77062 3
    endloop
  endfacet
  facet normal 0.93498 0.354701 0
    outer loop
      vertex -1.6675 5.77062 2
      vertex -1.9525 6.52187 2
      vertex -1.9525 6.52187 3
    endloop
  endfacet
  facet normal 0.93498 0.354701 0
    outer loop
      vertex -1.6675 5.77062 3
      vertex -1.6675 5.77062 2
      vertex -1.9525 6.52187 3
    endloop
  endfacet
  facet normal 0.715112 0.69901 0
    outer loop
      vertex -1.9525 6.52187 2
      vertex -2.41375 6.99375 2
      vertex -2.41375 6.99375 3
    endloop
  endfacet
  facet normal 0.715112 0.69901 0
    outer loop
      vertex -1.9525 6.52187 3
      vertex -1.9525 6.52187 2
      vertex -2.41375 6.99375 3
    endloop
  endfacet
  facet normal 0.244511 0.969646 0
    outer loop
      vertex -3.06312 7.1575 2
      vertex -3.06312 7.1575 3
      vertex -2.41375 6.99375 2
    endloop
  endfacet
  facet normal 0.244511 0.969646 0
    outer loop
      vertex -2.41375 6.99375 2
      vertex -3.06312 7.1575 3
      vertex -2.41375 6.99375 3
    endloop
  endfacet
  facet normal -0.335261 0.942125 0
    outer loop
      vertex -3.89562 6.86125 2
      vertex -3.89562 6.86125 3
      vertex -3.06312 7.1575 2
    endloop
  endfacet
  facet normal -0.335261 0.942125 0
    outer loop
      vertex -3.06312 7.1575 2
      vertex -3.89562 6.86125 3
      vertex -3.06312 7.1575 3
    endloop
  endfacet
  facet normal -0.86052 0.509417 0
    outer loop
      vertex -4.39437 6.01875 2
      vertex -4.39437 6.01875 3
      vertex -3.89562 6.86125 2
    endloop
  endfacet
  facet normal -0.86052 0.509417 0
    outer loop
      vertex -3.89562 6.86125 2
      vertex -4.39437 6.01875 3
      vertex -3.89562 6.86125 3
    endloop
  endfacet
  facet normal 0 0 1
    outer loop
      vertex -7.47625 3.77812 3
      vertex -5.58688 7.05062 3
      vertex -8 3.77812 3
    endloop
  endfacet
  facet normal 0 0 1
    outer loop
      vertex -8 3.77812 3
      vertex -8 3.20937 3
      vertex -6.11875 3.20937 3
    endloop
  endfacet
  facet normal 0 0 1
    outer loop
      vertex -5.58688 3.20937 3
      vertex -8 3.77812 3
      vertex -6.11875 3.20937 3
    endloop
  endfacet
  facet normal 0 0 1
    outer loop
      vertex -6.11875 2 3
      vertex -5.58688 2 3
      vertex -6.11875 3.20937 3
    endloop
  endfacet
  facet normal 0 0 1
    outer loop
      vertex -5.58688 2 3
      vertex -5.58688 3.20937 3
      vertex -6.11875 3.20937 3
    endloop
  endfacet
  facet normal 0 0 1
    outer loop
      vertex -5.58688 3.20937 3
      vertex -5.00125 3.20937 3
      vertex -8 3.77812 3
    endloop
  endfacet
  facet normal 0 0 1
    outer loop
      vertex -5.00125 3.20937 3
      vertex -5.58688 3.77812 3
      vertex -6.11875 3.77812 3
    endloop
  endfacet
  facet normal 0 0 1
    outer loop
      vertex -5.00125 3.20937 3
      vertex -5.00125 3.77812 3
      vertex -5.58688 3.77812 3
    endloop
  endfacet
  facet normal 0 0 1
    outer loop
      vertex -8 3.77812 3
      vertex -5.58688 7.05062 3
      vertex -6.02125 7.05062 3
    endloop
  endfacet
  facet normal 0 0 1
    outer loop
      vertex -5.00125 3.20937 3
      vertex -6.11875 3.77812 3
      vertex -7.47625 3.77812 3
    endloop
  endfacet
  facet normal 0 0 1
    outer loop
      vertex -5.58688 3.77812 3
      vertex -5.58688 7.05062 3
      vertex -6.11875 3.77812 3
    endloop
  endfacet
  facet normal 0 0 1
    outer loop
      vertex -5.00125 3.20937 3
      vertex -7.47625 3.77812 3
      vertex -8 3.77812 3
    endloop
  endfacet
  facet normal 0 0 1
    outer loop
      vertex -6.11875 6.055 3
      vertex -5.58688 7.05062 3
      vertex -7.47625 3.77812 3
    endloop
  endfacet
  facet normal 0 0 1
    outer loop
      vertex -6.11875 3.77812 3
      vertex -5.58688 7.05062 3
      vertex -6.11875 6.055 3
    endloop
  endfacet
  facet normal 0 0 1
    outer loop
      vertex -4.39437 6.01875 3
      vertex -4.5625 4.57687 3
      vertex -4.1075 2.52375 3
    endloop
  endfacet
  facet normal 0 0 1
    outer loop
      vertex -2.14375 4.57687 3
      vertex -2.40875 2.92375 3
      vertex -1.73 3.1425 3
    endloop
  endfacet
  facet normal 0 0 1
    outer loop
      vertex -3.71687 2.92187 3
      vertex -4.39437 6.01875 3
      vertex -4.1075 2.52375 3
    endloop
  endfacet
  facet normal 0 0 1
    outer loop
      vertex -3.06937 6.64437 3
      vertex -2.40875 6.23437 3
      vertex -1.9525 6.52187 3
    endloop
  endfacet
  facet normal 0 0 1
    outer loop
      vertex -3.06312 7.1575 3
      vertex -4.39437 6.01875 3
      vertex -2.41375 6.99375 3
    endloop
  endfacet
  facet normal 0 0 1
    outer loop
      vertex -3.89562 6.86125 3
      vertex -4.39437 6.01875 3
      vertex -3.06312 7.1575 3
    endloop
  endfacet
  facet normal 0 0 1
    outer loop
      vertex -3.06312 2 3
      vertex -3.71687 2.92187 3
      vertex -4.1075 2.52375 3
    endloop
  endfacet
  facet normal 0 0 1
    outer loop
      vertex -3.98187 4.57687 3
      vertex -4.39437 6.01875 3
      vertex -3.71687 2.92187 3
    endloop
  endfacet
  facet normal 0 0 1
    outer loop
      vertex -2.40875 6.23437 3
      vertex -1.56375 4.57687 3
      vertex -1.6675 5.77062 3
    endloop
  endfacet
  facet normal 0 0 1
    outer loop
      vertex -3.06937 6.64437 3
      vertex -4.39437 6.01875 3
      vertex -3.69062 6.2825 3
    endloop
  endfacet
  facet normal 0 0 1
    outer loop
      vertex -2.40875 6.23437 3
      vertex -2.14375 4.57687 3
      vertex -1.56375 4.57687 3
    endloop
  endfacet
  facet normal 0 0 1
    outer loop
      vertex -2.41375 6.99375 3
      vertex -4.39437 6.01875 3
      vertex -3.06937 6.64437 3
    endloop
  endfacet
  facet normal 0 0 1
    outer loop
      vertex -1.9525 6.52187 3
      vertex -2.40875 6.23437 3
      vertex -1.6675 5.77062 3
    endloop
  endfacet
  facet normal 0 0 1
    outer loop
      vertex -3.06937 6.64437 3
      vertex -1.9525 6.52187 3
      vertex -2.41375 6.99375 3
    endloop
  endfacet
  facet normal 0 0 1
    outer loop
      vertex -1.56375 4.57687 3
      vertex -2.14375 4.57687 3
      vertex -1.73 3.1425 3
    endloop
  endfacet
  facet normal 0 0 1
    outer loop
      vertex -1.73 3.1425 3
      vertex -2.40875 2.92375 3
      vertex -2.22688 2.29812 3
    endloop
  endfacet
  facet normal 0 0 1
    outer loop
      vertex -2.22688 2.29812 3
      vertex -3.06312 2.51 3
      vertex -3.06312 2 3
    endloop
  endfacet
  facet normal 0 0 1
    outer loop
      vertex -3.06312 2.51 3
      vertex -3.71687 2.92187 3
      vertex -3.06312 2 3
    endloop
  endfacet
  facet normal 0 0 1
    outer loop
      vertex -2.40875 2.92375 3
      vertex -3.06312 2.51 3
      vertex -2.22688 2.29812 3
    endloop
  endfacet
  facet normal 0 0 1
    outer loop
      vertex -3.98187 4.57687 3
      vertex -3.69062 6.2825 3
      vertex -4.39437 6.01875 3
    endloop
  endfacet
  facet normal 0 1 0
    outer loop
      vertex -7.47625 3.77812 2
      vertex -7.47625 3.77812 3
      vertex -6.11875 3.77812 2
    endloop
  endfacet
  facet normal 0 1 0
    outer loop
      vertex -6.11875 3.77812 2
      vertex -7.47625 3.77812 3
      vertex -6.11875 3.77812 3
    endloop
  endfacet
  facet normal -1 0 0
    outer loop
      vertex -6.11875 3.77812 2
      vertex -6.11875 3.77812 3
      vertex -6.11875 6.055 2
    endloop
  endfacet
  facet normal -1 0 0
    outer loop
      vertex -6.11875 6.055 2
      vertex -6.11875 3.77812 3
      vertex -6.11875 6.055 3
    endloop
  endfacet
  facet normal 0.858925 -0.512101 0
    outer loop
      vertex -7.47625 3.77812 3
      vertex -7.47625 3.77812 2
      vertex -6.11875 6.055 2
    endloop
  endfacet
  facet normal 0.858925 -0.512101 0
    outer loop
      vertex -6.11875 6.055 3
      vertex -7.47625 3.77812 3
      vertex -6.11875 6.055 2
    endloop
  endfacet
  facet normal 0.987422 0.158107 0
    outer loop
      vertex -3.71687 2.92187 2
      vertex -3.98187 4.57687 2
      vertex -3.98187 4.57687 3
    endloop
  endfacet
  facet normal 0.987422 0.158107 0
    outer loop
      vertex -3.71687 2.92187 3
      vertex -3.71687 2.92187 2
      vertex -3.98187 4.57687 3
    endloop
  endfacet
  facet normal 0.533049 0.846084 0
    outer loop
      vertex -3.71687 2.92187 2
      vertex -3.71687 2.92187 3
      vertex -3.06312 2.51 2
    endloop
  endfacet
  facet normal 0.533049 0.846084 0
    outer loop
      vertex -3.06312 2.51 2
      vertex -3.71687 2.92187 3
      vertex -3.06312 2.51 3
    endloop
  endfacet
  facet normal -0.534418 0.84522 0
    outer loop
      vertex -3.06312 2.51 2
      vertex -3.06312 2.51 3
      vertex -2.40875 2.92375 2
    endloop
  endfacet
  facet normal -0.534418 0.84522 0
    outer loop
      vertex -2.40875 2.92375 2
      vertex -3.06312 2.51 3
      vertex -2.40875 2.92375 3
    endloop
  endfacet
  facet normal -0.987394 0.158282 0
    outer loop
      vertex -2.40875 2.92375 2
      vertex -2.40875 2.92375 3
      vertex -2.14375 4.57687 2
    endloop
  endfacet
  facet normal -0.987394 0.158282 0
    outer loop
      vertex -2.14375 4.57687 2
      vertex -2.40875 2.92375 3
      vertex -2.14375 4.57687 3
    endloop
  endfacet
  facet normal -0.987459 -0.157874 0
    outer loop
      vertex -2.40875 6.23437 2
      vertex -2.14375 4.57687 2
      vertex -2.40875 6.23437 3
    endloop
  endfacet
  facet normal -0.987459 -0.157874 0
    outer loop
      vertex -2.40875 6.23437 3
      vertex -2.14375 4.57687 2
      vertex -2.14375 4.57687 3
    endloop
  endfacet
  facet normal -0.527323 -0.849665 0
    outer loop
      vertex -3.06937 6.64437 3
      vertex -3.06937 6.64437 2
      vertex -2.40875 6.23437 2
    endloop
  endfacet
  facet normal -0.527323 -0.849665 0
    outer loop
      vertex -2.40875 6.23437 3
      vertex -3.06937 6.64437 3
      vertex -2.40875 6.23437 2
    endloop
  endfacet
  facet normal 0.50333 -0.864094 0
    outer loop
      vertex -3.69062 6.2825 3
      vertex -3.69062 6.2825 2
      vertex -3.06937 6.64437 2
    endloop
  endfacet
  facet normal 0.50333 -0.864094 0
    outer loop
      vertex -3.06937 6.64437 3
      vertex -3.69062 6.2825 3
      vertex -3.06937 6.64437 2
    endloop
  endfacet
  facet normal 0.985732 -0.168322 0
    outer loop
      vertex -3.98187 4.57687 3
      vertex -3.98187 4.57687 2
      vertex -3.69062 6.2825 2
    endloop
  endfacet
  facet normal 0.985732 -0.168322 0
    outer loop
      vertex -3.69062 6.2825 3
      vertex -3.98187 4.57687 3
      vertex -3.69062 6.2825 2
    endloop
  endfacet
  facet normal 0 0 1
    outer loop
      vertex -6.11875 6.055 2
      vertex -7.47625 3.77812 2
      vertex -6.11875 3.77812 2
    endloop
  endfacet
  facet normal 0 0 1
    outer loop
      vertex -3.69062 6.2825 2
      vertex -3.98187 4.57687 2
      vertex -3.71687 2.92187 2
    endloop
  endfacet
  facet normal 0 0 1
    outer loop
      vertex -2.40875 2.92375 2
      vertex -3.69062 6.2825 2
      vertex -3.06312 2.51 2
    endloop
  endfacet
  facet normal 0 0 1
    outer loop
      vertex -3.06312 2.51 2
      vertex -3.69062 6.2825 2
      vertex -3.71687 2.92187 2
    endloop
  endfacet
  facet normal 0 0 1
    outer loop
      vertex -2.14375 4.57687 2
      vertex -3.69062 6.2825 2
      vertex -2.40875 2.92375 2
    endloop
  endfacet
  facet normal 0 0 1
    outer loop
      vertex -2.40875 6.23437 2
      vertex -3.69062 6.2825 2
      vertex -2.14375 4.57687 2
    endloop
  endfacet
  facet normal 0 0 1
    outer loop
      vertex -3.06937 6.64437 2
      vertex -3.69062 6.2825 2
      vertex -2.40875 6.23437 2
    endloop
  endfacet
endsolid OpenSCAD_Model
