solid OpenSCAD_Model
  facet normal -1 0 0
    outer loop
      vertex -10 0 0
      vertex -10 0 10
      vertex -10 10 0
    endloop
  endfacet
  facet normal -1 0 0
    outer loop
      vertex -10 10 0
      vertex -10 0 10
      vertex -10 10 10
    endloop
  endfacet
  facet normal 0 -1 0
    outer loop
      vertex -10 0 10
      vertex -10 0 0
      vertex 0 0 0
    endloop
  endfacet
  facet normal 0 -1 0
    outer loop
      vertex 0 0 10
      vertex -10 0 10
      vertex 0 0 0
    endloop
  endfacet
  facet normal 0 0 -1
    outer loop
      vertex -10 0 0
      vertex -10 10 0
      vertex 0 0 0
    endloop
  endfacet
  facet normal 0 0 -1
    outer loop
      vertex 0 0 0
      vertex -10 10 0
      vertex 0 10 0
    endloop
  endfacet
  facet normal 0 1 0
    outer loop
      vertex -10 10 0
      vertex -10 10 10
      vertex 0 10 0
    endloop
  endfacet
  facet normal 0 1 0
    outer loop
      vertex 0 10 2.22045e-15
      vertex -10 10 10
      vertex 0 10 10
    endloop
  endfacet
  facet normal 0 1 0
    outer loop
      vertex 0 10 0
      vertex -10 10 10
      vertex 0 10 2.22045e-15
    endloop
  endfacet
  facet normal 0 0 1
    outer loop
      vertex -6.42312 2 10
      vertex -10 0 10
      vertex 0 0 10
    endloop
  endfacet
  facet normal 0 0 1
    outer loop
      vertex -10 10 10
      vertex -10 0 10
      vertex -7.56 2.57062 10
    endloop
  endfacet
  facet normal 0 0 1
    outer loop
      vertex -5.69187 2.2175 10
      vertex -6.42312 2 10
      vertex 0 0 10
    endloop
  endfacet
  facet normal 0 0 1
    outer loop
      vertex -10 10 10
      vertex -7.56 2.57062 10
      vertex -8 4.44937 10
    endloop
  endfacet
  facet normal 0 0 1
    outer loop
      vertex -10 10 10
      vertex -8 4.44937 10
      vertex -7.51375 6.57875 10
    endloop
  endfacet
  facet normal 0 0 1
    outer loop
      vertex -6.8725 6.4825 10
      vertex -7.2875 5.85875 10
      vertex -6.3425 5.3625 10
    endloop
  endfacet
  facet normal 0 0 1
    outer loop
      vertex 0 10 10
      vertex -10 10 10
      vertex -6.37062 7.1575 10
    endloop
  endfacet
  facet normal 0 0 1
    outer loop
      vertex -3.11875 4.88687 10
      vertex -3.60312 4.75125 10
      vertex -2.15312 3.74312 10
    endloop
  endfacet
  facet normal 0 0 1
    outer loop
      vertex 0 10 10
      vertex -6.37062 7.1575 10
      vertex -5.4925 6.82312 10
    endloop
  endfacet
  facet normal 0 0 1
    outer loop
      vertex -5.84687 6.3825 10
      vertex -6.40437 6.6475 10
      vertex -5.63625 5.85187 10
    endloop
  endfacet
  facet normal 0 0 1
    outer loop
      vertex -5.08188 5.9 10
      vertex -4.02562 7.06812 10
      vertex -5.4925 6.82312 10
    endloop
  endfacet
  facet normal 0 0 1
    outer loop
      vertex -3.97937 3.46437 10
      vertex -6.8725 6.4825 10
      vertex -5.39313 4.90625 10
    endloop
  endfacet
  facet normal 0 0 1
    outer loop
      vertex -4.46375 4.47375 10
      vertex -4.02562 7.06812 10
      vertex -5.08188 5.9 10
    endloop
  endfacet
  facet normal 0 0 1
    outer loop
      vertex -7.2875 5.85875 10
      vertex -7.44562 4.69062 10
      vertex -6.9525 5.1975 10
    endloop
  endfacet
  facet normal 0 0 1
    outer loop
      vertex -3.825 5.11812 10
      vertex -2.97063 5.435 10
      vertex -3.58125 6.47562 10
    endloop
  endfacet
  facet normal 0 0 1
    outer loop
      vertex -4.5625 3.40937 10
      vertex -3.97937 3.46437 10
      vertex -5.39313 4.90625 10
    endloop
  endfacet
  facet normal 0 0 1
    outer loop
      vertex -4.46375 4.47375 10
      vertex -5.08188 5.9 10
      vertex -5.63625 5.85187 10
    endloop
  endfacet
  facet normal 0 0 1
    outer loop
      vertex -3.97937 3.46437 10
      vertex -3.67875 2.74937 10
      vertex -3.10938 2.51 10
    endloop
  endfacet
  facet normal 0 0 1
    outer loop
      vertex -5.18562 2.8425 10
      vertex -5.69187 2.2175 10
      vertex 0 0 10
    endloop
  endfacet
  facet normal 0 0 1
    outer loop
      vertex -7.56 2.57062 10
      vertex -10 0 10
      vertex -6.42312 2 10
    endloop
  endfacet
  facet normal 0 0 1
    outer loop
      vertex -3.10938 2.51 10
      vertex -4.46375 4.47375 10
      vertex -3.97937 3.46437 10
    endloop
  endfacet
  facet normal 0 0 1
    outer loop
      vertex -4.11625 2.38625 10
      vertex -4.5625 3.40937 10
      vertex -5.00125 3.72625 10
    endloop
  endfacet
  facet normal 0 0 1
    outer loop
      vertex -6.9525 5.1975 10
      vertex -6.3425 5.3625 10
      vertex -7.2875 5.85875 10
    endloop
  endfacet
  facet normal 0 0 1
    outer loop
      vertex -4.11625 2.38625 10
      vertex -5.18562 2.8425 10
      vertex 0 0 10
    endloop
  endfacet
  facet normal 0 0 1
    outer loop
      vertex -3.10938 2 10
      vertex -4.11625 2.38625 10
      vertex 0 0 10
    endloop
  endfacet
  facet normal 0 0 1
    outer loop
      vertex -5.00125 3.72625 10
      vertex -5.18562 2.8425 10
      vertex -4.11625 2.38625 10
    endloop
  endfacet
  facet normal 0 0 1
    outer loop
      vertex -3.60312 4.75125 10
      vertex -3.9425 4.39812 10
      vertex -2.43062 2.8475 10
    endloop
  endfacet
  facet normal 0 0 1
    outer loop
      vertex -2.42 4.58062 10
      vertex -3.11875 4.88687 10
      vertex -2.15312 3.74312 10
    endloop
  endfacet
  facet normal 0 0 1
    outer loop
      vertex -2.97063 5.435 10
      vertex -1.77687 6.47562 10
      vertex -3.58125 6.47562 10
    endloop
  endfacet
  facet normal 0 0 1
    outer loop
      vertex -6.8725 6.4825 10
      vertex -6.3425 5.3625 10
      vertex -5.39313 4.90625 10
    endloop
  endfacet
  facet normal 0 0 1
    outer loop
      vertex -3.10938 2.51 10
      vertex -2.43062 2.8475 10
      vertex -3.9425 4.39812 10
    endloop
  endfacet
  facet normal 0 0 1
    outer loop
      vertex -2.43062 2.8475 10
      vertex -2.15312 3.74312 10
      vertex -3.60312 4.75125 10
    endloop
  endfacet
  facet normal 0 0 1
    outer loop
      vertex -1.77687 6.47562 10
      vertex -1.97062 4.97687 10
      vertex 0 10 10
    endloop
  endfacet
  facet normal 0 0 1
    outer loop
      vertex 0 10 10
      vertex -5.4925 6.82312 10
      vertex -4.02562 7.06812 10
    endloop
  endfacet
  facet normal 0 0 1
    outer loop
      vertex 0 10 10
      vertex -4.02562 7.06812 10
      vertex -1.77687 7.06812 10
    endloop
  endfacet
  facet normal 0 0 1
    outer loop
      vertex -1.97062 4.97687 10
      vertex -1.56375 3.79875 10
      vertex 0 10 10
    endloop
  endfacet
  facet normal 0 0 1
    outer loop
      vertex 0 10 10
      vertex -1.77687 7.06812 10
      vertex -1.77687 6.47562 10
    endloop
  endfacet
  facet normal 0 0 1
    outer loop
      vertex -1.92188 2.61312 10
      vertex -3.10938 2 10
      vertex 0 0 10
    endloop
  endfacet
  facet normal 0 0 1
    outer loop
      vertex -2.97063 5.435 10
      vertex -1.97062 4.97687 10
      vertex -1.77687 6.47562 10
    endloop
  endfacet
  facet normal 0 0 1
    outer loop
      vertex -1.56375 3.79875 10
      vertex -1.92188 2.61312 10
      vertex 0 0 10
    endloop
  endfacet
  facet normal 0 0 1
    outer loop
      vertex 0 10 10
      vertex -1.56375 3.79875 10
      vertex 0 0 10
    endloop
  endfacet
  facet normal 0 0 1
    outer loop
      vertex -3.10938 2.51 10
      vertex -3.9425 4.39812 10
      vertex -4.46375 4.47375 10
    endloop
  endfacet
  facet normal 0 0 1
    outer loop
      vertex -6.40437 6.6475 10
      vertex -4.46375 4.47375 10
      vertex -5.63625 5.85187 10
    endloop
  endfacet
  facet normal 0 0 1
    outer loop
      vertex -6.40437 6.6475 10
      vertex -6.8725 6.4825 10
      vertex -4.46375 4.47375 10
    endloop
  endfacet
  facet normal 0 0 1
    outer loop
      vertex -7.51375 6.57875 10
      vertex -6.37062 7.1575 10
      vertex -10 10 10
    endloop
  endfacet
  facet normal 0 0 1
    outer loop
      vertex -3.97937 3.46437 10
      vertex -4.46375 4.47375 10
      vertex -6.8725 6.4825 10
    endloop
  endfacet
  facet normal 0 0 1
    outer loop
      vertex -5.39313 4.90625 10
      vertex -5.00125 3.72625 10
      vertex -4.5625 3.40937 10
    endloop
  endfacet
  facet normal -1 0 0
    outer loop
      vertex 0 -2.22045e-15 10
      vertex 0 0 10
      vertex 0 0 0
    endloop
  endfacet
  facet normal -1 0 0
    outer loop
      vertex 0 10 10
      vertex 0 0 10
      vertex 0 -2.22045e-15 10
    endloop
  endfacet
  facet normal 0 -1 -2.22045e-16
    outer loop
      vertex 21.445 -2.22045e-15 10
      vertex 0 -2.22045e-15 10
      vertex 0 0 0
    endloop
  endfacet
  facet normal 0.422619 2.01241e-16 -0.906307
    outer loop
      vertex 0 0 0
      vertex 0 10 2.22045e-15
      vertex 21.445 -2.22045e-15 10
    endloop
  endfacet
  facet normal 0.422619 2.01241e-16 -0.906307
    outer loop
      vertex 21.445 -2.22045e-15 10
      vertex 0 10 2.22045e-15
      vertex 21.445 10 10
    endloop
  endfacet
  facet normal 1 0 0
    outer loop
      vertex 0 10 2.22045e-15
      vertex 0 0 0
      vertex 0 10 0
    endloop
  endfacet
  facet normal 0 1 2.22045e-16
    outer loop
      vertex 0 10 10
      vertex 21.445 10 10
      vertex 0 10 2.22045e-15
    endloop
  endfacet
  facet normal 0.973655 0.228028 0
    outer loop
      vertex -8 4.44937 10
      vertex -7.56 2.57062 10
      vertex -7.56 2.57062 9
    endloop
  endfacet
  facet normal 0.973655 0.228028 0
    outer loop
      vertex -8 4.44937 9
      vertex -8 4.44937 10
      vertex -7.56 2.57062 9
    endloop
  endfacet
  facet normal 0.448589 0.893738 0
    outer loop
      vertex -6.42312 2 10
      vertex -6.42312 2 9
      vertex -7.56 2.57062 10
    endloop
  endfacet
  facet normal 0.448589 0.893738 0
    outer loop
      vertex -7.56 2.57062 10
      vertex -6.42312 2 9
      vertex -7.56 2.57062 9
    endloop
  endfacet
  facet normal -0.285092 0.9585 0
    outer loop
      vertex -5.69187 2.2175 10
      vertex -5.69187 2.2175 9
      vertex -6.42312 2 10
    endloop
  endfacet
  facet normal -0.285092 0.9585 0
    outer loop
      vertex -6.42312 2 10
      vertex -5.69187 2.2175 9
      vertex -6.42312 2 9
    endloop
  endfacet
  facet normal -0.777064 0.629422 0
    outer loop
      vertex -5.18562 2.8425 10
      vertex -5.18562 2.8425 9
      vertex -5.69187 2.2175 10
    endloop
  endfacet
  facet normal -0.777064 0.629422 0
    outer loop
      vertex -5.69187 2.2175 10
      vertex -5.18562 2.8425 9
      vertex -5.69187 2.2175 9
    endloop
  endfacet
  facet normal -0.978923 0.204231 0
    outer loop
      vertex -5.00125 3.72625 10
      vertex -5.00125 3.72625 9
      vertex -5.18562 2.8425 10
    endloop
  endfacet
  facet normal -0.978923 0.204231 0
    outer loop
      vertex -5.18562 2.8425 10
      vertex -5.00125 3.72625 9
      vertex -5.18562 2.8425 9
    endloop
  endfacet
  facet normal -0.949035 -0.315172 0
    outer loop
      vertex -5.00125 3.72625 10
      vertex -5.39313 4.90625 10
      vertex -5.00125 3.72625 9
    endloop
  endfacet
  facet normal -0.949035 -0.315172 0
    outer loop
      vertex -5.00125 3.72625 9
      vertex -5.39313 4.90625 10
      vertex -5.39313 4.90625 9
    endloop
  endfacet
  facet normal -0.433155 -0.901319 0
    outer loop
      vertex -5.39313 4.90625 9
      vertex -5.39313 4.90625 10
      vertex -6.3425 5.3625 10
    endloop
  endfacet
  facet normal -0.433155 -0.901319 0
    outer loop
      vertex -6.3425 5.3625 9
      vertex -5.39313 4.90625 9
      vertex -6.3425 5.3625 10
    endloop
  endfacet
  facet normal 0.261108 -0.96531 0
    outer loop
      vertex -6.3425 5.3625 9
      vertex -6.3425 5.3625 10
      vertex -6.9525 5.1975 10
    endloop
  endfacet
  facet normal 0.261108 -0.96531 0
    outer loop
      vertex -6.9525 5.1975 9
      vertex -6.3425 5.3625 9
      vertex -6.9525 5.1975 10
    endloop
  endfacet
  facet normal 0.716762 -0.697318 0
    outer loop
      vertex -6.9525 5.1975 9
      vertex -6.9525 5.1975 10
      vertex -7.44562 4.69062 10
    endloop
  endfacet
  facet normal 0.716762 -0.697318 0
    outer loop
      vertex -7.44562 4.69062 9
      vertex -6.9525 5.1975 9
      vertex -7.44562 4.69062 10
    endloop
  endfacet
  facet normal -0.990962 0.134143 0
    outer loop
      vertex -7.2875 5.85875 10
      vertex -7.2875 5.85875 9
      vertex -7.44562 4.69062 10
    endloop
  endfacet
  facet normal -0.990962 0.134143 0
    outer loop
      vertex -7.44562 4.69062 10
      vertex -7.2875 5.85875 9
      vertex -7.44562 4.69062 9
    endloop
  endfacet
  facet normal -0.832563 0.55393 0
    outer loop
      vertex -6.8725 6.4825 10
      vertex -6.8725 6.4825 9
      vertex -7.2875 5.85875 10
    endloop
  endfacet
  facet normal -0.832563 0.55393 0
    outer loop
      vertex -7.2875 5.85875 10
      vertex -6.8725 6.4825 9
      vertex -7.2875 5.85875 9
    endloop
  endfacet
  facet normal -0.332425 0.94313 0
    outer loop
      vertex -6.40437 6.6475 10
      vertex -6.40437 6.6475 9
      vertex -6.8725 6.4825 10
    endloop
  endfacet
  facet normal -0.332425 0.94313 0
    outer loop
      vertex -6.8725 6.4825 10
      vertex -6.40437 6.6475 9
      vertex -6.8725 6.4825 9
    endloop
  endfacet
  facet normal 0.429305 0.90316 0
    outer loop
      vertex -5.84687 6.3825 10
      vertex -5.84687 6.3825 9
      vertex -6.40437 6.6475 10
    endloop
  endfacet
  facet normal 0.429305 0.90316 0
    outer loop
      vertex -6.40437 6.6475 10
      vertex -5.84687 6.3825 9
      vertex -6.40437 6.6475 9
    endloop
  endfacet
  facet normal 0.929455 0.368936 0
    outer loop
      vertex -5.84687 6.3825 10
      vertex -5.63625 5.85187 10
      vertex -5.63625 5.85187 9
    endloop
  endfacet
  facet normal 0.929455 0.368936 0
    outer loop
      vertex -5.84687 6.3825 9
      vertex -5.84687 6.3825 10
      vertex -5.63625 5.85187 9
    endloop
  endfacet
  facet normal -0.0864842 0.996253 0
    outer loop
      vertex -5.08188 5.9 10
      vertex -5.08188 5.9 9
      vertex -5.63625 5.85187 10
    endloop
  endfacet
  facet normal -0.0864842 0.996253 0
    outer loop
      vertex -5.63625 5.85187 10
      vertex -5.08188 5.9 9
      vertex -5.63625 5.85187 9
    endloop
  endfacet
  facet normal -0.913684 -0.406425 0
    outer loop
      vertex -5.08188 5.9 10
      vertex -5.4925 6.82312 10
      vertex -5.08188 5.9 9
    endloop
  endfacet
  facet normal -0.913684 -0.406425 0
    outer loop
      vertex -5.08188 5.9 9
      vertex -5.4925 6.82312 10
      vertex -5.4925 6.82312 9
    endloop
  endfacet
  facet normal -0.355857 -0.93454 0
    outer loop
      vertex -5.4925 6.82312 9
      vertex -5.4925 6.82312 10
      vertex -6.37062 7.1575 10
    endloop
  endfacet
  facet normal -0.355857 -0.93454 0
    outer loop
      vertex -6.37062 7.1575 9
      vertex -5.4925 6.82312 9
      vertex -6.37062 7.1575 10
    endloop
  endfacet
  facet normal 0.451696 -0.892172 0
    outer loop
      vertex -6.37062 7.1575 9
      vertex -6.37062 7.1575 10
      vertex -7.51375 6.57875 10
    endloop
  endfacet
  facet normal 0.451696 -0.892172 0
    outer loop
      vertex -7.51375 6.57875 9
      vertex -6.37062 7.1575 9
      vertex -7.51375 6.57875 10
    endloop
  endfacet
  facet normal 0.974905 -0.222623 0
    outer loop
      vertex -7.51375 6.57875 9
      vertex -7.51375 6.57875 10
      vertex -8 4.44937 10
    endloop
  endfacet
  facet normal 0.974905 -0.222623 0
    outer loop
      vertex -8 4.44937 9
      vertex -7.51375 6.57875 9
      vertex -8 4.44937 10
    endloop
  endfacet
  facet normal 0.916607 0.399791 0
    outer loop
      vertex -4.5625 3.40937 10
      vertex -4.11625 2.38625 10
      vertex -4.11625 2.38625 9
    endloop
  endfacet
  facet normal 0.916607 0.399791 0
    outer loop
      vertex -4.5625 3.40937 9
      vertex -4.5625 3.40937 10
      vertex -4.11625 2.38625 9
    endloop
  endfacet
  facet normal 0.358163 0.933659 0
    outer loop
      vertex -3.10938 2 10
      vertex -3.10938 2 9
      vertex -4.11625 2.38625 10
    endloop
  endfacet
  facet normal 0.358163 0.933659 0
    outer loop
      vertex -4.11625 2.38625 10
      vertex -3.10938 2 9
      vertex -4.11625 2.38625 9
    endloop
  endfacet
  facet normal -0.458774 0.888553 0
    outer loop
      vertex -1.92188 2.61312 10
      vertex -1.92188 2.61312 9
      vertex -3.10938 2 10
    endloop
  endfacet
  facet normal -0.458774 0.888553 0
    outer loop
      vertex -3.10938 2 10
      vertex -1.92188 2.61312 9
      vertex -3.10938 2 9
    endloop
  endfacet
  facet normal -0.957283 0.289153 0
    outer loop
      vertex -1.56375 3.79875 10
      vertex -1.56375 3.79875 9
      vertex -1.92188 2.61312 10
    endloop
  endfacet
  facet normal -0.957283 0.289153 0
    outer loop
      vertex -1.92188 2.61312 10
      vertex -1.56375 3.79875 9
      vertex -1.92188 2.61312 9
    endloop
  endfacet
  facet normal -0.945218 -0.326439 0
    outer loop
      vertex -1.56375 3.79875 10
      vertex -1.97062 4.97687 10
      vertex -1.56375 3.79875 9
    endloop
  endfacet
  facet normal -0.945218 -0.326439 0
    outer loop
      vertex -1.56375 3.79875 9
      vertex -1.97062 4.97687 10
      vertex -1.97062 4.97687 9
    endloop
  endfacet
  facet normal -0.416498 -0.909137 0
    outer loop
      vertex -1.97062 4.97687 9
      vertex -1.97062 4.97687 10
      vertex -2.97063 5.435 10
    endloop
  endfacet
  facet normal -0.416498 -0.909137 0
    outer loop
      vertex -2.97063 5.435 9
      vertex -1.97062 4.97687 9
      vertex -2.97063 5.435 10
    endloop
  endfacet
  facet normal 0.347739 -0.937591 0
    outer loop
      vertex -2.97063 5.435 9
      vertex -2.97063 5.435 10
      vertex -3.825 5.11812 10
    endloop
  endfacet
  facet normal 0.347739 -0.937591 0
    outer loop
      vertex -3.825 5.11812 9
      vertex -2.97063 5.435 9
      vertex -3.825 5.11812 10
    endloop
  endfacet
  facet normal -0.984259 0.176732 0
    outer loop
      vertex -3.58125 6.47562 10
      vertex -3.58125 6.47562 9
      vertex -3.825 5.11812 10
    endloop
  endfacet
  facet normal -0.984259 0.176732 0
    outer loop
      vertex -3.825 5.11812 10
      vertex -3.58125 6.47562 9
      vertex -3.825 5.11812 9
    endloop
  endfacet
  facet normal 0 1 0
    outer loop
      vertex -1.77687 6.47562 10
      vertex -1.77687 6.47562 9
      vertex -3.58125 6.47562 10
    endloop
  endfacet
  facet normal 0 1 0
    outer loop
      vertex -3.58125 6.47562 10
      vertex -1.77687 6.47562 9
      vertex -3.58125 6.47562 9
    endloop
  endfacet
  facet normal -1 0 0
    outer loop
      vertex -1.77687 7.06812 10
      vertex -1.77687 7.06812 9
      vertex -1.77687 6.47562 10
    endloop
  endfacet
  facet normal -1 0 0
    outer loop
      vertex -1.77687 6.47562 10
      vertex -1.77687 7.06812 9
      vertex -1.77687 6.47562 9
    endloop
  endfacet
  facet normal 0 -1 0
    outer loop
      vertex -1.77687 7.06812 9
      vertex -1.77687 7.06812 10
      vertex -4.02562 7.06812 10
    endloop
  endfacet
  facet normal 0 -1 0
    outer loop
      vertex -4.02562 7.06812 9
      vertex -1.77687 7.06812 9
      vertex -4.02562 7.06812 10
    endloop
  endfacet
  facet normal 0.986039 -0.166517 0
    outer loop
      vertex -4.02562 7.06812 9
      vertex -4.02562 7.06812 10
      vertex -4.46375 4.47375 10
    endloop
  endfacet
  facet normal 0.986039 -0.166517 0
    outer loop
      vertex -4.46375 4.47375 9
      vertex -4.02562 7.06812 9
      vertex -4.46375 4.47375 10
    endloop
  endfacet
  facet normal 0.143581 0.989639 0
    outer loop
      vertex -3.9425 4.39812 10
      vertex -3.9425 4.39812 9
      vertex -4.46375 4.47375 10
    endloop
  endfacet
  facet normal 0.143581 0.989639 0
    outer loop
      vertex -4.46375 4.47375 10
      vertex -3.9425 4.39812 9
      vertex -4.46375 4.47375 9
    endloop
  endfacet
  facet normal -0.721005 0.69293 0
    outer loop
      vertex -3.60312 4.75125 10
      vertex -3.60312 4.75125 9
      vertex -3.9425 4.39812 10
    endloop
  endfacet
  facet normal -0.721005 0.69293 0
    outer loop
      vertex -3.9425 4.39812 10
      vertex -3.60312 4.75125 9
      vertex -3.9425 4.39812 9
    endloop
  endfacet
  facet normal -0.26963 0.962964 0
    outer loop
      vertex -3.11875 4.88687 10
      vertex -3.11875 4.88687 9
      vertex -3.60312 4.75125 10
    endloop
  endfacet
  facet normal -0.26963 0.962964 0
    outer loop
      vertex -3.60312 4.75125 10
      vertex -3.11875 4.88687 9
      vertex -3.60312 4.75125 9
    endloop
  endfacet
  facet normal 0.40142 0.915894 0
    outer loop
      vertex -2.42 4.58062 10
      vertex -2.42 4.58062 9
      vertex -3.11875 4.88687 10
    endloop
  endfacet
  facet normal 0.40142 0.915894 0
    outer loop
      vertex -3.11875 4.88687 10
      vertex -2.42 4.58062 9
      vertex -3.11875 4.88687 9
    endloop
  endfacet
  facet normal 0.952795 0.303615 0
    outer loop
      vertex -2.42 4.58062 10
      vertex -2.15312 3.74312 10
      vertex -2.15312 3.74312 9
    endloop
  endfacet
  facet normal 0.952795 0.303615 0
    outer loop
      vertex -2.42 4.58062 9
      vertex -2.42 4.58062 10
      vertex -2.15312 3.74312 9
    endloop
  endfacet
  facet normal 0.955201 -0.295959 0
    outer loop
      vertex -2.15312 3.74312 9
      vertex -2.15312 3.74312 10
      vertex -2.43062 2.8475 10
    endloop
  endfacet
  facet normal 0.955201 -0.295959 0
    outer loop
      vertex -2.43062 2.8475 9
      vertex -2.15312 3.74312 9
      vertex -2.43062 2.8475 10
    endloop
  endfacet
  facet normal 0.445234 -0.895414 0
    outer loop
      vertex -2.43062 2.8475 9
      vertex -2.43062 2.8475 10
      vertex -3.10938 2.51 10
    endloop
  endfacet
  facet normal 0.445234 -0.895414 0
    outer loop
      vertex -3.10938 2.51 9
      vertex -2.43062 2.8475 9
      vertex -3.10938 2.51 10
    endloop
  endfacet
  facet normal -0.387559 -0.921845 0
    outer loop
      vertex -3.10938 2.51 9
      vertex -3.10938 2.51 10
      vertex -3.67875 2.74937 10
    endloop
  endfacet
  facet normal -0.387559 -0.921845 0
    outer loop
      vertex -3.67875 2.74937 9
      vertex -3.10938 2.51 9
      vertex -3.67875 2.74937 10
    endloop
  endfacet
  facet normal -0.921832 -0.387589 0
    outer loop
      vertex -3.67875 2.74937 10
      vertex -3.97937 3.46437 10
      vertex -3.67875 2.74937 9
    endloop
  endfacet
  facet normal -0.921832 -0.387589 0
    outer loop
      vertex -3.67875 2.74937 9
      vertex -3.97937 3.46437 10
      vertex -3.97937 3.46437 9
    endloop
  endfacet
  facet normal 0.0939026 -0.995581 0
    outer loop
      vertex -3.97937 3.46437 9
      vertex -3.97937 3.46437 10
      vertex -4.5625 3.40937 10
    endloop
  endfacet
  facet normal 0.0939026 -0.995581 0
    outer loop
      vertex -4.5625 3.40937 9
      vertex -3.97937 3.46437 9
      vertex -4.5625 3.40937 10
    endloop
  endfacet
  facet normal 0 -2.22045e-16 1
    outer loop
      vertex 0 10 10
      vertex 0 -2.22045e-15 10
      vertex 21.445 -2.22045e-15 10
    endloop
  endfacet
  facet normal 0 -2.22045e-16 1
    outer loop
      vertex 21.445 10 10
      vertex 0 10 10
      vertex 21.445 -2.22045e-15 10
    endloop
  endfacet
  facet normal 0 0 1
    outer loop
      vertex -7.56 2.57062 9
      vertex -6.42312 2 9
      vertex -5.69187 2.2175 9
    endloop
  endfacet
  facet normal 0 0 1
    outer loop
      vertex -6.4325 2.51 9
      vertex -7.56 2.57062 9
      vertex -5.69187 2.2175 9
    endloop
  endfacet
  facet normal 0 0 1
    outer loop
      vertex -5.57125 3.68812 9
      vertex -5.825 2.82687 9
      vertex -5.00125 3.72625 9
    endloop
  endfacet
  facet normal 0 0 1
    outer loop
      vertex -5.825 2.82687 9
      vertex -6.4325 2.51 9
      vertex -5.18562 2.8425 9
    endloop
  endfacet
  facet normal 0 0 1
    outer loop
      vertex -7.51375 6.57875 9
      vertex -7.56 2.57062 9
      vertex -7.44562 4.69062 9
    endloop
  endfacet
  facet normal 0 0 1
    outer loop
      vertex -7.51375 6.57875 9
      vertex -7.44562 4.69062 9
      vertex -7.2875 5.85875 9
    endloop
  endfacet
  facet normal 0 0 1
    outer loop
      vertex -7.51375 6.57875 9
      vertex -7.2875 5.85875 9
      vertex -6.8725 6.4825 9
    endloop
  endfacet
  facet normal 0 0 1
    outer loop
      vertex -6.37062 7.1575 9
      vertex -6.8725 6.4825 9
      vertex -6.40437 6.6475 9
    endloop
  endfacet
  facet normal 0 0 1
    outer loop
      vertex -5.4925 6.82312 9
      vertex -6.40437 6.6475 9
      vertex -5.84687 6.3825 9
    endloop
  endfacet
  facet normal 0 0 1
    outer loop
      vertex -5.08188 5.9 9
      vertex -5.84687 6.3825 9
      vertex -5.63625 5.85187 9
    endloop
  endfacet
  facet normal 0 0 1
    outer loop
      vertex -5.4925 6.82312 9
      vertex -5.84687 6.3825 9
      vertex -5.08188 5.9 9
    endloop
  endfacet
  facet normal 0 0 1
    outer loop
      vertex -6.37062 7.1575 9
      vertex -6.40437 6.6475 9
      vertex -5.4925 6.82312 9
    endloop
  endfacet
  facet normal 0 0 1
    outer loop
      vertex -7.51375 6.57875 9
      vertex -6.8725 6.4825 9
      vertex -6.37062 7.1575 9
    endloop
  endfacet
  facet normal 0 0 1
    outer loop
      vertex -8 4.44937 9
      vertex -7.56 2.57062 9
      vertex -7.51375 6.57875 9
    endloop
  endfacet
  facet normal 0 0 1
    outer loop
      vertex -7.44562 4.69062 9
      vertex -7.35875 3.7225 9
      vertex -6.9525 5.1975 9
    endloop
  endfacet
  facet normal 0 0 1
    outer loop
      vertex -7.44562 4.69062 9
      vertex -7.56 2.57062 9
      vertex -7.35875 3.7225 9
    endloop
  endfacet
  facet normal 0 0 1
    outer loop
      vertex -6.9525 5.1975 9
      vertex -7.095 4.51312 9
      vertex -6.3425 5.3625 9
    endloop
  endfacet
  facet normal 0 0 1
    outer loop
      vertex -7.095 4.51312 9
      vertex -6.45375 4.815 9
      vertex -6.3425 5.3625 9
    endloop
  endfacet
  facet normal 0 0 1
    outer loop
      vertex -6.3425 5.3625 9
      vertex -6.45375 4.815 9
      vertex -5.39313 4.90625 9
    endloop
  endfacet
  facet normal 0 0 1
    outer loop
      vertex -6.89375 2.66312 9
      vertex -7.23625 3.10937 9
      vertex -7.56 2.57062 9
    endloop
  endfacet
  facet normal 0 0 1
    outer loop
      vertex -6.45375 4.815 9
      vertex -5.82187 4.51312 9
      vertex -5.39313 4.90625 9
    endloop
  endfacet
  facet normal 0 0 1
    outer loop
      vertex -5.39313 4.90625 9
      vertex -5.57125 3.68812 9
      vertex -5.00125 3.72625 9
    endloop
  endfacet
  facet normal 0 0 1
    outer loop
      vertex -5.00125 3.72625 9
      vertex -5.825 2.82687 9
      vertex -5.18562 2.8425 9
    endloop
  endfacet
  facet normal 0 0 1
    outer loop
      vertex -6.4325 2.51 9
      vertex -6.89375 2.66312 9
      vertex -7.56 2.57062 9
    endloop
  endfacet
  facet normal 0 0 1
    outer loop
      vertex -5.18562 2.8425 9
      vertex -6.4325 2.51 9
      vertex -5.69187 2.2175 9
    endloop
  endfacet
  facet normal 0 0 1
    outer loop
      vertex -7.35875 3.7225 9
      vertex -7.095 4.51312 9
      vertex -6.9525 5.1975 9
    endloop
  endfacet
  facet normal 0 0 1
    outer loop
      vertex -5.82187 4.51312 9
      vertex -5.57125 3.68812 9
      vertex -5.39313 4.90625 9
    endloop
  endfacet
  facet normal 0 0 1
    outer loop
      vertex -7.23625 3.10937 9
      vertex -7.35875 3.7225 9
      vertex -7.56 2.57062 9
    endloop
  endfacet
  facet normal 0 0 1
    outer loop
      vertex -4.11625 2.38625 9
      vertex -3.10938 2 9
      vertex -1.92188 2.61312 9
    endloop
  endfacet
  facet normal 0 0 1
    outer loop
      vertex -3.10938 2.51 9
      vertex -4.11625 2.38625 9
      vertex -1.92188 2.61312 9
    endloop
  endfacet
  facet normal 0 0 1
    outer loop
      vertex -3.10938 2.51 9
      vertex -3.67875 2.74937 9
      vertex -4.11625 2.38625 9
    endloop
  endfacet
  facet normal 0 0 1
    outer loop
      vertex -2.42 4.58062 9
      vertex -2.15312 3.74312 9
      vertex -1.97062 4.97687 9
    endloop
  endfacet
  facet normal 0 0 1
    outer loop
      vertex -4.02562 7.06812 9
      vertex -3.825 5.11812 9
      vertex -3.58125 6.47562 9
    endloop
  endfacet
  facet normal 0 0 1
    outer loop
      vertex -1.77687 7.06812 9
      vertex -3.58125 6.47562 9
      vertex -1.77687 6.47562 9
    endloop
  endfacet
  facet normal 0 0 1
    outer loop
      vertex -4.02562 7.06812 9
      vertex -3.58125 6.47562 9
      vertex -1.77687 7.06812 9
    endloop
  endfacet
  facet normal 0 0 1
    outer loop
      vertex -4.02562 7.06812 9
      vertex -3.9425 4.39812 9
      vertex -3.825 5.11812 9
    endloop
  endfacet
  facet normal 0 0 1
    outer loop
      vertex -3.825 5.11812 9
      vertex -3.60312 4.75125 9
      vertex -2.97063 5.435 9
    endloop
  endfacet
  facet normal 0 0 1
    outer loop
      vertex -2.97063 5.435 9
      vertex -3.11875 4.88687 9
      vertex -1.97062 4.97687 9
    endloop
  endfacet
  facet normal 0 0 1
    outer loop
      vertex -3.11875 4.88687 9
      vertex -2.42 4.58062 9
      vertex -1.97062 4.97687 9
    endloop
  endfacet
  facet normal 0 0 1
    outer loop
      vertex -3.97937 3.46437 9
      vertex -4.5625 3.40937 9
      vertex -4.11625 2.38625 9
    endloop
  endfacet
  facet normal 0 0 1
    outer loop
      vertex -1.97062 4.97687 9
      vertex -2.15312 3.74312 9
      vertex -1.56375 3.79875 9
    endloop
  endfacet
  facet normal 0 0 1
    outer loop
      vertex -1.56375 3.79875 9
      vertex -2.43062 2.8475 9
      vertex -1.92188 2.61312 9
    endloop
  endfacet
  facet normal 0 0 1
    outer loop
      vertex -2.43062 2.8475 9
      vertex -3.10938 2.51 9
      vertex -1.92188 2.61312 9
    endloop
  endfacet
  facet normal 0 0 1
    outer loop
      vertex -2.15312 3.74312 9
      vertex -2.43062 2.8475 9
      vertex -1.56375 3.79875 9
    endloop
  endfacet
  facet normal 0 0 1
    outer loop
      vertex -3.60312 4.75125 9
      vertex -3.11875 4.88687 9
      vertex -2.97063 5.435 9
    endloop
  endfacet
  facet normal 0 0 1
    outer loop
      vertex -4.46375 4.47375 9
      vertex -3.9425 4.39812 9
      vertex -4.02562 7.06812 9
    endloop
  endfacet
  facet normal 0 0 1
    outer loop
      vertex -3.9425 4.39812 9
      vertex -3.60312 4.75125 9
      vertex -3.825 5.11812 9
    endloop
  endfacet
  facet normal 0 0 1
    outer loop
      vertex -3.67875 2.74937 9
      vertex -3.97937 3.46437 9
      vertex -4.11625 2.38625 9
    endloop
  endfacet
  facet normal -0.980619 -0.195924 0
    outer loop
      vertex -7.23625 3.10937 10
      vertex -7.35875 3.7225 10
      vertex -7.23625 3.10937 9
    endloop
  endfacet
  facet normal -0.980619 -0.195924 0
    outer loop
      vertex -7.23625 3.10937 9
      vertex -7.35875 3.7225 10
      vertex -7.35875 3.7225 9
    endloop
  endfacet
  facet normal -0.948608 0.316453 0
    outer loop
      vertex -7.095 4.51312 10
      vertex -7.095 4.51312 9
      vertex -7.35875 3.7225 10
    endloop
  endfacet
  facet normal -0.948608 0.316453 0
    outer loop
      vertex -7.35875 3.7225 10
      vertex -7.095 4.51312 9
      vertex -7.35875 3.7225 9
    endloop
  endfacet
  facet normal -0.793284 -0.608851 0
    outer loop
      vertex -6.89375 2.66312 10
      vertex -7.23625 3.10937 10
      vertex -6.89375 2.66312 9
    endloop
  endfacet
  facet normal -0.793284 -0.608851 0
    outer loop
      vertex -6.89375 2.66312 9
      vertex -7.23625 3.10937 10
      vertex -7.23625 3.10937 9
    endloop
  endfacet
  facet normal -0.31507 -0.949068 0
    outer loop
      vertex -6.4325 2.51 9
      vertex -6.4325 2.51 10
      vertex -6.89375 2.66312 10
    endloop
  endfacet
  facet normal -0.31507 -0.949068 0
    outer loop
      vertex -6.89375 2.66312 9
      vertex -6.4325 2.51 9
      vertex -6.89375 2.66312 10
    endloop
  endfacet
  facet normal 0.462472 -0.886634 0
    outer loop
      vertex -5.825 2.82687 9
      vertex -5.825 2.82687 10
      vertex -6.4325 2.51 10
    endloop
  endfacet
  facet normal 0.462472 -0.886634 0
    outer loop
      vertex -6.4325 2.51 9
      vertex -5.825 2.82687 9
      vertex -6.4325 2.51 10
    endloop
  endfacet
  facet normal 0.959232 -0.282619 0
    outer loop
      vertex -5.57125 3.68812 9
      vertex -5.57125 3.68812 10
      vertex -5.825 2.82687 10
    endloop
  endfacet
  facet normal 0.959232 -0.282619 0
    outer loop
      vertex -5.825 2.82687 9
      vertex -5.57125 3.68812 9
      vertex -5.825 2.82687 10
    endloop
  endfacet
  facet normal 0.956823 0.290671 0
    outer loop
      vertex -5.82187 4.51312 10
      vertex -5.57125 3.68812 10
      vertex -5.57125 3.68812 9
    endloop
  endfacet
  facet normal 0.956823 0.290671 0
    outer loop
      vertex -5.82187 4.51312 9
      vertex -5.82187 4.51312 10
      vertex -5.57125 3.68812 9
    endloop
  endfacet
  facet normal 0.431076 0.902315 0
    outer loop
      vertex -5.82187 4.51312 10
      vertex -5.82187 4.51312 9
      vertex -6.45375 4.815 10
    endloop
  endfacet
  facet normal 0.431076 0.902315 0
    outer loop
      vertex -6.45375 4.815 10
      vertex -5.82187 4.51312 9
      vertex -6.45375 4.815 9
    endloop
  endfacet
  facet normal -0.425924 0.904759 0
    outer loop
      vertex -6.45375 4.815 10
      vertex -6.45375 4.815 9
      vertex -7.095 4.51312 10
    endloop
  endfacet
  facet normal -0.425924 0.904759 0
    outer loop
      vertex -7.095 4.51312 10
      vertex -6.45375 4.815 9
      vertex -7.095 4.51312 9
    endloop
  endfacet
  facet normal 0 0 1
    outer loop
      vertex -7.095 4.51312 10
      vertex -7.35875 3.7225 10
      vertex -7.23625 3.10937 10
    endloop
  endfacet
  facet normal 0 0 1
    outer loop
      vertex -6.4325 2.51 10
      vertex -7.095 4.51312 10
      vertex -6.89375 2.66312 10
    endloop
  endfacet
  facet normal 0 0 1
    outer loop
      vertex -6.89375 2.66312 10
      vertex -7.095 4.51312 10
      vertex -7.23625 3.10937 10
    endloop
  endfacet
  facet normal 0 0 1
    outer loop
      vertex -5.825 2.82687 10
      vertex -7.095 4.51312 10
      vertex -6.4325 2.51 10
    endloop
  endfacet
  facet normal 0 0 1
    outer loop
      vertex -5.57125 3.68812 10
      vertex -7.095 4.51312 10
      vertex -5.825 2.82687 10
    endloop
  endfacet
  facet normal 0 0 1
    outer loop
      vertex -5.82187 4.51312 10
      vertex -7.095 4.51312 10
      vertex -5.57125 3.68812 10
    endloop
  endfacet
  facet normal 0 0 1
    outer loop
      vertex -6.45375 4.815 10
      vertex -7.095 4.51312 10
      vertex -5.82187 4.51312 10
    endloop
  endfacet
endsolid OpenSCAD_Model
