solid OpenSCAD_Model
  facet normal -1 0 0
    outer loop
      vertex 0 5 0
      vertex 0 5 20
      vertex 0 50 0
    endloop
  endfacet
  facet normal -1 0 0
    outer loop
      vertex 0 50 0
      vertex 0 5 20
      vertex 0 50 20
    endloop
  endfacet
  facet normal -0.980785 -0.19509 0
    outer loop
      vertex 0 5 0
      vertex 0.380602 3.08658 0
      vertex 0 5 20
    endloop
  endfacet
  facet normal -0.980785 -0.19509 0
    outer loop
      vertex 0 5 20
      vertex 0.380602 3.08658 0
      vertex 0.380602 3.08658 20
    endloop
  endfacet
  facet normal 0 0 -1
    outer loop
      vertex 0 5 0
      vertex 0 50 0
      vertex 0.380602 3.08658 0
    endloop
  endfacet
  facet normal 0 0 -1
    outer loop
      vertex 0.380602 3.08658 0
      vertex 0 50 0
      vertex 0.380602 51.9134 0
    endloop
  endfacet
  facet normal 0 0 -1
    outer loop
      vertex 1.11623 46.9856 0
      vertex 0.380602 51.9134 0
      vertex 1.46447 53.5355 0
    endloop
  endfacet
  facet normal 0 0 -1
    outer loop
      vertex 1.46447 46.4645 0
      vertex 1.46447 53.5355 0
      vertex 3.08658 54.6194 0
    endloop
  endfacet
  facet normal 0 0 -1
    outer loop
      vertex 3.08658 45.3806 0
      vertex 3.08658 54.6194 0
      vertex 5 55 0
    endloop
  endfacet
  facet normal 0 0 -1
    outer loop
      vertex 5 45 0
      vertex 5 55 0
      vertex 6.91342 54.6194 0
    endloop
  endfacet
  facet normal 0 0 -1
    outer loop
      vertex 6.91342 45.3806 0
      vertex 6.91342 54.6194 0
      vertex 8.53553 53.5355 0
    endloop
  endfacet
  facet normal 0 0 -1
    outer loop
      vertex 8.53553 46.4645 0
      vertex 8.53553 53.5355 0
      vertex 9.6194 51.9134 0
    endloop
  endfacet
  facet normal 0 0 -1
    outer loop
      vertex 36.6691 9.668 0
      vertex 9.6194 51.9134 0
      vertex 39.6194 6.91342 0
    endloop
  endfacet
  facet normal 0 0 -1
    outer loop
      vertex 30 5 0
      vertex 39.6194 6.91342 0
      vertex 40 5 0
    endloop
  endfacet
  facet normal 0 0 -1
    outer loop
      vertex 8.53553 1.46447 0
      vertex 0.380602 3.08658 0
      vertex 9.6194 3.08658 0
    endloop
  endfacet
  facet normal 0 0 -1
    outer loop
      vertex 30.3806 3.08658 0
      vertex 39.6194 3.08658 0
      vertex 38.5355 1.46447 0
    endloop
  endfacet
  facet normal 0 0 -1
    outer loop
      vertex 32.1159 1.02917 0
      vertex 38.5355 1.46447 0
      vertex 36.9134 0.380602 0
    endloop
  endfacet
  facet normal 0 0 -1
    outer loop
      vertex 32.1159 1.02917 0
      vertex 35 0 0
      vertex 7.88406 1.02917 0
    endloop
  endfacet
  facet normal 0 0 -1
    outer loop
      vertex 7.88406 1.02917 0
      vertex 35 0 0
      vertex 5 0 0
    endloop
  endfacet
  facet normal 0 0 -1
    outer loop
      vertex 0.380602 3.08658 0
      vertex 5 0 0
      vertex 3.08658 0.380602 0
    endloop
  endfacet
  facet normal 0 0 -1
    outer loop
      vertex 0.380602 3.08658 0
      vertex 3.08658 0.380602 0
      vertex 1.46447 1.46447 0
    endloop
  endfacet
  facet normal 0 0 -1
    outer loop
      vertex 0.380602 3.08658 0
      vertex 0.380602 51.9134 0
      vertex 1.11623 46.9856 0
    endloop
  endfacet
  facet normal 0 0 -1
    outer loop
      vertex 1.11623 8.01437 0
      vertex 0.380602 3.08658 0
      vertex 1.11623 46.9856 0
    endloop
  endfacet
  facet normal 0 0 -1
    outer loop
      vertex 1.46447 8.53553 0
      vertex 0.380602 3.08658 0
      vertex 1.11623 8.01437 0
    endloop
  endfacet
  facet normal 0 0 -1
    outer loop
      vertex 8.53553 8.53553 0
      vertex 3.08658 9.6194 0
      vertex 6.91342 9.6194 0
    endloop
  endfacet
  facet normal 0 0 -1
    outer loop
      vertex 9.6194 3.08658 0
      vertex 0.380602 3.08658 0
      vertex 10 5 0
    endloop
  endfacet
  facet normal 0 0 -1
    outer loop
      vertex 9.6194 6.91342 0
      vertex 1.46447 8.53553 0
      vertex 8.53553 8.53553 0
    endloop
  endfacet
  facet normal 0 0 -1
    outer loop
      vertex 3.08658 9.6194 0
      vertex 5 10 0
      vertex 6.91342 9.6194 0
    endloop
  endfacet
  facet normal 0 0 -1
    outer loop
      vertex 1.46447 8.53553 0
      vertex 3.08658 9.6194 0
      vertex 8.53553 8.53553 0
    endloop
  endfacet
  facet normal 0 0 -1
    outer loop
      vertex 30.3806 6.91342 0
      vertex 39.6194 6.91342 0
      vertex 30 5 0
    endloop
  endfacet
  facet normal 0 0 -1
    outer loop
      vertex 0.380602 3.08658 0
      vertex 1.46447 8.53553 0
      vertex 9.6194 6.91342 0
    endloop
  endfacet
  facet normal 0 0 -1
    outer loop
      vertex 0.380602 3.08658 0
      vertex 9.6194 6.91342 0
      vertex 10 5 0
    endloop
  endfacet
  facet normal 0 0 -1
    outer loop
      vertex 30.3806 3.08658 0
      vertex 38.5355 1.46447 0
      vertex 31.4645 1.46447 0
    endloop
  endfacet
  facet normal 0 0 -1
    outer loop
      vertex 32.1159 1.02917 0
      vertex 36.9134 0.380602 0
      vertex 35 0 0
    endloop
  endfacet
  facet normal 0 0 -1
    outer loop
      vertex 0.380602 3.08658 0
      vertex 8.53553 1.46447 0
      vertex 5 0 0
    endloop
  endfacet
  facet normal 0 0 -1
    outer loop
      vertex 8.53553 1.46447 0
      vertex 7.88406 1.02917 0
      vertex 5 0 0
    endloop
  endfacet
  facet normal 0 0 -1
    outer loop
      vertex 31.4645 1.46447 0
      vertex 38.5355 1.46447 0
      vertex 32.1159 1.02917 0
    endloop
  endfacet
  facet normal 0 0 -1
    outer loop
      vertex 40 5 0
      vertex 39.6194 3.08658 0
      vertex 30.3806 3.08658 0
    endloop
  endfacet
  facet normal 0 0 -1
    outer loop
      vertex 30 5 0
      vertex 40 5 0
      vertex 30.3806 3.08658 0
    endloop
  endfacet
  facet normal 0 0 -1
    outer loop
      vertex 31.4645 8.53553 0
      vertex 39.6194 6.91342 0
      vertex 30.3806 6.91342 0
    endloop
  endfacet
  facet normal 0 0 -1
    outer loop
      vertex 8.53553 46.4645 0
      vertex 9.6194 51.9134 0
      vertex 9.6194 48.0866 0
    endloop
  endfacet
  facet normal 0 0 -1
    outer loop
      vertex 9.94969 49.7471 0
      vertex 9.6194 51.9134 0
      vertex 36.6691 9.668 0
    endloop
  endfacet
  facet normal 0 0 -1
    outer loop
      vertex 31.4645 8.53553 0
      vertex 33.0866 9.6194 0
      vertex 39.6194 6.91342 0
    endloop
  endfacet
  facet normal 0 0 -1
    outer loop
      vertex 33.0866 9.6194 0
      vertex 35 10 0
      vertex 39.6194 6.91342 0
    endloop
  endfacet
  facet normal 0 0 -1
    outer loop
      vertex 35 10 0
      vertex 36.6691 9.668 0
      vertex 39.6194 6.91342 0
    endloop
  endfacet
  facet normal 0 0 -1
    outer loop
      vertex 9.6194 48.0866 0
      vertex 9.6194 51.9134 0
      vertex 9.94969 49.7471 0
    endloop
  endfacet
  facet normal 0 0 -1
    outer loop
      vertex 5 45 0
      vertex 6.91342 54.6194 0
      vertex 6.91342 45.3806 0
    endloop
  endfacet
  facet normal 0 0 -1
    outer loop
      vertex 6.91342 45.3806 0
      vertex 8.53553 53.5355 0
      vertex 8.53553 46.4645 0
    endloop
  endfacet
  facet normal 0 0 -1
    outer loop
      vertex 1.46447 46.4645 0
      vertex 3.08658 54.6194 0
      vertex 3.08658 45.3806 0
    endloop
  endfacet
  facet normal 0 0 -1
    outer loop
      vertex 1.11623 46.9856 0
      vertex 1.46447 53.5355 0
      vertex 1.46447 46.4645 0
    endloop
  endfacet
  facet normal 0 0 -1
    outer loop
      vertex 3.08658 45.3806 0
      vertex 5 55 0
      vertex 5 45 0
    endloop
  endfacet
  facet normal -0.980785 0.19509 0
    outer loop
      vertex 0 50 0
      vertex 0 50 20
      vertex 0.380602 51.9134 0
    endloop
  endfacet
  facet normal -0.980785 0.19509 0
    outer loop
      vertex 0.380602 51.9134 0
      vertex 0 50 20
      vertex 0.380602 51.9134 20
    endloop
  endfacet
  facet normal 0 0 1
    outer loop
      vertex 0 50 20
      vertex 0 5 20
      vertex 0.380602 3.08658 20
    endloop
  endfacet
  facet normal 0 0 1
    outer loop
      vertex 1.11623 8.01437 20
      vertex 0 50 20
      vertex 0.380602 3.08658 20
    endloop
  endfacet
  facet normal 0 0 1
    outer loop
      vertex 9.94969 49.7471 20
      vertex 36.6691 9.668 20
      vertex 39.6194 6.91342 20
    endloop
  endfacet
  facet normal 0 0 1
    outer loop
      vertex 8.53553 53.5355 20
      vertex 0 50 20
      vertex 9.6194 51.9134 20
    endloop
  endfacet
  facet normal 0 0 1
    outer loop
      vertex 6.91342 54.6194 20
      vertex 0 50 20
      vertex 8.53553 53.5355 20
    endloop
  endfacet
  facet normal 0 0 1
    outer loop
      vertex 5 55 20
      vertex 0 50 20
      vertex 6.91342 54.6194 20
    endloop
  endfacet
  facet normal 0 0 1
    outer loop
      vertex 3.08658 54.6194 20
      vertex 0 50 20
      vertex 5 55 20
    endloop
  endfacet
  facet normal 0 0 1
    outer loop
      vertex 1.46447 53.5355 20
      vertex 0 50 20
      vertex 3.08658 54.6194 20
    endloop
  endfacet
  facet normal 0 0 1
    outer loop
      vertex 0.380602 51.9134 20
      vertex 0 50 20
      vertex 1.46447 53.5355 20
    endloop
  endfacet
  facet normal 0 0 1
    outer loop
      vertex 1.46447 1.46447 20
      vertex 1.11623 8.01437 20
      vertex 0.380602 3.08658 20
    endloop
  endfacet
  facet normal 0 0 1
    outer loop
      vertex 3.08658 9.6194 20
      vertex 1.46447 8.53553 20
      vertex 3.08658 0.380602 20
    endloop
  endfacet
  facet normal 0 0 1
    outer loop
      vertex 3.08658 45.3806 20
      vertex 0 50 20
      vertex 1.11623 46.9856 20
    endloop
  endfacet
  facet normal 0 0 1
    outer loop
      vertex 35 10 20
      vertex 33.0866 9.6194 20
      vertex 39.6194 3.08658 20
    endloop
  endfacet
  facet normal 0 0 1
    outer loop
      vertex 36.6691 9.668 20
      vertex 35 10 20
      vertex 40 5 20
    endloop
  endfacet
  facet normal 0 0 1
    outer loop
      vertex 9.6194 51.9134 20
      vertex 0 50 20
      vertex 5 45 20
    endloop
  endfacet
  facet normal 0 0 1
    outer loop
      vertex 30.3806 6.91342 20
      vertex 30 5 20
      vertex 35 0 20
    endloop
  endfacet
  facet normal 0 0 1
    outer loop
      vertex 9.6194 51.9134 20
      vertex 5 45 20
      vertex 6.91342 45.3806 20
    endloop
  endfacet
  facet normal 0 0 1
    outer loop
      vertex 32.1159 1.02917 20
      vertex 7.88406 1.02917 20
      vertex 5 0 20
    endloop
  endfacet
  facet normal 0 0 1
    outer loop
      vertex 9.6194 51.9134 20
      vertex 6.91342 45.3806 20
      vertex 8.53553 46.4645 20
    endloop
  endfacet
  facet normal 0 0 1
    outer loop
      vertex 9.6194 51.9134 20
      vertex 8.53553 46.4645 20
      vertex 9.6194 48.0866 20
    endloop
  endfacet
  facet normal 0 0 1
    outer loop
      vertex 9.6194 51.9134 20
      vertex 9.94969 49.7471 20
      vertex 39.6194 6.91342 20
    endloop
  endfacet
  facet normal 0 0 1
    outer loop
      vertex 9.6194 51.9134 20
      vertex 9.6194 48.0866 20
      vertex 9.94969 49.7471 20
    endloop
  endfacet
  facet normal 0 0 1
    outer loop
      vertex 39.6194 6.91342 20
      vertex 36.6691 9.668 20
      vertex 40 5 20
    endloop
  endfacet
  facet normal 0 0 1
    outer loop
      vertex 40 5 20
      vertex 35 10 20
      vertex 39.6194 3.08658 20
    endloop
  endfacet
  facet normal 0 0 1
    outer loop
      vertex 39.6194 3.08658 20
      vertex 33.0866 9.6194 20
      vertex 38.5355 1.46447 20
    endloop
  endfacet
  facet normal 0 0 1
    outer loop
      vertex 38.5355 1.46447 20
      vertex 31.4645 8.53553 20
      vertex 36.9134 0.380602 20
    endloop
  endfacet
  facet normal 0 0 1
    outer loop
      vertex 36.9134 0.380602 20
      vertex 30.3806 6.91342 20
      vertex 35 0 20
    endloop
  endfacet
  facet normal 0 0 1
    outer loop
      vertex 9.6194 6.91342 20
      vertex 9.6194 3.08658 20
      vertex 10 5 20
    endloop
  endfacet
  facet normal 0 0 1
    outer loop
      vertex 9.6194 6.91342 20
      vertex 8.53553 8.53553 20
      vertex 9.6194 3.08658 20
    endloop
  endfacet
  facet normal 0 0 1
    outer loop
      vertex 35 0 20
      vertex 30 5 20
      vertex 30.3806 3.08658 20
    endloop
  endfacet
  facet normal 0 0 1
    outer loop
      vertex 35 0 20
      vertex 30.3806 3.08658 20
      vertex 31.4645 1.46447 20
    endloop
  endfacet
  facet normal 0 0 1
    outer loop
      vertex 35 0 20
      vertex 32.1159 1.02917 20
      vertex 5 0 20
    endloop
  endfacet
  facet normal 0 0 1
    outer loop
      vertex 35 0 20
      vertex 31.4645 1.46447 20
      vertex 32.1159 1.02917 20
    endloop
  endfacet
  facet normal 0 0 1
    outer loop
      vertex 6.91342 9.6194 20
      vertex 5 10 20
      vertex 7.88406 1.02917 20
    endloop
  endfacet
  facet normal 0 0 1
    outer loop
      vertex 8.53553 8.53553 20
      vertex 6.91342 9.6194 20
      vertex 8.53553 1.46447 20
    endloop
  endfacet
  facet normal 0 0 1
    outer loop
      vertex 5 10 20
      vertex 3.08658 9.6194 20
      vertex 5 0 20
    endloop
  endfacet
  facet normal 0 0 1
    outer loop
      vertex 9.6194 3.08658 20
      vertex 8.53553 8.53553 20
      vertex 8.53553 1.46447 20
    endloop
  endfacet
  facet normal 0 0 1
    outer loop
      vertex 8.53553 1.46447 20
      vertex 6.91342 9.6194 20
      vertex 7.88406 1.02917 20
    endloop
  endfacet
  facet normal 0 0 1
    outer loop
      vertex 7.88406 1.02917 20
      vertex 5 10 20
      vertex 5 0 20
    endloop
  endfacet
  facet normal 0 0 1
    outer loop
      vertex 5 0 20
      vertex 3.08658 9.6194 20
      vertex 3.08658 0.380602 20
    endloop
  endfacet
  facet normal 0 0 1
    outer loop
      vertex 1.46447 46.4645 20
      vertex 3.08658 45.3806 20
      vertex 1.11623 46.9856 20
    endloop
  endfacet
  facet normal 0 0 1
    outer loop
      vertex 3.08658 0.380602 20
      vertex 1.46447 8.53553 20
      vertex 1.46447 1.46447 20
    endloop
  endfacet
  facet normal 0 0 1
    outer loop
      vertex 33.0866 9.6194 20
      vertex 31.4645 8.53553 20
      vertex 38.5355 1.46447 20
    endloop
  endfacet
  facet normal 0 0 1
    outer loop
      vertex 1.46447 8.53553 20
      vertex 1.11623 8.01437 20
      vertex 1.46447 1.46447 20
    endloop
  endfacet
  facet normal 0 0 1
    outer loop
      vertex 1.11623 8.01437 20
      vertex 1.11623 46.9856 20
      vertex 0 50 20
    endloop
  endfacet
  facet normal 0 0 1
    outer loop
      vertex 31.4645 8.53553 20
      vertex 30.3806 6.91342 20
      vertex 36.9134 0.380602 20
    endloop
  endfacet
  facet normal 0 0 1
    outer loop
      vertex 3.08658 45.3806 20
      vertex 5 45 20
      vertex 0 50 20
    endloop
  endfacet
  facet normal -0.83147 -0.55557 0
    outer loop
      vertex 0.380602 3.08658 0
      vertex 1.46447 1.46447 0
      vertex 0.380602 3.08658 20
    endloop
  endfacet
  facet normal -0.83147 -0.55557 0
    outer loop
      vertex 0.380602 3.08658 20
      vertex 1.46447 1.46447 0
      vertex 1.46447 1.46447 20
    endloop
  endfacet
  facet normal -0.55557 -0.83147 0
    outer loop
      vertex 1.46447 1.46447 20
      vertex 1.46447 1.46447 0
      vertex 3.08658 0.380602 0
    endloop
  endfacet
  facet normal -0.55557 -0.83147 0
    outer loop
      vertex 3.08658 0.380602 20
      vertex 1.46447 1.46447 20
      vertex 3.08658 0.380602 0
    endloop
  endfacet
  facet normal -0.19509 -0.980785 0
    outer loop
      vertex 3.08658 0.380602 20
      vertex 3.08658 0.380602 0
      vertex 5 0 0
    endloop
  endfacet
  facet normal -0.19509 -0.980785 0
    outer loop
      vertex 5 0 20
      vertex 3.08658 0.380602 20
      vertex 5 0 0
    endloop
  endfacet
  facet normal 0 -1 0
    outer loop
      vertex 5 0 20
      vertex 5 0 0
      vertex 35 0 0
    endloop
  endfacet
  facet normal 0 -1 0
    outer loop
      vertex 35 0 20
      vertex 5 0 20
      vertex 35 0 0
    endloop
  endfacet
  facet normal 0.19509 -0.980785 0
    outer loop
      vertex 35 0 20
      vertex 35 0 0
      vertex 36.9134 0.380602 0
    endloop
  endfacet
  facet normal 0.19509 -0.980785 0
    outer loop
      vertex 36.9134 0.380602 20
      vertex 35 0 20
      vertex 36.9134 0.380602 0
    endloop
  endfacet
  facet normal 0.55557 -0.83147 0
    outer loop
      vertex 36.9134 0.380602 20
      vertex 36.9134 0.380602 0
      vertex 38.5355 1.46447 0
    endloop
  endfacet
  facet normal 0.55557 -0.83147 0
    outer loop
      vertex 38.5355 1.46447 20
      vertex 36.9134 0.380602 20
      vertex 38.5355 1.46447 0
    endloop
  endfacet
  facet normal 0.83147 -0.55557 0
    outer loop
      vertex 38.5355 1.46447 20
      vertex 38.5355 1.46447 0
      vertex 39.6194 3.08658 0
    endloop
  endfacet
  facet normal 0.83147 -0.55557 0
    outer loop
      vertex 39.6194 3.08658 20
      vertex 38.5355 1.46447 20
      vertex 39.6194 3.08658 0
    endloop
  endfacet
  facet normal 0.980785 -0.19509 0
    outer loop
      vertex 39.6194 3.08658 20
      vertex 39.6194 3.08658 0
      vertex 40 5 0
    endloop
  endfacet
  facet normal 0.980785 -0.19509 0
    outer loop
      vertex 40 5 20
      vertex 39.6194 3.08658 20
      vertex 40 5 0
    endloop
  endfacet
  facet normal 0.980785 0.19509 0
    outer loop
      vertex 40 5 0
      vertex 39.6194 6.91342 0
      vertex 39.6194 6.91342 20
    endloop
  endfacet
  facet normal 0.980785 0.19509 0
    outer loop
      vertex 40 5 20
      vertex 40 5 0
      vertex 39.6194 6.91342 20
    endloop
  endfacet
  facet normal 0.83205 0.5547 0
    outer loop
      vertex 39.6194 6.91342 0
      vertex 9.6194 51.9134 0
      vertex 9.6194 51.9134 20
    endloop
  endfacet
  facet normal 0.83205 0.5547 0
    outer loop
      vertex 39.6194 6.91342 20
      vertex 39.6194 6.91342 0
      vertex 9.6194 51.9134 20
    endloop
  endfacet
  facet normal 0.83147 0.55557 0
    outer loop
      vertex 9.6194 51.9134 0
      vertex 8.53553 53.5355 0
      vertex 8.53553 53.5355 20
    endloop
  endfacet
  facet normal 0.83147 0.55557 0
    outer loop
      vertex 9.6194 51.9134 20
      vertex 9.6194 51.9134 0
      vertex 8.53553 53.5355 20
    endloop
  endfacet
  facet normal 0.55557 0.83147 0
    outer loop
      vertex 6.91342 54.6194 0
      vertex 6.91342 54.6194 20
      vertex 8.53553 53.5355 0
    endloop
  endfacet
  facet normal 0.55557 0.83147 0
    outer loop
      vertex 8.53553 53.5355 0
      vertex 6.91342 54.6194 20
      vertex 8.53553 53.5355 20
    endloop
  endfacet
  facet normal 0.19509 0.980785 0
    outer loop
      vertex 5 55 0
      vertex 5 55 20
      vertex 6.91342 54.6194 0
    endloop
  endfacet
  facet normal 0.19509 0.980785 0
    outer loop
      vertex 6.91342 54.6194 0
      vertex 5 55 20
      vertex 6.91342 54.6194 20
    endloop
  endfacet
  facet normal -0.19509 0.980785 0
    outer loop
      vertex 3.08658 54.6194 0
      vertex 3.08658 54.6194 20
      vertex 5 55 0
    endloop
  endfacet
  facet normal -0.19509 0.980785 0
    outer loop
      vertex 5 55 0
      vertex 3.08658 54.6194 20
      vertex 5 55 20
    endloop
  endfacet
  facet normal -0.55557 0.83147 0
    outer loop
      vertex 1.46447 53.5355 0
      vertex 1.46447 53.5355 20
      vertex 3.08658 54.6194 0
    endloop
  endfacet
  facet normal -0.55557 0.83147 0
    outer loop
      vertex 3.08658 54.6194 0
      vertex 1.46447 53.5355 20
      vertex 3.08658 54.6194 20
    endloop
  endfacet
  facet normal -0.83147 0.55557 0
    outer loop
      vertex 0.380602 51.9134 0
      vertex 0.380602 51.9134 20
      vertex 1.46447 53.5355 0
    endloop
  endfacet
  facet normal -0.83147 0.55557 0
    outer loop
      vertex 1.46447 53.5355 0
      vertex 0.380602 51.9134 20
      vertex 1.46447 53.5355 20
    endloop
  endfacet
  facet normal 1 0 0
    outer loop
      vertex 1.11623 46.9856 0
      vertex 1.11623 46.9856 20
      vertex 1.11623 8.01437 20
    endloop
  endfacet
  facet normal 1 0 0
    outer loop
      vertex 1.11623 8.01437 0
      vertex 1.11623 46.9856 0
      vertex 1.11623 8.01437 20
    endloop
  endfacet
  facet normal -0.83147 -0.55557 0
    outer loop
      vertex 1.11623 46.9856 0
      vertex 1.46447 46.4645 0
      vertex 1.11623 46.9856 20
    endloop
  endfacet
  facet normal -0.83147 -0.55557 0
    outer loop
      vertex 1.11623 46.9856 20
      vertex 1.46447 46.4645 0
      vertex 1.46447 46.4645 20
    endloop
  endfacet
  facet normal -0.55557 -0.83147 0
    outer loop
      vertex 1.46447 46.4645 20
      vertex 1.46447 46.4645 0
      vertex 3.08658 45.3806 0
    endloop
  endfacet
  facet normal -0.55557 -0.83147 0
    outer loop
      vertex 3.08658 45.3806 20
      vertex 1.46447 46.4645 20
      vertex 3.08658 45.3806 0
    endloop
  endfacet
  facet normal -0.19509 -0.980785 0
    outer loop
      vertex 3.08658 45.3806 20
      vertex 3.08658 45.3806 0
      vertex 5 45 0
    endloop
  endfacet
  facet normal -0.19509 -0.980785 0
    outer loop
      vertex 5 45 20
      vertex 3.08658 45.3806 20
      vertex 5 45 0
    endloop
  endfacet
  facet normal 0.19509 -0.980785 0
    outer loop
      vertex 5 45 20
      vertex 5 45 0
      vertex 6.91342 45.3806 0
    endloop
  endfacet
  facet normal 0.19509 -0.980785 0
    outer loop
      vertex 6.91342 45.3806 20
      vertex 5 45 20
      vertex 6.91342 45.3806 0
    endloop
  endfacet
  facet normal 0.55557 -0.83147 0
    outer loop
      vertex 6.91342 45.3806 20
      vertex 6.91342 45.3806 0
      vertex 8.53553 46.4645 0
    endloop
  endfacet
  facet normal 0.55557 -0.83147 0
    outer loop
      vertex 8.53553 46.4645 20
      vertex 6.91342 45.3806 20
      vertex 8.53553 46.4645 0
    endloop
  endfacet
  facet normal 0.83147 -0.55557 0
    outer loop
      vertex 8.53553 46.4645 20
      vertex 8.53553 46.4645 0
      vertex 9.6194 48.0866 0
    endloop
  endfacet
  facet normal 0.83147 -0.55557 0
    outer loop
      vertex 9.6194 48.0866 20
      vertex 8.53553 46.4645 20
      vertex 9.6194 48.0866 0
    endloop
  endfacet
  facet normal 0.980785 -0.19509 0
    outer loop
      vertex 9.6194 48.0866 20
      vertex 9.6194 48.0866 0
      vertex 9.94969 49.7471 0
    endloop
  endfacet
  facet normal 0.980785 -0.19509 0
    outer loop
      vertex 9.94969 49.7471 20
      vertex 9.6194 48.0866 20
      vertex 9.94969 49.7471 0
    endloop
  endfacet
  facet normal -0.83205 -0.5547 0
    outer loop
      vertex 36.6691 9.668 20
      vertex 9.94969 49.7471 20
      vertex 36.6691 9.668 0
    endloop
  endfacet
  facet normal -0.83205 -0.5547 0
    outer loop
      vertex 36.6691 9.668 0
      vertex 9.94969 49.7471 20
      vertex 9.94969 49.7471 0
    endloop
  endfacet
  facet normal 0.19509 0.980785 0
    outer loop
      vertex 35 10 0
      vertex 35 10 20
      vertex 36.6691 9.668 0
    endloop
  endfacet
  facet normal 0.19509 0.980785 0
    outer loop
      vertex 36.6691 9.668 0
      vertex 35 10 20
      vertex 36.6691 9.668 20
    endloop
  endfacet
  facet normal -0.19509 0.980785 0
    outer loop
      vertex 33.0866 9.6194 0
      vertex 33.0866 9.6194 20
      vertex 35 10 0
    endloop
  endfacet
  facet normal -0.19509 0.980785 0
    outer loop
      vertex 35 10 0
      vertex 33.0866 9.6194 20
      vertex 35 10 20
    endloop
  endfacet
  facet normal -0.55557 0.83147 0
    outer loop
      vertex 31.4645 8.53553 0
      vertex 31.4645 8.53553 20
      vertex 33.0866 9.6194 0
    endloop
  endfacet
  facet normal -0.55557 0.83147 0
    outer loop
      vertex 33.0866 9.6194 0
      vertex 31.4645 8.53553 20
      vertex 33.0866 9.6194 20
    endloop
  endfacet
  facet normal -0.83147 0.55557 0
    outer loop
      vertex 30.3806 6.91342 0
      vertex 30.3806 6.91342 20
      vertex 31.4645 8.53553 0
    endloop
  endfacet
  facet normal -0.83147 0.55557 0
    outer loop
      vertex 31.4645 8.53553 0
      vertex 30.3806 6.91342 20
      vertex 31.4645 8.53553 20
    endloop
  endfacet
  facet normal -0.980785 0.19509 0
    outer loop
      vertex 30 5 0
      vertex 30 5 20
      vertex 30.3806 6.91342 0
    endloop
  endfacet
  facet normal -0.980785 0.19509 0
    outer loop
      vertex 30.3806 6.91342 0
      vertex 30 5 20
      vertex 30.3806 6.91342 20
    endloop
  endfacet
  facet normal -0.980785 -0.19509 0
    outer loop
      vertex 30 5 0
      vertex 30.3806 3.08658 0
      vertex 30 5 20
    endloop
  endfacet
  facet normal -0.980785 -0.19509 0
    outer loop
      vertex 30 5 20
      vertex 30.3806 3.08658 0
      vertex 30.3806 3.08658 20
    endloop
  endfacet
  facet normal -0.83147 -0.55557 0
    outer loop
      vertex 30.3806 3.08658 0
      vertex 31.4645 1.46447 0
      vertex 30.3806 3.08658 20
    endloop
  endfacet
  facet normal -0.83147 -0.55557 0
    outer loop
      vertex 30.3806 3.08658 20
      vertex 31.4645 1.46447 0
      vertex 31.4645 1.46447 20
    endloop
  endfacet
  facet normal -0.55557 -0.83147 0
    outer loop
      vertex 31.4645 1.46447 20
      vertex 31.4645 1.46447 0
      vertex 32.1159 1.02917 0
    endloop
  endfacet
  facet normal -0.55557 -0.83147 0
    outer loop
      vertex 32.1159 1.02917 20
      vertex 31.4645 1.46447 20
      vertex 32.1159 1.02917 0
    endloop
  endfacet
  facet normal 0 1 0
    outer loop
      vertex 32.1159 1.02917 20
      vertex 32.1159 1.02917 0
      vertex 7.88406 1.02917 20
    endloop
  endfacet
  facet normal 0 1 0
    outer loop
      vertex 7.88406 1.02917 20
      vertex 32.1159 1.02917 0
      vertex 7.88406 1.02917 0
    endloop
  endfacet
  facet normal 0.55557 -0.83147 0
    outer loop
      vertex 7.88406 1.02917 20
      vertex 7.88406 1.02917 0
      vertex 8.53553 1.46447 0
    endloop
  endfacet
  facet normal 0.55557 -0.83147 0
    outer loop
      vertex 8.53553 1.46447 20
      vertex 7.88406 1.02917 20
      vertex 8.53553 1.46447 0
    endloop
  endfacet
  facet normal 0.83147 -0.55557 0
    outer loop
      vertex 8.53553 1.46447 20
      vertex 8.53553 1.46447 0
      vertex 9.6194 3.08658 0
    endloop
  endfacet
  facet normal 0.83147 -0.55557 0
    outer loop
      vertex 9.6194 3.08658 20
      vertex 8.53553 1.46447 20
      vertex 9.6194 3.08658 0
    endloop
  endfacet
  facet normal 0.980785 -0.19509 0
    outer loop
      vertex 9.6194 3.08658 20
      vertex 9.6194 3.08658 0
      vertex 10 5 0
    endloop
  endfacet
  facet normal 0.980785 -0.19509 0
    outer loop
      vertex 10 5 20
      vertex 9.6194 3.08658 20
      vertex 10 5 0
    endloop
  endfacet
  facet normal 0.980785 0.19509 0
    outer loop
      vertex 10 5 0
      vertex 9.6194 6.91342 0
      vertex 9.6194 6.91342 20
    endloop
  endfacet
  facet normal 0.980785 0.19509 0
    outer loop
      vertex 10 5 20
      vertex 10 5 0
      vertex 9.6194 6.91342 20
    endloop
  endfacet
  facet normal 0.83147 0.55557 0
    outer loop
      vertex 9.6194 6.91342 0
      vertex 8.53553 8.53553 0
      vertex 8.53553 8.53553 20
    endloop
  endfacet
  facet normal 0.83147 0.55557 0
    outer loop
      vertex 9.6194 6.91342 20
      vertex 9.6194 6.91342 0
      vertex 8.53553 8.53553 20
    endloop
  endfacet
  facet normal 0.55557 0.83147 0
    outer loop
      vertex 6.91342 9.6194 0
      vertex 6.91342 9.6194 20
      vertex 8.53553 8.53553 0
    endloop
  endfacet
  facet normal 0.55557 0.83147 0
    outer loop
      vertex 8.53553 8.53553 0
      vertex 6.91342 9.6194 20
      vertex 8.53553 8.53553 20
    endloop
  endfacet
  facet normal 0.19509 0.980785 0
    outer loop
      vertex 5 10 0
      vertex 5 10 20
      vertex 6.91342 9.6194 0
    endloop
  endfacet
  facet normal 0.19509 0.980785 0
    outer loop
      vertex 6.91342 9.6194 0
      vertex 5 10 20
      vertex 6.91342 9.6194 20
    endloop
  endfacet
  facet normal -0.19509 0.980785 0
    outer loop
      vertex 3.08658 9.6194 0
      vertex 3.08658 9.6194 20
      vertex 5 10 0
    endloop
  endfacet
  facet normal -0.19509 0.980785 0
    outer loop
      vertex 5 10 0
      vertex 3.08658 9.6194 20
      vertex 5 10 20
    endloop
  endfacet
  facet normal -0.55557 0.83147 0
    outer loop
      vertex 1.46447 8.53553 0
      vertex 1.46447 8.53553 20
      vertex 3.08658 9.6194 0
    endloop
  endfacet
  facet normal -0.55557 0.83147 0
    outer loop
      vertex 3.08658 9.6194 0
      vertex 1.46447 8.53553 20
      vertex 3.08658 9.6194 20
    endloop
  endfacet
  facet normal -0.83147 0.55557 0
    outer loop
      vertex 1.11623 8.01437 0
      vertex 1.11623 8.01437 20
      vertex 1.46447 8.53553 0
    endloop
  endfacet
  facet normal -0.83147 0.55557 0
    outer loop
      vertex 1.46447 8.53553 0
      vertex 1.11623 8.01437 20
      vertex 1.46447 8.53553 20
    endloop
  endfacet
endsolid OpenSCAD_Model
