solid OpenSCAD_Model
  facet normal -1 0 0
    outer loop
      vertex -10 0 20
      vertex -10 0 30
      vertex -10 10 20
    endloop
  endfacet
  facet normal -1 0 0
    outer loop
      vertex -10 10 20
      vertex -10 0 30
      vertex -10 10 30
    endloop
  endfacet
  facet normal 0 -1 0
    outer loop
      vertex 20 0 20
      vertex 30 0 20
      vertex -10 0 30
    endloop
  endfacet
  facet normal 0 -1 0
    outer loop
      vertex -10 0 30
      vertex -10 0 20
      vertex 0 0 20
    endloop
  endfacet
  facet normal 0 -1 0
    outer loop
      vertex 10 0 20
      vertex -10 0 30
      vertex 0 0 20
    endloop
  endfacet
  facet normal 0 -1 0
    outer loop
      vertex 0 0 0
      vertex 10 0 0
      vertex 0 0 20
    endloop
  endfacet
  facet normal 0 -1 0
    outer loop
      vertex 10 0 0
      vertex 10 0 20
      vertex 0 0 20
    endloop
  endfacet
  facet normal 0 -1 0
    outer loop
      vertex 40 0 20
      vertex 50 0 20
      vertex -10 0 30
    endloop
  endfacet
  facet normal 0 -1 0
    outer loop
      vertex 10 0 20
      vertex 20 0 20
      vertex -10 0 30
    endloop
  endfacet
  facet normal 0 -1 0
    outer loop
      vertex 20 0 0
      vertex 30 0 0
      vertex 20 0 20
    endloop
  endfacet
  facet normal 0 -1 0
    outer loop
      vertex 30 0 0
      vertex 30 0 20
      vertex 20 0 20
    endloop
  endfacet
  facet normal 0 -1 0
    outer loop
      vertex 60 0 20
      vertex 70 0 20
      vertex -10 0 30
    endloop
  endfacet
  facet normal 0 -1 0
    outer loop
      vertex 30 0 20
      vertex 40 0 20
      vertex -10 0 30
    endloop
  endfacet
  facet normal 0 -1 0
    outer loop
      vertex 40 0 0
      vertex 50 0 0
      vertex 40 0 20
    endloop
  endfacet
  facet normal 0 -1 0
    outer loop
      vertex 50 0 0
      vertex 50 0 20
      vertex 40 0 20
    endloop
  endfacet
  facet normal 0 -1 0
    outer loop
      vertex 80 0 20
      vertex 90 0 20
      vertex -10 0 30
    endloop
  endfacet
  facet normal 0 -1 0
    outer loop
      vertex 50 0 20
      vertex 60 0 20
      vertex -10 0 30
    endloop
  endfacet
  facet normal 0 -1 0
    outer loop
      vertex 60 0 0
      vertex 70 0 0
      vertex 60 0 20
    endloop
  endfacet
  facet normal 0 -1 0
    outer loop
      vertex 70 0 0
      vertex 70 0 20
      vertex 60 0 20
    endloop
  endfacet
  facet normal 0 -1 0
    outer loop
      vertex 70 0 30
      vertex 70 0 50
      vertex 60 0 30
    endloop
  endfacet
  facet normal 0 -1 0
    outer loop
      vertex 70 0 20
      vertex 80 0 20
      vertex -10 0 30
    endloop
  endfacet
  facet normal 0 -1 0
    outer loop
      vertex 80 0 0
      vertex 90 0 0
      vertex 80 0 20
    endloop
  endfacet
  facet normal 0 -1 0
    outer loop
      vertex 90 0 0
      vertex 90 0 20
      vertex 80 0 20
    endloop
  endfacet
  facet normal 0 -1 0
    outer loop
      vertex 90 0 20
      vertex 100 0 20
      vertex -10 0 30
    endloop
  endfacet
  facet normal 0 -1 0
    outer loop
      vertex 100 0 20
      vertex 90 0 30
      vertex 80 0 30
    endloop
  endfacet
  facet normal 0 -1 0
    outer loop
      vertex 100 0 20
      vertex 100 0 30
      vertex 90 0 30
    endloop
  endfacet
  facet normal 0 -1 0
    outer loop
      vertex 100 0 20
      vertex 80 0 30
      vertex 70 0 30
    endloop
  endfacet
  facet normal 0 -1 0
    outer loop
      vertex 90 0 30
      vertex 90 0 50
      vertex 80 0 30
    endloop
  endfacet
  facet normal 0 -1 0
    outer loop
      vertex 100 0 20
      vertex 70 0 30
      vertex 60 0 30
    endloop
  endfacet
  facet normal 0 -1 0
    outer loop
      vertex 100 0 20
      vertex 60 0 30
      vertex 50 0 30
    endloop
  endfacet
  facet normal 0 -1 0
    outer loop
      vertex 50 0 30
      vertex 50 0 50
      vertex 40 0 30
    endloop
  endfacet
  facet normal 0 -1 0
    outer loop
      vertex 100 0 20
      vertex 50 0 30
      vertex 40 0 30
    endloop
  endfacet
  facet normal 0 -1 0
    outer loop
      vertex 100 0 20
      vertex 40 0 30
      vertex 30 0 30
    endloop
  endfacet
  facet normal 0 -1 0
    outer loop
      vertex 10 0 30
      vertex 10 0 50
      vertex 0 0 30
    endloop
  endfacet
  facet normal 0 -1 0
    outer loop
      vertex 100 0 20
      vertex 30 0 30
      vertex 20 0 30
    endloop
  endfacet
  facet normal 0 -1 0
    outer loop
      vertex 0 0 50
      vertex 0 0 30
      vertex 10 0 50
    endloop
  endfacet
  facet normal 0 -1 0
    outer loop
      vertex 100 0 20
      vertex 20 0 30
      vertex 10 0 30
    endloop
  endfacet
  facet normal 0 -1 0
    outer loop
      vertex 100 0 20
      vertex 10 0 30
      vertex 0 0 30
    endloop
  endfacet
  facet normal 0 -1 0
    outer loop
      vertex 30 0 30
      vertex 30 0 50
      vertex 20 0 30
    endloop
  endfacet
  facet normal 0 -1 0
    outer loop
      vertex 100 0 20
      vertex 0 0 30
      vertex -10 0 30
    endloop
  endfacet
  facet normal 0 -1 0
    outer loop
      vertex 20 0 50
      vertex 20 0 30
      vertex 30 0 50
    endloop
  endfacet
  facet normal 0 -1 0
    outer loop
      vertex 40 0 50
      vertex 40 0 30
      vertex 50 0 50
    endloop
  endfacet
  facet normal 0 -1 0
    outer loop
      vertex 60 0 50
      vertex 60 0 30
      vertex 70 0 50
    endloop
  endfacet
  facet normal 0 -1 0
    outer loop
      vertex 80 0 50
      vertex 80 0 30
      vertex 90 0 50
    endloop
  endfacet
  facet normal 0 0 -1
    outer loop
      vertex -10 0 20
      vertex -10 10 20
      vertex 0 0 20
    endloop
  endfacet
  facet normal 0 0 -1
    outer loop
      vertex 0 0 20
      vertex -10 10 20
      vertex 0 10 20
    endloop
  endfacet
  facet normal 0 1 0
    outer loop
      vertex -10 10 20
      vertex -10 10 30
      vertex 0 10 20
    endloop
  endfacet
  facet normal 0 1 0
    outer loop
      vertex 0 10 20
      vertex -10 10 30
      vertex 0 10 30
    endloop
  endfacet
  facet normal 0 1 0
    outer loop
      vertex 0 10 30
      vertex 0 10 50
      vertex 10 10 50
    endloop
  endfacet
  facet normal 0 1 0
    outer loop
      vertex 0 10 30
      vertex 10 10 50
      vertex 0 10 20
    endloop
  endfacet
  facet normal 0 1 0
    outer loop
      vertex 0 10 20
      vertex 10 10 50
      vertex 10 10 30
    endloop
  endfacet
  facet normal 0 1 0
    outer loop
      vertex 0 10 20
      vertex 10 10 30
      vertex 20 10 30
    endloop
  endfacet
  facet normal 0 1 0
    outer loop
      vertex 20 10 30
      vertex 20 10 50
      vertex 30 10 50
    endloop
  endfacet
  facet normal 0 1 0
    outer loop
      vertex 20 10 30
      vertex 30 10 50
      vertex 30 10 30
    endloop
  endfacet
  facet normal 0 1 0
    outer loop
      vertex 20 10 30
      vertex 30 10 30
      vertex 0 10 20
    endloop
  endfacet
  facet normal 0 1 0
    outer loop
      vertex 30 10 30
      vertex 40 10 30
      vertex 0 10 20
    endloop
  endfacet
  facet normal 0 1 0
    outer loop
      vertex 40 10 30
      vertex 40 10 50
      vertex 50 10 50
    endloop
  endfacet
  facet normal 0 1 0
    outer loop
      vertex 40 10 30
      vertex 50 10 50
      vertex 50 10 30
    endloop
  endfacet
  facet normal 0 1 0
    outer loop
      vertex 40 10 30
      vertex 50 10 30
      vertex 0 10 20
    endloop
  endfacet
  facet normal 0 1 0
    outer loop
      vertex 50 10 30
      vertex 60 10 30
      vertex 0 10 20
    endloop
  endfacet
  facet normal 0 1 0
    outer loop
      vertex 60 10 30
      vertex 60 10 50
      vertex 70 10 50
    endloop
  endfacet
  facet normal 0 1 0
    outer loop
      vertex 60 10 30
      vertex 70 10 50
      vertex 70 10 30
    endloop
  endfacet
  facet normal 0 1 0
    outer loop
      vertex 60 10 30
      vertex 70 10 30
      vertex 0 10 20
    endloop
  endfacet
  facet normal 0 1 0
    outer loop
      vertex 70 10 30
      vertex 80 10 30
      vertex 0 10 20
    endloop
  endfacet
  facet normal 0 1 0
    outer loop
      vertex 80 10 30
      vertex 80 10 50
      vertex 90 10 50
    endloop
  endfacet
  facet normal 0 1 0
    outer loop
      vertex 80 10 30
      vertex 90 10 50
      vertex 90 10 30
    endloop
  endfacet
  facet normal 0 1 0
    outer loop
      vertex 80 10 30
      vertex 90 10 30
      vertex 0 10 20
    endloop
  endfacet
  facet normal 0 1 0
    outer loop
      vertex 90 10 30
      vertex 100 10 30
      vertex 0 10 20
    endloop
  endfacet
  facet normal 0 1 0
    outer loop
      vertex 90 10 20
      vertex 100 10 30
      vertex 100 10 20
    endloop
  endfacet
  facet normal 0 1 0
    outer loop
      vertex 0 10 20
      vertex 100 10 30
      vertex 10 10 20
    endloop
  endfacet
  facet normal 0 1 0
    outer loop
      vertex 80 10 20
      vertex 90 10 0
      vertex 80 10 0
    endloop
  endfacet
  facet normal 0 1 0
    outer loop
      vertex 90 10 20
      vertex 90 10 0
      vertex 80 10 20
    endloop
  endfacet
  facet normal 0 1 0
    outer loop
      vertex 90 10 20
      vertex 80 10 20
      vertex 100 10 30
    endloop
  endfacet
  facet normal 0 1 0
    outer loop
      vertex 80 10 20
      vertex 70 10 20
      vertex 100 10 30
    endloop
  endfacet
  facet normal 0 1 0
    outer loop
      vertex 50 10 0
      vertex 40 10 20
      vertex 50 10 20
    endloop
  endfacet
  facet normal 0 1 0
    outer loop
      vertex 70 10 20
      vertex 60 10 20
      vertex 100 10 30
    endloop
  endfacet
  facet normal 0 1 0
    outer loop
      vertex 60 10 20
      vertex 50 10 20
      vertex 100 10 30
    endloop
  endfacet
  facet normal 0 1 0
    outer loop
      vertex 10 10 0
      vertex 0 10 20
      vertex 10 10 20
    endloop
  endfacet
  facet normal 0 1 0
    outer loop
      vertex 50 10 20
      vertex 40 10 20
      vertex 100 10 30
    endloop
  endfacet
  facet normal 0 1 0
    outer loop
      vertex 30 10 0
      vertex 20 10 20
      vertex 30 10 20
    endloop
  endfacet
  facet normal 0 1 0
    outer loop
      vertex 40 10 20
      vertex 30 10 20
      vertex 100 10 30
    endloop
  endfacet
  facet normal 0 1 0
    outer loop
      vertex 30 10 20
      vertex 20 10 20
      vertex 100 10 30
    endloop
  endfacet
  facet normal 0 1 0
    outer loop
      vertex 70 10 0
      vertex 60 10 20
      vertex 70 10 20
    endloop
  endfacet
  facet normal 0 1 0
    outer loop
      vertex 20 10 20
      vertex 10 10 20
      vertex 100 10 30
    endloop
  endfacet
  facet normal 0 1 0
    outer loop
      vertex 60 10 20
      vertex 70 10 0
      vertex 60 10 0
    endloop
  endfacet
  facet normal 0 1 0
    outer loop
      vertex 40 10 20
      vertex 50 10 0
      vertex 40 10 0
    endloop
  endfacet
  facet normal 0 1 0
    outer loop
      vertex 20 10 20
      vertex 30 10 0
      vertex 20 10 0
    endloop
  endfacet
  facet normal 0 1 0
    outer loop
      vertex 0 10 20
      vertex 10 10 0
      vertex 0 10 0
    endloop
  endfacet
  facet normal 0 0 1
    outer loop
      vertex -10 10 30
      vertex -10 0 30
      vertex 0 0 30
    endloop
  endfacet
  facet normal 0 0 1
    outer loop
      vertex 0 10 30
      vertex -10 10 30
      vertex 0 0 30
    endloop
  endfacet
  facet normal -1 0 0
    outer loop
      vertex 0 0 30
      vertex 0 0 50
      vertex 0 10 30
    endloop
  endfacet
  facet normal -1 0 0
    outer loop
      vertex 0 10 30
      vertex 0 0 50
      vertex 0 10 50
    endloop
  endfacet
  facet normal 0 0 1
    outer loop
      vertex 0 10 50
      vertex 0 0 50
      vertex 10 0 50
    endloop
  endfacet
  facet normal 0 0 1
    outer loop
      vertex 10 10 50
      vertex 0 10 50
      vertex 10 0 50
    endloop
  endfacet
  facet normal 1 0 0
    outer loop
      vertex 10 0 50
      vertex 10 0 30
      vertex 10 10 30
    endloop
  endfacet
  facet normal 1 0 0
    outer loop
      vertex 10 10 50
      vertex 10 0 50
      vertex 10 10 30
    endloop
  endfacet
  facet normal 0 0 1
    outer loop
      vertex 10 10 30
      vertex 10 0 30
      vertex 20 0 30
    endloop
  endfacet
  facet normal 0 0 1
    outer loop
      vertex 20 10 30
      vertex 10 10 30
      vertex 20 0 30
    endloop
  endfacet
  facet normal -1 0 0
    outer loop
      vertex 20 0 30
      vertex 20 0 50
      vertex 20 10 30
    endloop
  endfacet
  facet normal -1 0 0
    outer loop
      vertex 20 10 30
      vertex 20 0 50
      vertex 20 10 50
    endloop
  endfacet
  facet normal 0 0 1
    outer loop
      vertex 20 10 50
      vertex 20 0 50
      vertex 30 0 50
    endloop
  endfacet
  facet normal 0 0 1
    outer loop
      vertex 30 10 50
      vertex 20 10 50
      vertex 30 0 50
    endloop
  endfacet
  facet normal 1 0 0
    outer loop
      vertex 30 0 50
      vertex 30 0 30
      vertex 30 10 30
    endloop
  endfacet
  facet normal 1 0 0
    outer loop
      vertex 30 10 50
      vertex 30 0 50
      vertex 30 10 30
    endloop
  endfacet
  facet normal 0 0 1
    outer loop
      vertex 30 10 30
      vertex 30 0 30
      vertex 40 0 30
    endloop
  endfacet
  facet normal 0 0 1
    outer loop
      vertex 40 10 30
      vertex 30 10 30
      vertex 40 0 30
    endloop
  endfacet
  facet normal -1 0 0
    outer loop
      vertex 40 0 30
      vertex 40 0 50
      vertex 40 10 30
    endloop
  endfacet
  facet normal -1 0 0
    outer loop
      vertex 40 10 30
      vertex 40 0 50
      vertex 40 10 50
    endloop
  endfacet
  facet normal 0 0 1
    outer loop
      vertex 40 10 50
      vertex 40 0 50
      vertex 50 0 50
    endloop
  endfacet
  facet normal 0 0 1
    outer loop
      vertex 50 10 50
      vertex 40 10 50
      vertex 50 0 50
    endloop
  endfacet
  facet normal 1 0 0
    outer loop
      vertex 50 0 50
      vertex 50 0 30
      vertex 50 10 30
    endloop
  endfacet
  facet normal 1 0 0
    outer loop
      vertex 50 10 50
      vertex 50 0 50
      vertex 50 10 30
    endloop
  endfacet
  facet normal 0 0 1
    outer loop
      vertex 50 10 30
      vertex 50 0 30
      vertex 60 0 30
    endloop
  endfacet
  facet normal 0 0 1
    outer loop
      vertex 60 10 30
      vertex 50 10 30
      vertex 60 0 30
    endloop
  endfacet
  facet normal -1 0 0
    outer loop
      vertex 60 0 30
      vertex 60 0 50
      vertex 60 10 30
    endloop
  endfacet
  facet normal -1 0 0
    outer loop
      vertex 60 10 30
      vertex 60 0 50
      vertex 60 10 50
    endloop
  endfacet
  facet normal 0 0 1
    outer loop
      vertex 60 10 50
      vertex 60 0 50
      vertex 70 0 50
    endloop
  endfacet
  facet normal 0 0 1
    outer loop
      vertex 70 10 50
      vertex 60 10 50
      vertex 70 0 50
    endloop
  endfacet
  facet normal 1 0 0
    outer loop
      vertex 70 0 50
      vertex 70 0 30
      vertex 70 10 30
    endloop
  endfacet
  facet normal 1 0 0
    outer loop
      vertex 70 10 50
      vertex 70 0 50
      vertex 70 10 30
    endloop
  endfacet
  facet normal 0 0 1
    outer loop
      vertex 70 10 30
      vertex 70 0 30
      vertex 80 0 30
    endloop
  endfacet
  facet normal 0 0 1
    outer loop
      vertex 80 10 30
      vertex 70 10 30
      vertex 80 0 30
    endloop
  endfacet
  facet normal -1 0 0
    outer loop
      vertex 80 0 30
      vertex 80 0 50
      vertex 80 10 30
    endloop
  endfacet
  facet normal -1 0 0
    outer loop
      vertex 80 10 30
      vertex 80 0 50
      vertex 80 10 50
    endloop
  endfacet
  facet normal 0 0 1
    outer loop
      vertex 80 10 50
      vertex 80 0 50
      vertex 90 0 50
    endloop
  endfacet
  facet normal 0 0 1
    outer loop
      vertex 90 10 50
      vertex 80 10 50
      vertex 90 0 50
    endloop
  endfacet
  facet normal 1 0 0
    outer loop
      vertex 90 0 50
      vertex 90 0 30
      vertex 90 10 30
    endloop
  endfacet
  facet normal 1 0 0
    outer loop
      vertex 90 10 50
      vertex 90 0 50
      vertex 90 10 30
    endloop
  endfacet
  facet normal 0 0 1
    outer loop
      vertex 90 10 30
      vertex 90 0 30
      vertex 100 0 30
    endloop
  endfacet
  facet normal 0 0 1
    outer loop
      vertex 100 10 30
      vertex 90 10 30
      vertex 100 0 30
    endloop
  endfacet
  facet normal 1 0 0
    outer loop
      vertex 100 0 30
      vertex 100 0 20
      vertex 100 10 20
    endloop
  endfacet
  facet normal 1 0 0
    outer loop
      vertex 100 10 30
      vertex 100 0 30
      vertex 100 10 20
    endloop
  endfacet
  facet normal 0 0 -1
    outer loop
      vertex 90 0 20
      vertex 90 10 20
      vertex 100 0 20
    endloop
  endfacet
  facet normal 0 0 -1
    outer loop
      vertex 100 0 20
      vertex 90 10 20
      vertex 100 10 20
    endloop
  endfacet
  facet normal 1 0 0
    outer loop
      vertex 90 0 20
      vertex 90 0 0
      vertex 90 10 0
    endloop
  endfacet
  facet normal 1 0 0
    outer loop
      vertex 90 10 20
      vertex 90 0 20
      vertex 90 10 0
    endloop
  endfacet
  facet normal 0 0 -1
    outer loop
      vertex 80 0 0
      vertex 80 10 0
      vertex 90 0 0
    endloop
  endfacet
  facet normal 0 0 -1
    outer loop
      vertex 90 0 0
      vertex 80 10 0
      vertex 90 10 0
    endloop
  endfacet
  facet normal -1 0 0
    outer loop
      vertex 80 0 0
      vertex 80 0 20
      vertex 80 10 0
    endloop
  endfacet
  facet normal -1 0 0
    outer loop
      vertex 80 10 0
      vertex 80 0 20
      vertex 80 10 20
    endloop
  endfacet
  facet normal 0 0 -1
    outer loop
      vertex 70 0 20
      vertex 70 10 20
      vertex 80 0 20
    endloop
  endfacet
  facet normal 0 0 -1
    outer loop
      vertex 80 0 20
      vertex 70 10 20
      vertex 80 10 20
    endloop
  endfacet
  facet normal 1 0 0
    outer loop
      vertex 70 0 20
      vertex 70 0 0
      vertex 70 10 0
    endloop
  endfacet
  facet normal 1 0 0
    outer loop
      vertex 70 10 20
      vertex 70 0 20
      vertex 70 10 0
    endloop
  endfacet
  facet normal 0 0 -1
    outer loop
      vertex 60 0 0
      vertex 60 10 0
      vertex 70 0 0
    endloop
  endfacet
  facet normal 0 0 -1
    outer loop
      vertex 70 0 0
      vertex 60 10 0
      vertex 70 10 0
    endloop
  endfacet
  facet normal -1 0 0
    outer loop
      vertex 60 0 0
      vertex 60 0 20
      vertex 60 10 0
    endloop
  endfacet
  facet normal -1 0 0
    outer loop
      vertex 60 10 0
      vertex 60 0 20
      vertex 60 10 20
    endloop
  endfacet
  facet normal 0 0 -1
    outer loop
      vertex 50 0 20
      vertex 50 10 20
      vertex 60 0 20
    endloop
  endfacet
  facet normal 0 0 -1
    outer loop
      vertex 60 0 20
      vertex 50 10 20
      vertex 60 10 20
    endloop
  endfacet
  facet normal 1 0 0
    outer loop
      vertex 50 0 20
      vertex 50 0 0
      vertex 50 10 0
    endloop
  endfacet
  facet normal 1 0 0
    outer loop
      vertex 50 10 20
      vertex 50 0 20
      vertex 50 10 0
    endloop
  endfacet
  facet normal 0 0 -1
    outer loop
      vertex 40 0 0
      vertex 40 10 0
      vertex 50 0 0
    endloop
  endfacet
  facet normal 0 0 -1
    outer loop
      vertex 50 0 0
      vertex 40 10 0
      vertex 50 10 0
    endloop
  endfacet
  facet normal -1 0 0
    outer loop
      vertex 40 0 0
      vertex 40 0 20
      vertex 40 10 0
    endloop
  endfacet
  facet normal -1 0 0
    outer loop
      vertex 40 10 0
      vertex 40 0 20
      vertex 40 10 20
    endloop
  endfacet
  facet normal 0 0 -1
    outer loop
      vertex 30 0 20
      vertex 30 10 20
      vertex 40 0 20
    endloop
  endfacet
  facet normal 0 0 -1
    outer loop
      vertex 40 0 20
      vertex 30 10 20
      vertex 40 10 20
    endloop
  endfacet
  facet normal 1 0 0
    outer loop
      vertex 30 0 20
      vertex 30 0 0
      vertex 30 10 0
    endloop
  endfacet
  facet normal 1 0 0
    outer loop
      vertex 30 10 20
      vertex 30 0 20
      vertex 30 10 0
    endloop
  endfacet
  facet normal 0 0 -1
    outer loop
      vertex 20 0 0
      vertex 20 10 0
      vertex 30 0 0
    endloop
  endfacet
  facet normal 0 0 -1
    outer loop
      vertex 30 0 0
      vertex 20 10 0
      vertex 30 10 0
    endloop
  endfacet
  facet normal -1 0 0
    outer loop
      vertex 20 0 0
      vertex 20 0 20
      vertex 20 10 0
    endloop
  endfacet
  facet normal -1 0 0
    outer loop
      vertex 20 10 0
      vertex 20 0 20
      vertex 20 10 20
    endloop
  endfacet
  facet normal 0 0 -1
    outer loop
      vertex 10 0 20
      vertex 10 10 20
      vertex 20 0 20
    endloop
  endfacet
  facet normal 0 0 -1
    outer loop
      vertex 20 0 20
      vertex 10 10 20
      vertex 20 10 20
    endloop
  endfacet
  facet normal 1 0 0
    outer loop
      vertex 10 0 20
      vertex 10 0 0
      vertex 10 10 0
    endloop
  endfacet
  facet normal 1 0 0
    outer loop
      vertex 10 10 20
      vertex 10 0 20
      vertex 10 10 0
    endloop
  endfacet
  facet normal 0 0 -1
    outer loop
      vertex 0 0 0
      vertex 0 10 0
      vertex 10 0 0
    endloop
  endfacet
  facet normal 0 0 -1
    outer loop
      vertex 10 0 0
      vertex 0 10 0
      vertex 10 10 0
    endloop
  endfacet
  facet normal -1 0 0
    outer loop
      vertex 0 0 0
      vertex 0 0 20
      vertex 0 10 0
    endloop
  endfacet
  facet normal -1 0 0
    outer loop
      vertex 0 10 0
      vertex 0 0 20
      vertex 0 10 20
    endloop
  endfacet
endsolid OpenSCAD_Model
