solid OpenSCAD_Model
  facet normal -0.951057 -0.309017 0
    outer loop
      vertex -2.42705 -1.76336 0
      vertex -2.42705 -1.76336 20
      vertex -3 0 0
    endloop
  endfacet
  facet normal -0.951057 -0.309017 0
    outer loop
      vertex -3 0 0
      vertex -2.42705 -1.76336 20
      vertex -3 0 20
    endloop
  endfacet
  facet normal -1 0 0
    outer loop
      vertex -3 0 20
      vertex -3 45 20
      vertex -3 0 0
    endloop
  endfacet
  facet normal -1 0 0
    outer loop
      vertex -3 0 0
      vertex -3 45 20
      vertex -3 45 0
    endloop
  endfacet
  facet normal 0 0 1
    outer loop
      vertex -3 0 20
      vertex -2.42705 -1.76336 20
      vertex -0.927051 -2.85317 20
    endloop
  endfacet
  facet normal 0 0 1
    outer loop
      vertex 32.4271 -1.76336 20
      vertex -3 0 20
      vertex 30.9271 -2.85317 20
    endloop
  endfacet
  facet normal 0 0 1
    outer loop
      vertex 30.9271 -2.85317 20
      vertex -3 0 20
      vertex -0.927051 -2.85317 20
    endloop
  endfacet
  facet normal 0 0 1
    outer loop
      vertex 33 0 20
      vertex -3 0 20
      vertex 32.4271 -1.76336 20
    endloop
  endfacet
  facet normal 0 0 1
    outer loop
      vertex 32.4271 1.76336 20
      vertex -3 0 20
      vertex 33 0 20
    endloop
  endfacet
  facet normal 0 0 1
    outer loop
      vertex 2.42705 46.7634 20
      vertex -3 0 20
      vertex 32.4271 1.76336 20
    endloop
  endfacet
  facet normal 0 0 1
    outer loop
      vertex 0.927051 47.8532 20
      vertex -3 0 20
      vertex 2.42705 46.7634 20
    endloop
  endfacet
  facet normal 0 0 1
    outer loop
      vertex -0.927051 47.8532 20
      vertex -3 0 20
      vertex 0.927051 47.8532 20
    endloop
  endfacet
  facet normal 0 0 1
    outer loop
      vertex -2.42705 46.7634 20
      vertex -3 0 20
      vertex -0.927051 47.8532 20
    endloop
  endfacet
  facet normal 0 0 1
    outer loop
      vertex -3 45 20
      vertex -3 0 20
      vertex -2.42705 46.7634 20
    endloop
  endfacet
  facet normal 0 0 -1
    outer loop
      vertex -3 45 0
      vertex -2.42705 46.7634 0
      vertex -3 0 0
    endloop
  endfacet
  facet normal 0 0 -1
    outer loop
      vertex -3 0 0
      vertex -2.42705 46.7634 0
      vertex -0.927051 47.8532 0
    endloop
  endfacet
  facet normal 0 0 -1
    outer loop
      vertex -3 0 0
      vertex -0.927051 47.8532 0
      vertex 0.927051 47.8532 0
    endloop
  endfacet
  facet normal 0 0 -1
    outer loop
      vertex -3 0 0
      vertex 0.927051 47.8532 0
      vertex 2.42705 46.7634 0
    endloop
  endfacet
  facet normal 0 0 -1
    outer loop
      vertex -3 0 0
      vertex 2.42705 46.7634 0
      vertex 32.4271 1.76336 0
    endloop
  endfacet
  facet normal 0 0 -1
    outer loop
      vertex -3 0 0
      vertex 32.4271 1.76336 0
      vertex 33 0 0
    endloop
  endfacet
  facet normal 0 0 -1
    outer loop
      vertex -3 0 0
      vertex 33 0 0
      vertex 32.4271 -1.76336 0
    endloop
  endfacet
  facet normal 0 0 -1
    outer loop
      vertex -3 0 0
      vertex 32.4271 -1.76336 0
      vertex 30.9271 -2.85317 0
    endloop
  endfacet
  facet normal 0 0 -1
    outer loop
      vertex -3 0 0
      vertex 30.9271 -2.85317 0
      vertex -0.927051 -2.85317 0
    endloop
  endfacet
  facet normal 0 0 -1
    outer loop
      vertex -3 0 0
      vertex -0.927051 -2.85317 0
      vertex -2.42705 -1.76336 0
    endloop
  endfacet
  facet normal -0.587785 -0.809017 0
    outer loop
      vertex -2.42705 -1.76336 0
      vertex -0.927051 -2.85317 0
      vertex -0.927051 -2.85317 20
    endloop
  endfacet
  facet normal -0.587785 -0.809017 0
    outer loop
      vertex -2.42705 -1.76336 20
      vertex -2.42705 -1.76336 0
      vertex -0.927051 -2.85317 20
    endloop
  endfacet
  facet normal -0.951057 0.309017 0
    outer loop
      vertex -3 45 20
      vertex -2.42705 46.7634 20
      vertex -3 45 0
    endloop
  endfacet
  facet normal -0.951057 0.309017 0
    outer loop
      vertex -3 45 0
      vertex -2.42705 46.7634 20
      vertex -2.42705 46.7634 0
    endloop
  endfacet
  facet normal -0.587785 0.809017 0
    outer loop
      vertex -2.42705 46.7634 20
      vertex -0.927051 47.8532 20
      vertex -2.42705 46.7634 0
    endloop
  endfacet
  facet normal -0.587785 0.809017 0
    outer loop
      vertex -2.42705 46.7634 0
      vertex -0.927051 47.8532 20
      vertex -0.927051 47.8532 0
    endloop
  endfacet
  facet normal 0 1 0
    outer loop
      vertex -0.927051 47.8532 20
      vertex 0.927051 47.8532 20
      vertex -0.927051 47.8532 0
    endloop
  endfacet
  facet normal 0 1 0
    outer loop
      vertex -0.927051 47.8532 0
      vertex 0.927051 47.8532 20
      vertex 0.927051 47.8532 0
    endloop
  endfacet
  facet normal 0.587785 0.809017 0
    outer loop
      vertex 0.927051 47.8532 20
      vertex 2.42705 46.7634 20
      vertex 0.927051 47.8532 0
    endloop
  endfacet
  facet normal 0.587785 0.809017 0
    outer loop
      vertex 0.927051 47.8532 0
      vertex 2.42705 46.7634 20
      vertex 2.42705 46.7634 0
    endloop
  endfacet
  facet normal 0.83205 0.5547 0
    outer loop
      vertex 2.42705 46.7634 0
      vertex 2.42705 46.7634 20
      vertex 32.4271 1.76336 20
    endloop
  endfacet
  facet normal 0.83205 0.5547 0
    outer loop
      vertex 32.4271 1.76336 0
      vertex 2.42705 46.7634 0
      vertex 32.4271 1.76336 20
    endloop
  endfacet
  facet normal 0.951057 0.309017 0
    outer loop
      vertex 32.4271 1.76336 0
      vertex 32.4271 1.76336 20
      vertex 33 0 20
    endloop
  endfacet
  facet normal 0.951057 0.309017 0
    outer loop
      vertex 33 0 0
      vertex 32.4271 1.76336 0
      vertex 33 0 20
    endloop
  endfacet
  facet normal 0.951057 -0.309017 0
    outer loop
      vertex 32.4271 -1.76336 0
      vertex 33 0 0
      vertex 33 0 20
    endloop
  endfacet
  facet normal 0.951057 -0.309017 0
    outer loop
      vertex 32.4271 -1.76336 20
      vertex 32.4271 -1.76336 0
      vertex 33 0 20
    endloop
  endfacet
  facet normal 0.587785 -0.809017 0
    outer loop
      vertex 30.9271 -2.85317 0
      vertex 32.4271 -1.76336 0
      vertex 32.4271 -1.76336 20
    endloop
  endfacet
  facet normal 0.587785 -0.809017 0
    outer loop
      vertex 30.9271 -2.85317 20
      vertex 30.9271 -2.85317 0
      vertex 32.4271 -1.76336 20
    endloop
  endfacet
  facet normal 0 -1 0
    outer loop
      vertex -0.927051 -2.85317 0
      vertex 30.9271 -2.85317 0
      vertex 30.9271 -2.85317 20
    endloop
  endfacet
  facet normal 0 -1 0
    outer loop
      vertex -0.927051 -2.85317 20
      vertex -0.927051 -2.85317 0
      vertex 30.9271 -2.85317 20
    endloop
  endfacet
endsolid OpenSCAD_Model
